<mxfile host="app.diagrams.net" modified="2022-03-31T02:48:33.554Z" agent="5.0 (X11)" etag="3kT98Tu8N_xm5gmZi9q0" version="17.2.5" type="github" pages="2">
  <diagram id="hE01IFop1IBD-DR0Vh8y" name="Data Stream">
    <mxGraphModel dx="2330" dy="1252" grid="1" gridSize="10" guides="1" tooltips="1" connect="1" arrows="1" fold="1" page="1" pageScale="1" pageWidth="850" pageHeight="1100" math="0" shadow="0">
      <root>
        <mxCell id="0" />
        <mxCell id="1" parent="0" />
        <mxCell id="OYFWDPGnAWsZwV81HNKP-2" value="" style="shape=image;verticalLabelPosition=bottom;labelBackgroundColor=default;verticalAlign=top;aspect=fixed;imageAspect=0;image=https://i.ytimg.com/vi/GlybFFMXXmQ/maxresdefault.jpg;" parent="1" vertex="1">
          <mxGeometry x="270" y="250" width="520" height="293" as="geometry" />
        </mxCell>
        <mxCell id="OYFWDPGnAWsZwV81HNKP-6" style="edgeStyle=orthogonalEdgeStyle;rounded=0;orthogonalLoop=1;jettySize=auto;html=1;fontFamily=Comfortaa;fontSource=https%3A%2F%2Ffonts.googleapis.com%2Fcss%3Ffamily%3DComfortaa;fontSize=25;" parent="1" source="OYFWDPGnAWsZwV81HNKP-4" target="OYFWDPGnAWsZwV81HNKP-5" edge="1">
          <mxGeometry relative="1" as="geometry" />
        </mxCell>
        <mxCell id="OYFWDPGnAWsZwV81HNKP-4" value="Data is very large, so we need to transfer it as stream by &lt;b&gt;event emitter&lt;/b&gt;" style="rounded=0;whiteSpace=wrap;html=1;fontFamily=Comfortaa;fontSource=https%3A%2F%2Ffonts.googleapis.com%2Fcss%3Ffamily%3DComfortaa;fontSize=25;" parent="1" vertex="1">
          <mxGeometry x="70" y="570" width="350" height="110" as="geometry" />
        </mxCell>
        <mxCell id="OYFWDPGnAWsZwV81HNKP-5" value="Data in stream is package by a buffer which we can parse them by built-in module or third party module" style="rounded=0;whiteSpace=wrap;html=1;fontFamily=Comfortaa;fontSource=https%3A%2F%2Ffonts.googleapis.com%2Fcss%3Ffamily%3DComfortaa;fontSize=25;" parent="1" vertex="1">
          <mxGeometry x="570" y="565" width="500" height="120" as="geometry" />
        </mxCell>
        <mxCell id="q35H9doEMfjliMhX2mms-1" value="" style="shape=image;verticalLabelPosition=bottom;labelBackgroundColor=default;verticalAlign=top;aspect=fixed;imageAspect=0;image=data:image/png,iVBORw0KGgoAAAANSUhEUgAAAvgAAAFbCAYAAACgQvo+AAAABHNCSVQICAgIfAhkiAAAABl0RVh0U29mdHdhcmUAZ25vbWUtc2NyZWVuc2hvdO8Dvz4AAAAtdEVYdENyZWF0aW9uIFRpbWUAVGh1IDMxIE1hciAyMDIyIDA5OjQ1OjE5IEFNICswN+7u83sAACAASURBVHic7J11mBPX94ffSbKbzWbdXYHFXRaXQovVaGkLpULdhbq7e39VKrRQ+RbqLYUWd3e3dXePJ78/sgmEZN2Q+z7PPs9mZu7cM3cmk88999xzpfDQThYEAoFAIBAIBALBOYGsow0QCAQCgUAgEAgErYcQ+AKB4JzGTSanX3gssb5BHW2KQCA4Cwn38mNgRAJKuaKjTREIGo14WgUCwTnLsKhOXJI0ED8PT+bvWUt6eVFHm1QnEUGerP14IgBj7llKVmFNB1skEAgAgj29uaXfGCr1GhYf3c2a9EOI2GbBmY7w4AsEgnMOuSRxU9/RXN9nFD5KD3bkppBSWtjRZtXLFWNikCSJzQeLhLgXCM4gsipL2Zx1HE+Fkmt6DuXOgeNxk8k72iyBoF6k5k6ylcsV9OszhPj4JAAKi/JYveafVjWuLgICArnlljtJTh5GaGgYMpm1n2IymRgzJhmj0dAudpzPzLhwLE/cMJ2V2/fwwHuft0kdt1xyEfddfanTdq1ez/GsHBatWM9vqze2Sd2tyYdz7mDMgN48O3cBv6/Z5LR/RJ8eTL9gBL0S4/Dz9qZaq2X30RS+/HMpe46m1Hvu9rgPZyM39BnJ0KjOFNZU8vmOFWRVlDRYZmDXIH56cTQAva//g2qtsa3NtCNJsOKDicSGqXn4o238tjbDYf/iN8fTNc6XW1/fwMqdee1mV2PxVruxe94lLvfd8fYmlm3NaWeL2p+wABUbPpsMQNKMXzGaWtfHu+z9i0iI8OL6l9axYV9Bq577fKQ53/cQL1/uHHAB4V5+7MlP59PtK9raTIGg2TQrRMfPL5DkwWPw9vbFbDbbBXZ74OXlxWefzSM6OgaDQU9ZWal9X15erhD37UR8ZCgAqTltJzbiIqx1lFZWUVWjAUAmkxEa4E/PhDh6JsQRGxbC+//7vc1saA3ia68jJSffad9Ts6/h6vGjANAbDJRWVhHk683ofj0Z0ac7D3/4JSu27a773O1wH842+ofHMTSqM1V6Le9tXkKJpqqjTWqQwd2CiA1TU6UxsnTL2SeGLRYLReVah21+XkoUcqmDLBIIWp+CqnLe3bSEp0ZeQp/QWIZHJ7Eh80hHmyUQuKTJAj86OoHBA0chk8nIzk6noCCHfv2GtoVtLrnqqplER8ewYeM6nnryEXQ6bcOFBK1OfLhVWKa5EK2tVkdEOAAvffUDy08Rue5ubjw9+2ouGz2MG6dO4H//rSGvpLSu03QoCrmcyJBgwFmEXzoymavHj6JGq+O5ud+xbOtOzBYLYQH+vDfnNnrEx/LwtVfUL/Db4T6cbVzcpT8Avx3ecVaIe4BpY+IAWLwxE42u/UYOWouqGiNDbl3ssO2P18fRM8G/gywSCNqGSr2GhQe2cNuAcVzcpS+bso5htpg72iyBwIkmu96DgkIxGo1s2bqajZtXYDDq28KuOhmaPByA33/7WYj7DsQmLFNz29CDHx5ireM08ao3GHjt24VUa7TIJIn+XTu1mQ0tJS48BIVcRlFZOZXVjnHVsyaNA+DdH3/l3y07MFusQ/p5JaW8/+MfAEQGB+Kt9qzz/O1xH84m4v2CCffyo9qgZ0v28SaVNZktLv9va9QeCiYlRwLw8+r0dqtXIDifacn3fVd+OiWaKvw81HQNCm9t0wSCVqHJHvyCghwOHdqDVtsxk8ASOnUGIC2t/thkG9279+Saq2fRrXt3QkPDkCSJ3JwcVq9ZyYIF86isrGhV+1RKd2ZeOIYJQ/oTFx6Km0JOWk4ev6zeyP/+W2MXcafy5OxruGb8KJ74ZB7HsnK49dKJDOzaGR8vNem5Bcz/Z7nL2G2A8MAArp98AcP79CAiyB+zxUJqTh6/rdnMwmWu6wNr3PfsiyfQKzEOrd7A5n2HePXbhdw5bTIzLhzDM5/N5491m+3H//TK43SLi3E6z3cvPOq07YJ7nqCwtLxFdgb7+eDtqcJkNpOe5xxvqtHpKauqRq3yQC537qe2V7vY6JUYy22XTaZ/UiIymYyDaRm8/d0vRAQHAs7hOSqlO11irKJuy4GjTuc7kpHFy/N+BECr09m3t+Q+nA3P2bxn5hDi78vr8xfx6KwrCAnw5+/1W3nt2//xyHXTmTp8MGUVVTzx6Tz2Hk9zqq9zgLXDc6Q4B6PZ5NKmuiivsrazzmBCq29a2ZYwKTkStYeC1JxKdh4pbtY5np3dlxsmJXI0s5xLHl2JwXTSo+ilUnDT1C5MSo4gJtQLSYKswhpWbM/l89+PUFbl7KTZ9c0l+Hi60Xf2nwzpHsydlyXRJcYXk9HMpgMFvPPjAY5nVzb7ml3RHDuvHBPLG3cN5Jc16bz8zV4emtGd8QMjCPRRUlimZenmbD74+SBVNa03KhIV7MnDM3sysk8oSjcZKTlVfPHnUbYcqn8Sd0iABzdM7MQFA8KJCPZELpPIzK9mxY5c5v55hPIqx/DSl2/tz4wJ8U7nmf/MSKdtruY5NLW+liJJcMXoWKaPiyMpxhcPdzk5RRpW78rjk18PO4Vw2YgNVXPbpV0Y3D2EiCAVcpmMnKJqthwsYu6fR0nNcXzO3r9/MBcPj2bB0hM8/7Xr0c3nZvfh+kmdWLcnnxtfWe/ymJZ83y0WC4eKshkenURSYDgHC7ObVF4gaA+aLPCzszvOwxQSHIqnyhOj0UhubsNxqjNnXs+9984BQKvVUFhYiFKpJDomluuum83QYSOYfePMVovbjwgKZO4T9xITZvU8l1VWIUkSnWOiePz6q+jXJZFH/u8rp3I2L2yAjzfznp7D7qMnWLtrPz0SY+kSHcmLt12H0WTi7/VbHcqN6NODt++7BU8PJQajkdyiEgJ8fegWF0O3uBi6REfw4lc/ONU3e8p4Hpw5DbAK5crqGiYM6Y8kk/Dy8AAgLddRkHp7elJcbu0MuSkU+Kg9MZrMlFc5hkDUaHRO4r45diZEWr0iOQXFGE3OL19PDyUh/r4AHE7L6rB2AZg8bBAv33EDCrkMg8lEXmEJfTrF8/nj9/Ld0pUApJwWniNJJ2OT48KCST/tvGWVVSxcvs6prpbch7PhOYuPCCWvuJQRfbozb/Fy7r5iKtMvGIHJYrZ2lFeu58apE3hwxjRmv/SuU52Bnj4A5FWWO+1riOIK6w9+WWX7jkpeOc4q4prrve+fFMh1FyVgNFl45OMdDuLe39udn14aQ2KENwAVNQYsZkiM8CbxEm8uGRHNVU+vJrvItcPmggHhvH33QEoq9JRX6QgLUHHh4EiSe4Yw/alVrSbyW2qnBMx/ZgT+3kp2Hi3GT+3OoG5B3DS1M4O7B3HVM2vQGVreaQsP9OTXV8cR6KsEoKBUS7CfB+/fP5in5u6qs1yvBH/mPzMCH7U7OoOJjPxqvFQKEiO96Rztw6Ujo7nqmTXknHJ9lRqDgyj291Yil0lUVOvRGx1DQnR6x8/Nqa8lSBK8f99gpg6PttpjMFFerSc2TM0NkxKZOiyKmS+s5XiWo0Otd2IAPzw/EpVSgdlsoahMh8FsJiLIk6vGxTF1eDSzX1nP9sMn09v+tiaDi4dHMzE5khfn7XHpXJgwOAKAP9dn1mlzS7/vOZVlAAR6ejervEDQ1pzRefDd3NxZtWoTcrljOiqFQsH69Tucjr/88snk5VmFf1RUNHff/QBGo5HXX3+RpUsXY6oVit269uCDDz+lU2JnBg9KZuMmZyHVZFsVcj6ccwcxYSFs3HuQV775icz8QiRJYuqIwbx423VclDyA39duYsOegw5lEyLCALhszDBmPfsmqbWiRy6T8da9NzN+cD+unTjWQXhFBgfyzv23olK689GiP/lm8Qr0BgOSJHHtxLE8OutKrhw3gq/+/JfswpNewT5dEnhgxuUYTWbemL+QRSvW2eO+P3r4LkICrKI55TThNfnBZ+3/XzoqmZduv54dh49y66sf1tsuzbXTHnqS5zq2/MpxI3BTKMgqKOJY5knvSXu3S3RYMC/dfh0KuYzPfv2HL/5YisFoRKV05/W7Z3PVBdYJtKlZuQ7larQ6th06xuDuXXjulmt57KN5bDvk7Mk/nebeBzjznzNvtScBPt5odHpen78Ii8VCbFgIs6dOICU7j//9txqAq8aPIjTAz+U1erq5A6A16lzur4+KagMVNQZyijVNLttcYkPVDEwKwGS2OGXOaQxKNzlv3DkQmUzik18Osz/FcS7K49f1JjHCm9ScSh78cBv7avd3ifbhvXsH0zXOlxdv7cvNr7nORnXHpUnc/NpG1uy2dlATIrz4+KFkukT78uQNvbnp1Q1NttkVLbXzwsGRLN6YyXNf7cJgtAq+bnG+LHxpLD0T/LlqXBwL/j3RYjsfmdmTQF8lWYU13PX2Jg6kWkVecvdgnr6xT53l3rpnID5qdxatSuPlb/fYRxQ6RXrz0UPJdI7y4Ynre3Hvu1vsZd74bh9vfLfP/tmWReeed7c0mEWnOfW1hGmjYpk6PBqNzsgTn+1k8cYszBYLMaFqXrtzAMndg60dgEeXO5S754quqJQKth0u5r73N1NQYu3QeHkqeObGvlw5JpZ37h3EmHuWYNPx6/fmU1Ru7VgN6R7EpgOOIyd9OvkTHuiJVm/iv611e9Zb+n2vMVg7BmqFslnlBYK25ozOgx8WHk55eRklJcWUlBRTo7F6G3Q6rX2b7S8vL4f8/JMiavhw60TgDevXsHjxn3ZxD3Do8AFuunkWN82+lgMH9raKreMH96NLbCQnsnO5/725ZOZbXzoWi4W/1m1hycbtAAzr1d2hnJfKg+BaT/RbC362iy4Ak9nMT7Ve3OjaiZo2bpw6AZXSnR//W83c35eiNxjs9X23ZKX9PEmxUQ7lZl00FkmSmPv7P/y0fK1D3PfPqzfg5+1FcXmFU7z4qcTZ474bTtXWXDtt2WFOnzyqkMu4evwo7r/mMgDe+u6XDm2X2VMm4KZQ8PuajXzyy98YjNYfUo1OzxvzfyakVoie7sEHeG7uAvJKSgny8+Wrpx/g+xcf48pxI3B3c2uwXaFp9+FseM7iazsgq3fsxVJ7vL+3GoBtB6yZKtwUCjyU7pRWVru8TlntwIhFanr2FosF+t34J1c+tarJZZvLtDFxSJLE+r355Jc0XWg8cHV3EiK8OJJRzkc/H3LYp5BL9tj+Jz/faRfNAEczK3jok20AjOoThrfa9TP35/pMu7gHSMmp4snPdgIwvFcoXqqW+4haw06LxcLL3+yxi3uAQ2nlfF8r6kf1DW2xnXKZxPhB1pHFF77ebRf3AJsPFrJoVarLcm5yGW9+t49bXt/AM1/sdAgXOp5dySvzrb9BI3u33MaOqA9g2thYAOb+cZS/NmTav+8Z+dXc/sZGqrVGusX50qeT46TrmFDr93ve4qN2cQ/WSdvPfbmLyx5fyT3vbEYuO/l9Npkt/LXeOmo7ZVi0ky0Tk63vohXbc6jS1B2a1dLvu1S71FUzXjUCQbtwRnvwMzPSmTLlAvvnhx95kiumXcXCn37gk0/r91h6e3sB4Kn2QiaTYTY7DmFmZTbdW1YfY/v3BuC31RvR6Z2H/D5a9BeLVq6nqPy0sInaFIrF5RVsOeCcbktXK6gqThOWo/r1BODnVa49aLa4ba3+ZPiRQi5neJ8eWCwWfnFRrrLaKppSXYShnEqcPXNLwxM7m2OntQ7rD+klo5IZO8DatpIkERroj5tcjtli4Z0ffmXVjj0trq8l7TK69r4vWuE8CpR/SmaflOxcp/3ZhcVc++yb3Dv9Yi4emUyvxFh6JcZy++WTeWXe/1i9s/7OZ1Puw9nwnCXU2njilLaKDw9zmIcRFx6KTJJIzXFuz7MNmSQxbbR1PsXPK5sentMrwZ+bp3bGaLLw8MfbHUJzAAJ8lKg9FFgsFnYfc14H4Eh6ORqdEZVSQUSQJ0eqncOath5yXvl374lSDEYzbgoZ4YGeHMtq2Tym1rAzJaeKGp1zCM7hDOuxIf4eLbLxVDsBtrqIt9/ioq0ADCZzvWsXnMiyhjl5e7ohl0ktnuDd3vUB9tCqTfudnQ1VGiPTn1mNt8qNzALH90tmQTWdo30YkBTEv6elh9XqTQ6dvVP5bW06s6d0YmJyJM9/vcthzYELB1nDc35fV3d4jkBwPnBGC/zTiY9LACC1ERNsN2/ZzE033cGgQUNYuPBP9u3bQ0ZGGikpJ9i9awflFU2P0a2PbnFWT8Luo66HgXOKiskpcp5AZ0sFeSA1w+61PJWCkjJe/XYhRaUnvUU+ak/CAwMAuG/6JS5TdNm8obaRBIBO0RF4qTzIKSxxis8GCAuweldSs+sX+PGR1nM31BForp0ACbV1+Hmp8fNSO+xbvWMvn/32DwdTHTtp7d0uwX4+BPv5YDAaOZDi3GEMDbR67ytrNBSWuRZBhaXlPDv3O/5v0V9cOmoo1140htAAP965/1buevMjl2Lcfi2NvA9wdjxn8bXzLk5NJxobEeowD8PWUTkX0oIO6xVMRJAnFdV6lm9vWu57N4XEG3cNQC6T+PDnQxw8xZtsw11xcoD2qyeGuzyPojb80d3FRHWAimpnZ4XJbKFaa8TPyx0P95av5tkadlZrXM+jWr+ngFtf30BlTcvnWSndahdUNFtcTtotq6g/lttb7cZlI2LoFO2Nh7vC7vlVKU+2YWt6g9uzPmXtc1Be7bqdj6S7/r39dukJxg0I5+apnbloSCQHUspIza3kRHYl2w4VOnUIbBxILeNYVgWdo3wY2iuEdbttI4m+xIV7UV5lYN0ekVlMcH5zdgn8+FqBn9KwwN+/bw/PPvcEt992N1FR0URGngwhMBqNLFgwj7lzP24Vu07NdZ6S3bSXim0xp5Qs1x7JnKJie+yxDZuwAxjdv1ed59bp9WQXnPQq2WKwU+rwfp4UjHVfg1wmIzrUeq3pOfWHhjTXTpXS3T6Bdsydj1FSYfU4zX/2IfomJbL7WIqTuG9Jfc1tF9tE4NTcfJcTvRIjI2rP2/AzUVhazpd/LOV//63my6ceoHt8DPdcdQlbnnvL5fFNuQ9wdjxnCbaQo1rx7u/thZ+Xmj3HToY+nFw0zHWb1pHM54zkitrc93+sz3SaNFkXXzzuKICPZVXwya+H6jjaiiRJDOsV0iwb25O2sLOoXHtGrPx76choXripX50hRmd7fc1l/Z58bnl9A4/M6EFSrB9RwY4pgVfvyuXRT3ZQXO48p+b3tRk8MrMnU4dF2wX+RYOtoV6LN2Y6hGsJBOcjZ43A9/Hxwd8/AIvFQlq661jH01m+bCnLly0lODiE+PgEYmPjGTZ0BMlDhzN79q0cPLCP9RvWttg2W67zgpIyqjRNy81vE0ON8cKeXmb51l3M+eCLxperFaQn6hB5Ni9vfauiRoYE4SaXo9PryS12Hk5vDTvjI6zpTMura+ziHmD59t30TUrkouT+fP3Xf61WX3PbxVZfXd7kxNrzpjWh01el0fLJz3/z0SN30T3eOR2mjabch1NtPZOfs4SIMId7bhPzqaeG7Ng6Dy5CngD0Jqtn1V3Wcs9yW+Lt6caFtZk+fl7V+PCcglItGp0JuVwiKtiTiCBPokPUpOTUvaCXyWyhyzW/ttjmtuZssbOpxIaqeePOQbgpJN793wF+XJ5KScVJwRoWoGLDZ5PP2vpayqqdeazamUegr5Jusb7EhKnp0ymQi4dHMaZfOK/fMYBb33CeXP3HukwentGDiwZF8LRchsFkZlKy9Tv1Rz3Zc1oLd7m186RtpSx8AkFrc0ZPsj2VhPhEAPLyctFqmzYZrbCwgK1bN7No0Y88OOduNmy0xksnde3eQEmrV0kmq7+ZImtznReUOQ+TgzU7SL+kTvYwnlOxeTMb4+W1YfPcFlU0LUVddEiQ1c5SZzuV7u50impY4MfXLj6VkVfgMtSjNey0C7vTBOLybdY0dN3iYuznbo36mtsuUbX15RS6zl1uy3N/4jSBP+PCsdw5bQpdXTwPAOU11mHp6no6i025D3DmP2cKuZyIkECHzpC9I3BKpyQ+IhSD0URWget45wqd9d0QoFK73N9WyCTJYSJgQ0wdHoWHu5wjGeVOmW/q46nPdzDuvqWMvnsJ/2zOQu2h4KM5yS5DZWyjAnKZhLdn8zy53mp3p21ymWSPRW+N9QJaw872QGew2imTrNmLTkfl4dpfNm5gOG4Kic0HC/n418MOYhscU+a2Bq1ZX2Ofa13tc+Dj4nkBa+jMwK5BBPjUnXGmuFzH+r0F/PBfKo99sp0bX7bmrx/TL8zl851bXMPmg0V4q90Y2SeE2DAvukT7kl1Uw44jrt8PrUmAp3WeX4VYcFNwhnLWCPy4BKvAT01rONVZ3779GTd2PKGhrleYs73fikvqfwn06tGfB+9/ngcfeJ7+/YbWeZwkWZvRz8vL5cvzvqsu4dtn5zBp6ECH7Qq5jKhgqxhqipdXWZtlxZZh5HRCAvyIDgtGpXR82do+q1XOE84mDxuISulu9QgX1S04YmvDKNLz6l/UpSV2ngzxcGyTnMISDqdZPTMXDenfavU1t11s9bm6595qT8YNtKbNO93bfO1Fo7nziimMrp3AejrjB/YFYNeRuldibcp9OBues7jwEOQymUPYjr2jd8oISWxYKJkFhRhNrkNa0sqtna1OAWEu97cFV4yOZc/8S9m34FKum5jYuDK14TlN8d6fzhOf7iA1p5KkGF+eu6mv0/6SCp194unQns6hL5Jk9fbGhnnVKeIGdwt02tavSyBuChkms4Xc4rqzbRlqhbuqgTj91rCzPbDZKUkS3eN8nfZ3j3OdutXWGTo1S8ypJEY1Lo+6qfaZlxpog9aqrynPtW0EaWjPIKd9XioFC18cw08vjiYq+OS7xLaC86TkSJcC/mC61UEgk0kE1tEx+H2N9fszcWgUE2on1/65LrNdQvU6175jUssaDpEUCDqCs0bgx8dZXzBpqQ2H51w5fQavvPo2zz77EgEBJ3+glEoPZs26kaHJI9Drdaxft7re84wePRE3NzcUcgVjRl9Up+fjQEoaJrOZqJAg7pw2BTeF9WXl7anivqsv5erxoyirqmbBkhUO5aJDgnFTyCmpqKS8nrSUp3M43Spyxw3oy9gBJ3Mve7i7c+OUCfz7wct88/Qc+8Q0G7ZMJFeOHWEPHwEY1bcnt18+CYDSqup6PcKeHtYXbXCAH26K+iO8mmtnfB0CH2DFduvKhROTBzrta+92scWYX5jcH//arE1gve+v3nEDbm4Kl9ex65h1Dsn1k8czok8Ph3K3Xz6J6ydfgNli4ZvFjs/LqTTlPpwNz9nJ0BtHbz2c9PSHBfjj6aEkJavuTsrhomy0RgOhal/7D3Bb8+isnngq5Sjd5Dx2bU9kDXhIEyO86dc5AIPRwu/rmp/Nq0pj5K53NqPRGblqXByXj3IM6TKaLCzZbE0n+PxNfRjS/aT4CvL14PU7B7Ly/yby8ZzkOjOpXDoihhF9TqZT7BTlw6t3WDvX6/fk15uG8ESt6LtiTByeyrpFfmvY2R6YzBZW1E6GfuqG3g7e6iBfD267pLPLcrYJ0EN7BuPn5dgZjg3z4sGrujdqEa60XGt7jh8QXu/k2NaqrynP9a+r0wC4/dIkpg6Pth8bFezJp48MxUulYH9KKXtPnAwnNBjNvHLbAD6ak8xzN/V1aE8vTwVPXW9955RV6ckvdT1qv3RLNlq9ieG9QhjU1fpb/0cLvlONJcongHi/YEwWMwcKsxouIBB0AE2OwR87ejIeHid74YpacREYEMyki6bbt6emHeHwkdbJMQ+nTLBNbXiC7aKFPzB61Fj69x/In3/+R3FJEWaTiaCgYBQKN0wmE2+88TJFRfV78E1m4yn/m6GO35bCsgq+/vNfbr1sEndMm8zNl15EWUUVgX4+yCSJiuoabnvtQ6dMKs0JmwBYsnE7100cR9e4aD6YcztllVWUVdUQGRyAm0JBfkkZD743l8oax5fiL6vWM+PC0YQE+PHLG0+TXVCEh1KJ2kPJnA++4LPH7iEswJ+/3n6OX1dtYN7i5U51r9qxlzunTaFPp3g2fvG2w5yDmc+86RAP3lw74+xiz4XA37abu6+8mC6xkcSGhzqsANve7bJ4/VZuu2wS4YEB/PbmM2w9cASZTMbg7l34ZvFyknsmoTebnUJ4Pln0N8N6diPY35dPHr0bjU5PlUZLkK83kiRhNJl5ff5P9Xrwm3Ifzobn7KSYd4y3L6usoryquvY6nI85Ha3RwLqMI0xI6MnVPZJ5c+Pf9rj8tkJvODmaYDBZsNT1oqjlynFxAKzemesUPtFUjmZW8OyXu3nr7oG8eGt/9p0odVhd9vUF++jfOYD4CG9+eH40lTUGNFoTwf5KJEmiuFzHY59ur/P8PyxL5Zsnh1NcocNgNBMeaJ0EWaUx8tqCfXWWA5j3zzEuGRHNiN4h7Jx3KeXVJ6+1uFzH5IdPvl9aamd78db3+xneK4R+XQJZ/v6FbKlNlzmsZwif/HqYbnF+TqMMq3fls/VQEYO7BbH03Qks3ZxNtdZIYoQ3Y/qH8dTnO3nyht4uw35OZf7SE4wfFM51ExOZNiYWje7kc33hg/9RXmVo1fqa8lz/siadUX1DmTIsmg/uH8wbdw6gssZAsJ91FK+oXMucD7c5nt9o5pkvd/HuvYO4alwc00bHUlhmfZcE+6lQyCUsFguvzd/rkAbzVKo0RpZvy7GvoHs4rbzFaVsbQi6TMbOndUR/c9Yxe1igQHCmIff2Cni+KQV69hiAWu2Fu7sSd3clCoUtTEFm3+burqSsrIT8grpXkWsqd915P55qNfPnf0VhYf1DYvn5eaxbvxpfXz+8vNQEBQbj5uZOXl4ua9eu5MUXn2bbtoZX8CsvLyU6Kh6j0ciKlX9TUFi3QNp68Cg5RSWEBPgS4O2FykNJVkExf67bzBOfzCPDRSjFuAF9SO7ZlQ17DrF2V/0/lqditlhYunkHMrmcIB9v/EdLPgAAIABJREFUAvx8kMtkpOXm88O/q3nhi+/ILHCur6yqmh2HjxMfGUagj3V9gL3HUnjik2/YcywFJOgaG01IgB/r9hxg73Hn0ZLi8gqOZ+USHx5GgK83Xp4qPD2UuCnkvPfjbw4/Ac2xUy6T8cisK5DLZPzfoj+dxGNJRRWThg3Cz1tNSXkFOw4fb1F9LWkXncHAut0HiAkNJiokmJiwEPR6Ax/9/Bcb9x3kxikTOJGVx08rHCdyV2k0/L1+Kwq5HH8fL3y81Lgr5GQWFvPflp08+/l81p+22nFL7sPZ8JxdOW4kXWIi+fiXv6moqsFNoWDOzMs5kp7J72s2ATCib09G9u3BL6s2cDSj7ndLSlk+AyMSCPfyI843mL0FGRjNLY8Vr4uswhoGdwtGZzDx0jd7OFxHSkCwxpm/eddA1CoFb3y/j9R6JseeyrUTEgjy8+Cv9Zmk5jqWOZReTliAin6dA0juEcwvazLsIUwanYlf16ZjNEKAtzsBvkrkchkZedUsXJnGY59tt3uGT+WOy5JQusl5bf5eNh0oJCnGl4ggNRq9ibW78nngw60cb0BIFZXpWLkjl8hgT/y83An09cDTQ4FnbQjJl38dsx/bXDu7x/kxYVAEmQXVzVoJuKlU1hhYujmLIF8P4sO96RxldeLM/eMo3y45wb1XdkMmSXz0yyFsgw0W4J9N2SBBQoQ3Q3uG0CXah5JKHS99s5clW7K5/dIkPNzlDuVOJ7Ogmr0nSokN8yLQV4mfl7u9Pb/486h9PkRr1deU5xqs3vTswhr8vd3x91bipXInu7CG39Zm8MCHW8kuch49PJZZwbJtOSjd5Xh7KggJUOHj6UZ5tZ5N+wt59otd/Let/hSyWr2JS0fG4KVy46u/j7HjiOs5Ua2BUq7g5n6j6RYcRblWw2c7VmBow3eLQNASpPDQTmd8LqlOnbuwYP5CdDotEyaMwmCoP9+wQCA4vwlW+/Bw8mR8PTwp19WwIuUAm7KOU6nvWG/bmH5hfPXEcIrLdQy7Y3GdnsmOZtc3l+Dj6cakh5ZxNLNtPaLtzY2TO3HBANfzs05n26EiPvy5/jSkgnMflZs7yZGduDCxF/4eaqoNOt7dvITsioYzmAkEHcUZnyYzKiqaZ556EYB//vlbiHuBQNAghdUVvLL+D2b1HkHvkGimdRtElV7Dxqy6w57agyvHxgHWlTjPVHF/rtMp0qfR+fYr6li4SXB+0dk/lKt7JANwuDiHb3evo1Rb3cFWCQT1c8YK/Hnf/EBQYAhBQdYJV0ePHOaTTz/oYKsEAsHZQoVOwyfblpEYEMrw6CRqjG0bi98Qvl5ujB9o9Rz/srr52XMELePpL3by9Bc7O9oMwVmEzmRka/YJNmYd43BR01adFgg6ijNS4Pv7B9A1qTs6nZZjR4+wbPm//PTT9+j1LZuQJhAIzj9OlORzoqTxC3y1FeVVBrrO/K2jzRAIBE3kSHEuR4rrntwvEJyJnBUx+AKBQCAQCAQCgaBxnDV58AUCgUAgEAgEAkHDnJEhOgCbNu1uVrmx44a1siUCgUAgEAgEAsHZg/DgCwQCgUAgEAgE5xBC4AsEAoFAIBAIBOcQQuCfg7gBQ2R6EhEr7J1PuMnk9A6JIto7oKNNOecJU/vQPzQGpfyMjXIUCAQCwXmM+HU6xxgr03O1pCFQMvMJak6Y5R1tkqAdGBIez6SE3vgpVfx4aAuZlWKFxbYk0MOL63sMo8qgZWnqATZkHUOkI6ubHkER9A2JIUjlhaebO+9vX4bGKBaREggEgrZCCPxzBBkW7pHVMFKmx4zEBos7Ry3i9p7ryJC4tvsQBoTFYbZY2FWQQVp5cUebdc6TU13Gtrw0BoTGcGWXAXQNCOPb/RsxmMWo2elMSejFhLgeDttkktRB1ggEAsH5geKuu+5nxIjRREZGYjKZycxIZ9nypfz00w8YDPqOtk/QSO6U1zBS0pNvkfG22Ys0S8Oe+/6d/VnwtHX57UG3LaNG17yVPkP9PVj5/lgAes9eisncur7Mv18fRXy4mlve2Mamg0Wtem5XtFa7tAfXdBvMgLA4ijRVzNu3geyq0lY9/+zL7mfckMlO249nHOKFTx9o1brOBC4ceinXXXIX2w9u5IMFL9R5XKm2hu8Pbua/tAPc3GskPYMiub7nUL7au74drT3z8VOquCC2OwB/HN/F5pwU4bkXCASCdkB23XWziY9PQKPRYrFY6JLUlbvvfoBPP/0KlUrV0fYJGsEQmZ4xkp5KZLxgapy4F5z99AmJZnB4PNUGHR/vWtnq4h7AW+1DeVWp/U9Xu5p0TkFGq9d1JhAeEg1AXkFmo44vrKnko50rKdfV0CsoiuTwxLY076wj3MsfmSRRrKliVcYRIe4FAoGgnVDs3Lmd1994icyMdAAGD07mxRffoEePXtxww8189tlHHWyioCGulrQAfG/yoBAh7s8XJsX3AuCv43sp1da0SR0ffv+Sw+e7rn6MoX3HkVPYOAF8thERbBX4Tbm+KoOWX4/uYnav4UxK6MHWvBTMFhGRDyDVzkzQi9AlgUAgaFdkjz3+oF3cA2zdupkv5n4MwEUXOQ/NC84sOktGoiUTVRaJtRZlk8qeGkljtphb2bKzl7OhXWJ9AglT+1Bt0LM9P63d6g0PiQUg+xz14IcFNV3gA+wtyqJUW42v0pMu/qFtYVqzGDXyQtRqrw6r3+ax91S4dZgNAoFAcD6iqKqsdNp44MB+AEJDw5HJZJjNZ6bIORMJ9vNhxoRRDO/djYjAACxARn4hizduZ+GKdU7x6dEhQfzy6uOk5xUy47m3mTVxDJOS+xMZFEBFjZb/tuzi09+XoNO7HtrujjU+fD8Kmjr4XV5tnWOhM5jQ6hu+x5FBKh6Y3oVhPYNQuslJza1m3pJUth+pf1JniL+Sa8fHMbZvCOHBHsgkGdkFNazaXcDXS1Ior3K0/Lkbe3LV2Gin83z52CCnbfd9uJMVO/JbVN/pNLVdOoJEv2AAjpflY2yEd9TD3ZMvXviNkooiHnzjeiaNmMaI/uMJCYhAp9ewbf8Gflr6JTXa6jrPIUkS4UFRQOMFcJ+kQUwZdRUJUUnojTr2H9vJ/D8/Ztr4WUwYeilzF73Nup3L7MeHBkbw9sPzyC3M4on3b2PK6KsY1nccIQFhVGuq2LR7NT8vm4e+jvlBgX4hTBoxjd5dBhHkH4LZbCG3MJO1O/5j+ea/sJzWYXvpno+Ji+zkdJ7n7/rAadt9r82ktML1s26xWDhSmkdyeCKd/UM5XJLXqPZpa/r1GUyvnv3Zf2AXO3ZsoKq6ql3rr6kV+CqFe7vWKxAIBOc7LtOs+Pj5AqDTaYW4bwIDuybyxl034u2pwmKxUFJRiZ+3F12iI+hy9SUkxUTy/Fc/OpSJCw8BIKugiHfvuwl/by92HjlBSnYeo/v1ZOaFowgJ8OXJzxa4rDNEst6f7GbE3ZdUWkVSWQOCFyAsQMX/nhtGgI/1h7qwTEewn5K37uzD8/MO1FmuR5wvXz46CB+1GzqDicwCDV4qOfERahKjEpg6LJxZL28ht1hjL1OpMVBcobN/9vNSIpdBRbUBg8nxedSdJsCbU19L2qWjCFRZvbL51RWNOj4ixCrMcwsyue/apwkPjiYl8wjFZYX07NyPcUMmExYUwWtfPlbnOYL8QlC6KzEY9RQ2QsBOGTWdaybdAoBOr0WjqWJIr1HIZDJUSk+rPUVZjnYGx1ivqziHOTe8hI+XH4dT9pKdn8aAHsOYNHIaAX5BfPTDK0719UkaxL0zn0LprsJoNFBcXoCPlz9xkZ2Ii+xEdFgcX//mKNw9VWrKa+cuKORuqFVemM0mKmsc21Wrq6lT3NvIq7KWCVC1rsfcy8ubKy+/vlHH/rV4IcUlhfbPW7evo0/vwfTtPYhePfqx/+Autm/fRFUjn5uWojFav8fucgWSJGERoUsCgUDQLrgU+L179Qbg8OFD7WrM2Uyovx9v3XMTag8lC1euZ+4f/1JRrUEhl3PXtEnMumgMk4cOYMHS1ZzIzrWXiwuzCvz+SQl89ddy5i9dZd83um9P3rrnRsYP7MP7/n9SUFruVK+6NsZVY2l62rmKagOVGiN5JdoGj31wehcCfNzJLtLwwP/t5GCaVSAM7hrAY9d2r7Pcq7f1xkftxq9rs3j9h4NUa6ze5sQIL969px+dIr14ZEYScz7abS/z7k9HePenI/bPtiw6cz7a3WAWnebU15J26ShUtSEP2kZOWgyvjS3vFNOVJet/44PvXrJ7s5PievLUbW/TPbEvCVFdSMk66vIcESFW8Z1XlOXkCT+dzrHduXrizZjNJub/9Qkrt/yDxWImwDeYh254gQBf6wjE6ZN1I2onuXZL6MXvK37g77UL7fsGdB/GA9c9x5Beo/jB9zNKTkkHGhwQxr0zn0bp7sHP/33LP+t+xmDUI0kSFw27jGun3sHYwZP5a81PDp2Th9660f7/qAEXcuuVD3EoZS+vf/V4vdfnipo2CkeRyWT4+vo36lj5aXVv2ryGnbu20Lf3IPr2HUKfXoPo2b0fBw7uZtuOjVRVta3Ql2rXUtSbTELcCwQCQTviJPDd3ZVcdtl0AP755692N+hs5cYp41B7KFm2bQ9v//C7fbvRZOLjXxYzYXBfQv39SIqJcBT4tR78vSfSHcQ9wJrd+6nSaPFSeRAdEuRS4FOr65vz02mxQPIdyxo8Ti6DcQOsdr664KBd3ANsPVzCb2szeWKWs8h3k8t496fDWCTYuK8Io+mklSdyqnjzx0PMfXgQw3sGN8N6Z1qrvsa2S0ci1eYRb+x9t00ezchJ4Zdl3zrsO5K2n5SsIyRGdyUqNK5BgZ/diAwzFw67DEmS+G3596zY/Ld9e0l5Iau3/cv1l9xFeVWpU0iQzc5jGQcdxD3AjoMbqdFW4+mhJjQw0kHgTxk5HaW7B8s2/cEfq36wb7dYLCzd8Btjh0whIjiamLCEOkcfbOFHp48qNBbbhFKJ1s3xXlFRzgcfvdzs8jqdli3b1rFz91b69B7IgH7J9O41kJ49+rH/4B62b99AZZWLd0sLkYChEQkAHCrOafXzCwQCgaBunAT+3Xc/QGBgECmpJ1iyRAj8xjK6nzWjyc+rNjjtM5ktlJZXEervh8HomFM9tlbg/7vFtUfZJuRqtB23JoG/txJPpfVR2eYi3n7bEdfpGQ0mM2v2FLrcB5CSYxV3XioFchmYWhgN1t71nU3YQl82713jcr/BaH2+9PWMCETWniO3gQm2CrmCPkmDsFgsrN6+1Gl/tdY67yfXRRy/LU3lpj2u7bR9H7Q6x9GVvl0HA7Bqq3N9APra9J4Gg87lfoCw2s5FXmHzBP6ZjsGgY/uODezZu5VePQfQv28yvXv2p2f3vsz96l10upaPWD2ZfDIxg9pNiVwmZ29hFouO7GjxuQUCgUDQeBwE/vTpM7jqqhloNBqeffYJjMYzd4GfM4kgX2+CfL0xmS3sT3EtfgJ8vQHIKSpx2B5bG6JzON1Z7PioVag9rJlxsgrbfoGnulC6WYfZTWbsIS+nUlZZf+fD21PB1GGRdIpQo3SX20WaSik75SiJ5o1DdHx9ZwO2EJ0TWUdc7g/0tT6HhSW5LvfDyfCZhjLoRIXGolJ6Ulia7zJu/WR4jrOQDq/NYpOadcxpn1rlZY/dzy/Odtge6Ge1f/pFN7icN2S7/rx6ri882DaB+NzMEGTDYDCwc9dmsnMyuHDcxQQEBtu/Iy0lxNPH4XOptpoyXQ0605k7n0UgEAjORewC/8Ybb+X22+/GaDTw1FOPcOK462F6gTNxEda0eDlFxU4eegC1h5IQf+vE5bTcAvt2f28vfNWemC0WMvKdBXxsuPW8ReWVVNbUPSn0TGbqsAievq4H3p4up3uc9fV1FE0JZ5bJZIQGRQCQne8sXt0U7gT6WwVyfQtYRdSmyMxpIEQnvDaUp65z2UcCThPSPmo/vDy9MVvM5LkIk7GFCJVVljiE9ti2A/TrmlynXXpD3ZODZTIZoYERtXa10IMvndkdx4jwGAYPHkFstDV8Ji8/G1MrOXMeWPk/wNp99nL34JJOfRkV1QV3uZz/HdrWKnUIBAKBoGEUCoWCxx57mqlTL0Oj0fDkUw+zeZNzmImgbuJrhXhKjmvxkBARBkBBaTnVWp1TubziUvQGZw9XXJjV05mWk++0z4beIoEESslyxjmko0M8eeWW3ijkEh/+cpSFqzIpPcXbH+rvwcr3x5619XUkBpNVkLnLGs6eFOwfhkKuoLisAK3eeUGs8OBoZJKMkvJiNDrXC2b5evlbM8xYzOQW1y+AIxsQ+LYwnNNTbdqEenFpgT1k6HQ7XZ3XVm7b/vVOC3M1Flsb6Q16isvrDvOqDze5tVOpbeWRz5Zk0TmV2JgEBg8cQUREbQcrL4utW9eRlnGi1Wy1YQEq9VqWpu5jUFgcfYNjhMAXCASCdkTx3nufMHDgYIqLi3jk4fs5dLjulIfnI5IkIUlgNtetnqOCAwEoLHWdkaJPp3gADqc7CqO48PoFfFxtByA1t26BX1Y7oS+wDb2GOoM15EEmWVC6ydEZHMN0VErXInNsvxAUcomth0v4/E9nEdFaYQEdVV9HUqm3xkv7qzwbPNYWf1+tcV7zAqxZdADSc53DYmxEhlrPUViSi7GBzD2hAeEAlFQ4j0q5u7kTVTsScHoMfkQDITIRdQh8W322dJfNwdZ5yC/Oana2F38P672o1Ncd598cWpJFR0IiIaELgwcOJyTEOkKRk5vJlq3ryMhMaVU7XWFLa+uhcEMmSWKFX4FAIGgnFAMHDiYl9QQPzbmXvDyR6eBUunftzZjRk5BkEuvXr2DPPtceKHc3q+fOR+0stlRKdy4dNQSA1bv2O+yzxd+n5bn2uNk8/Gl5BS73A5yozX/fjbabL1FaqaNGZ8JTKadrjDd7TpQ57O8W6+OynG1ibmGp68l7CRHqRtVvrs2GI8nqP6616jsbyKi0zuVI8G04A5Etdt5L7YskyRxSXMplckYPmgjAjoOb6jxHiL9VHBaXNezddnf3AEDlrnLaN7TvOJTuHugNeorKHJ9ru2ffRWw+nBwZyD6tY+BWu4iSt9rXZbkA30DcFB6UVRaj07t+NsKDIwHIK2r+O7BT7TyA9Aby5TeVlmTRmTXjNgICrc9Idk4Gm7euJSsrrRWtqx8PhfU7qTeZhLgXCASCdkS2bt1qbr/tBiHuXTB82AW4ubmhkCsYPmxcnR7g41nW0JyxA3oxdkBv+3HRIUG8c89NxIYFczw7l6WbdzqUi4+o30NvC9Gpz4O/x+KGFokIyUR3qW1EvskMq3dZbXh0Zld81Ce9hIE+Sm6aFO+y3KF0a+q9Id0D8fNyXMkyJkTNvdM6O40GuCIt3xpvPbZfCPU54VurvubSo3tf7r/nae6/52nGjL6ozeoBOFKSj85kIMTTh8RaYVkXNs83FguXXXCt/fn09vThzmseJzbcmjpy466VdZ7DUjtCFBUWh593QL315deK5DGDp9hFOVgz3Vw27loAqmrKnTzlEcG2GP86QntsHv7T9qflHAdgYI9hDOg+zL5d6a5k8sgree/R73jqtreQ1xPO5OFm7Yz4+wSiaEYe+0gvf2J9AjFZzGdUSsiAwGAys9L55bcF/Pzr/HYV92D13ANoXIRcCQQCgaDtUCQmdmbBgoV1HvDww/dz4kTdQ/fnMibzScFstpjrjHH/Z9N2rrpgOPHhobxx5/VodHr0BgO+XlaPcWZBEQ99+DVGk6O4tHvwc5099Aq5nPAga+hPfTH4WiSWmZVcLNMyW1bD0yZvdK2chxvgvYVHGNojiL6d/Fn8+ih7uswh3QKZ+9cJkmJ9kZ/mYV+3t4jtR0oYmBTAH6+O4L9tedRoTcSHqxnVJ5jn5+3nkRldUbrVH0f+/fJ0xvUPYeb4WC4bGYlGd7IdL35iHeW1K862Vn3NJTra2tGxWCzs3tO28cY6k4GN2SmMjUliWpd+fLBjOXqT686LTRj/tWYh1198F1NGXkF5ZSlB/mHIZDKqair54LsXXMa929h/bCcGox4ftR8fPPE9ldUn86br9FqHBaNWbfuH8UMvJsA3kFcf+Jyikjzc3T1QKVV8+N1LPHLTqwT4BvPWQ1+zetsSFq9dBJwcaXAVoqOQKwj2t4binC7wt+xdw8QRVxAXkcgD1z1HVU0FldUVBPuHolC4UVJRxAcLXnDKuX8qOw9t4vLx19EpphufP/srGt3JY5/7+D6Ky+oeRZNJMqYn9QdgW16qPXzqTGDRL9+Sk9vwugVthWft6IoQ+AKBQNC+yCIiIgkLi6jzz93NveGznKOsWfsf1dVVaDQ1rF69BEsdCl+j03PbG5/w47K1ZBcW46aQ4+6m4HBaFh//8g/XPv8OucWO8cFKdzfCAvwA1yE4saHByGUSVRotReWuY6dtLDR7kG+RESeZeFRehWcbzLbNKdZyzQsb+WdzLnKZxOg+oSSEe/HhL8f4dmmayzJmi4U73tnO3L9OoNGZuGpsDFeOicZDKefeD3by+/psl+VOZ8vBYu58bwd7a0ODAn2U9r9TuzKtVV9zkJCIibIK/PT0E5SVlTRQouUsSd1HkaaKSC9/bu410u4tPR1bfvdt+9bx6cI3KCotIMA3mIrqMtZu/5en/+8u0nPrj8cuLivglbmPcDh1H1pdDb5e/vY/jc4xw1NuYRZvfv0kxzMOYTIZUam8OJF5mBc+eZC9x3bw2/IF1GirCQuKxGSbLOzmTqAtfaaL/PhhQVHIZDJqtNWUVTq2rdFk5LUvHmHx2kXkF2fjofTES+1DZn4qPy39mqc+uKPOxbtspOem8H8/vExG7glkkmS/NrWHFyXldaeoVcoV3NhzGHG+wVTotPx1fG+99bQ3HSnuAeS1cXXn0vwXgUAgOBuQwkM7nZGBkZs2uV74qSHGjhvW8EHnIGGYeUFeSYBkpgyJv80erDa7U04DgeuCViE4KJSZ19wKwG9//NAuExgBglTe3Nt/HL5KFRV6DWsyjrIlN5Uqg9WL7OXpw6fPLEKn13DLc5e1i03nAyqFG4PC4hkX2xU/pSfVBh0f71pFTlVZw4XPI4JVXjw1dCoWi4Uv9q3lYFHd6xAIBAKBoPUQ6u8cIQ8Zj5p82GFxww8Ls2Qa+svEQmXtRUxtTvHikqJ2E/cARZpK3t72LweKc/BxV3Fxpz70CAq377fFwOe2YPKowJkE32CmdemPn9KTY6X5vLX1XyHuXVCoqWJHXhqSJHFb79G8NOIynkyejKoZ8xwEAoFA0HjO7dWAzjPKkXjd5EWSZOQCSUfNGTk2c24SHWMNz9mzZ2u7112p1/LFnrXE+wWRHJ6I5pQ0lrYJtq4WjhI0H73ZyI68NLbkpXK0pO45MgL4/tBWsqvK6BcaQ5DKmxBPH2QiZEcgEAjaFCHwz0GOWBQcsYhb217I5Qoiw2PQajUcPrKvw+xILSsitcwxXjzcLvDbbv7B+cix0gKOldY98VZwErPFzMqMw6zMONzRpggEAsF5g4jBFwgEAoFAIBAIziFEDL5AIBAIBAKBQHAOccZ68AUCgUAgEAgEAkHTER58gUAgEAgEAoHgHEIIfIFAIBAIBAKB4BxCCHxBi5EpZIT3CMEv0rejTREIBG2MJJfj0ykOVUhwR5tyzqMM8MO3SyIyt6ZlRfMOURPZOxy5u7yNLBMIBGc6IpeioEXE9I+g24TOePgq2fXzfsqyyzvaJIFA0Eb4d+tM6NBBKLw8yV62Bk1BYUebdE6j9PUheuJYjBoNhZt3UbzvYKPKqQM8GXhNL3RVeo6sOEHq1kzogNl2oV2DiewVilegJ24qN9Z8thWjxtBwQYFA0GLk3l4Bz3e0EYKTqHv0x6f/UNyDw9DlZoLlzJwDLZNJ9J/ei6Rxicjd5eTsyydzdy76moZf3kmxUbx42yymjR1OZkERecUl7WDxmY9oF8GZiiSTiJowhpAh/ZEUciqOp1J2+Dgmra6jTTunMZtMKDyUqEKC8U6IQRUcSMWJ9AZ/F8xGC+4qN/yifAnrFoxfhA+5BwuwmNvv96TbhE70uaw7vuHeqHw9cFe7c2JdGiaDud1sEAjOZ5rtwZfLFfTrM4T4+CQACovyWL3mn1Yz7HxE5qHCu/9QANxCwtHlpKPNSGlUWVWnbqi79kHu7YN0yjLw1Qd3U7ljQ6vb2mdad6L6hlNdomHr97uoyK1qdNnnb72WHvGxAOSMTmbXkeOtatstl1zEfVdfyt/rt/Lkp9847f/tzWdIjAznnrc+Ye3u/S2ub8aFY3nihul11tdYmtMutrpXbt/DA+993uy6G1NHU67vmZtmMv2CEU7b9xxP5brn3mplC63Y7vvpGIwm8opLWL5tN1/+sZTKGk2H2tmRNPd5ibhgJH5dO6EvryRj8TK0Ra3b+Xz00ae5/PIrnbbv37+XW2+9vlXrOhOYPn0Gc+Y8xto1K3ns8Tl1HmeorCJr2RoKtu8mdsoEvBNiiZk0jvS/l9V7/poyDTt/3s+R1akMmdWXsG7BDLqmN1u+a976Mk3Fw1dJ59HW1b0PLDlK2vZs4bkXCNqZZsXg+/kFMuGCS4mPT8JsFr3x1sKi06HLycBiMWOsKENflN+ocqpO3fEdOg6FfyAWiwWztsb+ZzHoW93OiJ4hxPSPRF9jYOOX25sk7gGOZWRjMpvJLizmf8vWtrp9cRGhAKTk5Dntk8tkxISFAJCa27j2bYjEyLBWOV9z2iU+0nqtqS6utbVozvX5e6spLq+w/2n11ucwLbvt7LTd99LKKjLzC+1/eoOB6NBgZk+dwJdP3Y9CfjIuuSPs7Eia87z4dIrDv1sXTFotqb8ubnVxD+Dn509JSbH9T6u1dsLS01Nbva4zgdg4q/hNT09r1PH60nJSf1mMoaoa74RY/HskNapcdVE1G77chrZCS1j3EGIHRTWKSbk4AAAgAElEQVTX5CbhG+aDJJOoLq7h+Lo0Ie4Fgg6gyR786OgEBg8chUwmIzs7nYKCHPr1G9oWtp13WCxmSlf81eRyqoQuAFTt3UrVnm2tbZYTXcd3BuDgv8eoKdM0cLQzz879jmfnftfaZtmJjwgHIM2FiIkKDcZNLkdvMJBdUNQq9SVE1QrgFors5rRLfLhVsKXltE5nxRXNub45H3zh8Pn1u2czedggUrJzW9W2U7Hd95e++oHl2056KiVJYuLQAbx65410i4vh8jFDWbRifYfZ2ZE053kJTR4IQN6GbRgqm9aZbyxPPvmQw+cXXniNCy+cRFpq40YwzzZiY+IASGukwAcwajTkrd1M9OQLCBnSn7JDx7A0wsGmq9Kz7+8jDJrZh64XJJCxI7vtQ3VqQ4hMRuEAFAg6iiZ78IOCQjEajWzZupqNm1dgMLa+h1jQNGQqNQD6grYXJf7RvniHqDFoDGTuzGnz+ppDXLjVQ5/iwgtrFzh5BZhbaX5DYmTdHYq2xnY9qblt6cFv+fUlRFg7Ca5GVVoL231PPU28WiwWlmzczuodewEY2LVLnedoDzs7kqY+L55hwSgD/DDpdJQdbt1QuvqIi7V6uNPSzlEPfq3Ab+oIRfmJNAyVVbh5qVFHRzS6XO6BAjTlWjx8PAjuFNikOpuDXmsEwF0l8ngIBB1Fk799BQU5HDq0B622pi3sOe9QBAQRNOVql/vyfvgMTKZ2tqh+guL8ASg8UYLZ1DjvzBVjR/DcLTOdth9Jz2L6k6/WW7ZXYiyzJl5Az4RYwoL8QZLIKShixfY9fP3Xf1RUOz6HwX4+eHuqMJrMZLrI8JEQWb83ekSfHsy+eAK9EuPQ6g1s3neIV79dyJ3TJjPjwjE889l8/li32X68r5caf28vDEYjGflFzJo0jsvHDCMmJIjKGg3/bt7JBz/9YQ/9aGm7/PTK43SLi3Ha/t0Ljzptu+CeJygsdcxq1J7XZ0OSpFPCphrnOQ4PDOD6yRcwvE8PIoL8MVsspObk8duazSxctsapc2a77yazmfS8ApfnzCsuBUAml1rNzqa2Z0xYCH+/8zxpuQVc8fhL3DBlAlNHDCYqOJDyag1LNm7j/xb9ha6O9mxqu7T0eVHXdniqMnOwNOJd5OnpyYoVGykozGfa5ZOZcc0sJk6+mKjIKDQaDatWreCTTz+gqrKyznNIkkRMrHUuSlpa4zz4Q4eOYNasG+nevQc6nZ5tWzfxzjuvc/Mtd3Dlldfw0kvP8s8/f9qPj4qOYdHCP8nISOfaa6/g2mtvZOLEKURERFBRUcmyZUv4/POP0em0LusLDQ1nxozrGDp0OGFhYZjNZtLT0/j77z/49deFTqGr33zzI0lJ3ZzO8+WXC5y2XXzJBIoK68hOZLFQlZGNf48k1JHhVKVnNap9LBYLBUeLiB0URVC8PwVHW2f0si5sITkKD7cGjhQIBG1FkwV+dnZ6W9hx/mI2Y3boLEnIPFT1FvHuPwxV4skYTEnpAYD/qIuchmxrjuynam/rhe2o/K22VRZWN7pMSIAvxeUV9s+eHh6olO4NhnzcMGU8D82cBoBWr6egtBylm4LY8FBuuvhCRvTtwTVPvY7xFOGRUOttzioowmB0FiRxtYIlNdtZwM2eMp4Ha+vT6PRUVtcwYUh/JJmEl4e1jdNOi0O3xacfTMvkhVtncVHyAHKLijGZLQT5+XLtxLEE+/vy8Idftkq7eHt62su4KRT4qD0xmsyUVzmGTtRodE5i7f/Zu+8wqcrrgePfO322917pVbrSFVBUFA2KFexd48+WxJrYjTWWRI1GA0aNHZGICiIgKgLSq/TtnWV7mfr7Ywo7OzO7O8OyC+v5PI+POre9950Lc+57z3tuV5+fS3JcNAadrsNpUROHDeb5/7ueEIMes8VCcUUlMZERDMzKYGBWBv3SU3js7f96bOP63ovKDnlcDy1lu0bnC3z3b6DtDKY/s503EHmlZfz9nluIiQjnl5172BcexpRRw7hyxjQSY6P44ytvd0q/HM31AqCNiACgubJj5W+zMns5zi83h78+9TwZmdns2LGNstISxowZy6xZs0lPz+D222/0u4+kpGQMBiMmUzNFxe0/JZw75ypu+/1dADQ2NlJbW8OUqWeASkVYiOPpZl5eTqt2Op4Q5Bfk8fxzrxAdHcPGjb+w/0A0p06ewmWXXUF8QiJ/fsj7RmjcuIk88eSzhBhDMJtNlJSUEBMTS//+A+nffyC9e/fhmWee8NgmLCycyspDAGi1WsLDI7BYrNTUVHms19BQ7z+4d2py3qjqIsPb7ZuWasscf2eHxLT9+9IZzE3OAF+nRlEU7MdpNTghejJ5ftbNLFWVlH0yz/3/Kr2BhIuva3MbRatDZQjx/lxnoPXYpKLVdUYz3XRGx4iM1fkItiNe/2wxr3+22P3/j94wl1mnjW9z0mZ6Ujx3XTYLs8XKY2+/z5c/rsPqvHkZnJ3JG/ffTr/0VMYNHcgPLSrhuFIQ/OVQ+0vBGNavF3deNguL1cYz//mYT777AZvdTlJMNP/4w60kxDhe4nWgdQCc5ggsk2OiKSit4LRb/kRNfQOKonDzrBnccuE5TD9lJKnxsRSWHzrqfplx11/c/33+5LE8ftOVbPh1Dzc89Yrfbbrr/Fx6OXPjc4tL202LSo2P5YU7bsCo1/GPTxYxf/F3mMxmFEVhzllT+NPc2cyeOpG3Fy3xOJ479aTEd9/1TUthzCBHas53G3xXEgmkncH2Zy9nO0cP6Msbn3/FvBbVUKaMGsbLd9/EmaeM4rmYzyirPBL8BdsvwV4vLmqDHgC7qWPlMDOzsgAYNHgoH37wHvfdf497NHv4sBG89vq/GT36ZAYNHMLOXb4rWGVlOW4S8vNy2y3iMHToMG697U4sFisvvvg0Cxd+hs1mIyEhiReef4W4BEfaVk6rVJisTEc7R4wYxbx/v8l77813L5s0eQrPPvMip0+bzisvP095+ZEnQikpqTz55HMYjUbefPNV3n//P5hMzSiKwsUXX86dd/6R3/1uNu++O4+iokL3drNnn+v+73POOY+HHnqMzZvXc/vtN7V5fr5YnU931Hp9QNu5gm5dV4yqK47sX6vZKsG9EN1EAvwTUM3aldSsXen+/7jz56CJiKJy2ReYijv2yDZozjuIo/kr+0gQ7n+k+tQRQ1EpCis2beOLVWs8lu04mMvlf3mWcKORgnLPkVZXlZAJJw1kxWtPe+03KjwM8E7RmXvmFBRF4c2Fi/lo2ZEKNiWVh/l05U88cNXFHKquobZVSlDvVEcebOnhah765zvumxC73c4bn3/FhVMmkBATRd/0VL8BsLvtHeiXlrLc+dS+U1KOl/Nz3SR0JO3l6nPPwKjX8cHSlby58Bv353a7nfe+Xs5F0yaRnZxI/8w0zwA/1f/k0ZH9e/PEzVeh1ahZsmYDe3ILvdYJtJ3B9me284nIlr0HPYJ7gBUbtlDb0Eh4iJHMxASPAD/YfmkpkOvFzf3n3XdaU2uZzsB53949/Otfr3ks27xlEzt3bmfw4KFk9+rlN8DPznYE+B3Jv7/k4stRFIX5899kwYJP3J+XlZXwxaIF3HPPfVRWHvJKCXJVsdm+batHcA/ww6oV1NXVERYWRnp6hkeAP2fOVRiNRj799EPmzTsyQdtut/PRR+8za9ZFZGZm0advf48A3+PYrvz7vOCehivOgFnp2FdyhPMvbeVYv79egawxqQCU7j62qUBCCP8kwBddLstddrGtVBTHY+RQowGVoniNqOb5ybPOSnYEaXqdDr3O99MLu91OTosgR6NWM2HYYOx2O5+t8H5nQG19vbO93oGfK+1jwYqf3MGvi81up7qhgYSYKMzW9p94dKRfPNZ3V0Rpe/3uPr9AJq5OHjEEgE99tBOgqdkxktxk8iy75/rez5s8limjTnJ/HhUe5r6Wftm1h4f/5b9KUUfb2Rn9+dVq32lzijNqa2j1Aqlg+6Wljl4vRyPTmfqybNkSn8tNztFnUxtzNrKcwXdObtv59xqNlrHjJmK32/li0QKv5bW1jtQkX6UoXSk6S5d+7XPfru+hscGzStiECZMAWPiF9/EAd3lPf7n7ABkZjvkFeT2oBOi0u4+8S0IXokVRKRTvLGProl3d2CohftskwBddKjIslKiwUOx2O7nF/nNNf9q6i5tnzWDskAF8+bdH2bznADnFJewvLGH9rr1U1/meA+CaRDv34WfZui/HY9nJg/rx1oN3Ulxx2GMSY5/0FMKMBorKK33mISfFOCYW+8rbd+Wob/h1j8/2xEc5UjXay+nuaL+0lN3B+vTdfX692sl9d4kIDSE5NgaA/7voPGx27/QMV4CcX+rZR67vPcrZjy51jU1s2r2PhavW8MX3P7eZetPRdh5Nf7rmgOzMyfNaFhEaQpjRkbuf12KC+NH0i8c6nfS+hra4AvydO32PzicmOtrgb3QbWlTQOdh2ANyrd29CQ0MpLi7ymbeekOA4lq8nARnOY/y62zsADQ+PIDTUcQ3lF+Z5fJ6Y6LiRvPmm23yWqHQ9wSjM9/5+3es4U5ACKZF5vAuL80wZbaxuorGqCUvz8VUkQojfEgnwRYCOLp/SNRmydZDd2ta9B7j31XncftFM0hPjSUuIcy8zW6zM+/Jb/vHJIo9tjHodCdGOgLN1qURoMcmyyDM/v5efz93b+RlZDzManKPXVgp8BLgxEeFEhYX6Xe7Rhg72i4tapSI9MR6A3KK2Uy66+/xc+29vZNy1HsCpI4f6Xa/ZZPK4oWj5vZ92y71U1viv0NKR47fXzmD7MyYinMjQEGx2O7k+0mRc25VXeab2BNsvLQVyvXgIIH9arVaTnp4OwMGD+72W63R6kpKcJVfbqI6T5UzROdhOis6RUpq+95XlfpmU536io2OIiIjAZrOR7yNNxrVdRUWFR2qP63OAiRNP9duu5uYmv5OD1Wo1aWmOl03l5R5lwQp7oDk6zs2C3K4tXzyw1PEfCuhD9Qw+qy+9xmeg1qrY/PnOTj+eEKJ9EuCLgFjNjlErtS64RE5XcHTQT3DU0jc/r+ebn9eTEBNF79QkspKTmTx8EBOGDebG353Ftn0H+H5Tiwm2KUkoikJFVTW1Dd4v4Mp2H7vVxEdncL2/wE/A5px82Tpv3zVqnFtchsVHyVBX/Xh/yz32FUC/AKQmxKFVq2k2mSg+1PabRbvz/GIjI4hwBrWtK8p4tdPZB8vWbfJ6AVVbXN97dX1D0MF9QO0Mtj+d51dcUYnJ7J1K42+CeLD90lIg10tLNmclKpVW3c6akJySikajpbS0mIYG7zLKGZmZqFQqysvKqK/3/QQuJiaW8HBH8J3XTo66azLuQT8vw3IH+K0r6Dg/LykpxuRj8nCmnxsH1/FWrPjO68VcHeXqo+bmJkpLg3tviUrrLHQQ4FvKNTrHd2gxdbxAQsDs0FzXzK/f7Sd9ZAopQ5MkwBeimxzr6Taih2mudfyoGCMMQW3vKhPoa4Tdn7LKKn7e9isfLF3BLc++yipn1ZxB2Zm+9+0nQMvyM4k13fl0oOxwldc2ep2OPmm+AzZXINey1GVLw/o6AoUte7xHM1sLtF+ynS91yispa7dKRXeenyvFp7C0ArOl7cDCNcJcEWCQ7u47PwF3RwTUzmD7M7XtCk/Zqa5Jvq2uzyD7xWPfAVwvLVmcgbo2LKzddV0j6rV+2jl82EgAdu/xn5ftmmBbVFSAuZ0ANi3V8bSg5SRYF73eQHZ2bwByWz0JyGwnx//Ics/tXCPvlYfbnizfliznBNuC/Lygq8tonYUCLA3+8/x9MUY55qI01x37l1PanG+w1Ro0KKrOf2IghGifjOCLgBwudAR7sdkxQW1/JAj3nwYxakAfYiLC2b4/1+doo+vnoqLaM/+5Vxs17uFIgNV6lNyod0zGDTV637TMGD8ao17nGPmsOOyxzBUURvsIfnRaLTMnjwXg2198l2X0aFsH+qWlTOfNSm5J+/n63Xl+ac7gtKgDo8Z658hkdHioz+UJMVHodVoqDlfT2HwkSOmMt88G0s5g+zM72fcTJBfXeeS0ugENtl9aCuR6aamx1JHyE9IiTcgfV+nJiKhIVCqVR4lLjUbDeTNnAbBq1Uq/+0h1Bu0lJe1/lwZn/7vy5VuaPv1sjEYjzc1NlJR4/nnPynCO7Ofk+D4P18h/qycDOp2jLGVkZJTP7eLjE9Dr9Rw6VEFjo/cTRIB01wTb/HyfyzsixHkj2FAaQKoVEJvtmBtyON/7xrSzafSOpwVWsxW7TcpkCtEdZARfBKR8XwWWZithcSHEOt9qG4jsdoJwgMumn8YLd9zAE7dcSWxkhPtzvU7HNeeewcRhgzGZzazcsNX3vn0EyQadzj35sXUZRNebT2dPmehOOwGYPHwIN806G4DDdfVeI269nCO1keGhXHz6JPfnsZERPH/7dWQnJ7Inv5C123/1e65ebW+jX1oKcdYnj4+JQqtp+z69O8/Ptc++6SnER0X4XQ/g11xH0DN11HCmjBrm/tyg03H1OWew5OUnmP/Q3WjUnuki2Z0Q4AfSzqD7s50cf1eN/NbLg+2XlgK5Xlqqyy/EajKjj4p0v9XWH9fIt91u55prbnRXoomMiOThR56ibz9H6cglS77yuw9Xn/Xu3Ye4uDi/6wHkOyeynn/ehe6Rf4AJ4ydx7bU3AFBVXeX1Pbir9PjJ8XfdqLRevmeP4zo/7dSpTJo8xf25wWBkzpyr+Pzzr3n9tX+jbut7CHFMRo2Pj0cbxDtKDHExhCTFY7fZqMvp+E1CRHIY0emR2K02SncH/wSio7QGxzVmbjyG6UBCiDYpyYl9Arq9nnLqDAyGIyMmGo0Gg8GIzWb1yLs8mLObX3dv9bUL0UL0aTPQxie2+OTIm2xbvuHW2tTIof996HMfXVoHHxh8dj/6TMqipriWVf9ch9Xsu1LC07ddwymD+3t8FhMRjqIoVNXWucsuNjabPF7IM6J/H9564A60GjVWm42KqhqsNivx0VFo1Y7PHn7zPRb94Fkff8Ezf6ZPWjI3P/MPVm/1zPsckJXOx0/eT1VdPZNv+qPHsqzkBD7964PotFpsdjuFZRUY9HpCDXrufvlf/PPe3wOOFyAtWPET8xYvA+Drlx4nNT6WR956n0eun0NtfQPV9Q2kxMeiUhTKq2q47om/eZTkPJp+aal/ZhofP3k/iqLQbDJR13jkcf3lf37W48lHV59fS8mxMfzvhYfdxz7cIn2j9flp1Gr++9ifGJDlGMWtqq2jqq6B1PgYtBoNpZVV3PXim2w/kONxDNf3fuuzr/Ljlh1+29KWQNoZbH9+8/LjpMTFctVjf2PT7n0ex9eo1fwy/2XUKhXTbruP8qoaj2XB9EtLgVwvrSVNPIW4kUNpKq/kwCeLsPlJYXrzjfkMPWk4Lzz/V+6+5z4amxqpPHSI5OQU1Go1NTU1/P72G9i7Z7ffYyUmJvPxxwvR6fTYbDaqqo48BWlsbPR4YVRGRibvvvuxe92iokIMBiMhoSE88MAfeOlFRx3+/LxcFi1awHvvvwPA559/RVJSCjfffA1btmzyOL5Go2XlyjWo1WpmzjydiooKj2Vvv/Uu/foPABw3DzXV1SQnJ6PV6igrL+X+e+/xW98foG+//rwz/0PH99Dc5DEX4dpr57aZl6+oVWRfcA4hyYkc3rGbwu9+8LtuSyq1woTrxxCTGUXuLwVdkhOf0DeWcdeMora8nuUv+i7tKoQ4tgIewQ8NjSAsLNz9j8EZjKpUao/PdbrgcrR/a1R6AypDSIt/jrxGvOXn6hafd7fd3+2nvrKRiORwTpk73D1a09rQ3lnERkZ4/OMa1YsKD3N/Vt/omUu6afc+LvvL0yxdu5Gyw1XERUUQHR5OQVkFC1b8xIX3PuEV3KtVKjKTHGkWvl525K4B7uMlUjnFZdz09N/Zsu8gFouF8NAQtu8/yBWPPM/qrTt5fcFiahsayUxOxOwMvvU6HclxMTSZTCxY8RNPzPuAyppaEmOiqDhczUfLVnHJg0/5DH6D7ReP7yC3gHteeYs9uYWoVCr3NhGhIZRWeqaGdPX5tVR8qJJrn3iRDb/uo76h0eOcW5+fxWrluidfYt7iZeSXlBMaYiQqPJQ9+YW89OFCZt/3hFcQ2/J791fVpiMCaWfQ/eksddk6Nx8cE2zVKhW1DY0ewX2w/dJaINdLa2VrN2CqrsUQH0PGuWeg1vseeXaVnly+YhmPPPIAJSXFJCYmUlV1mC+/XMiVV17SZnAPUFpazK23Xs/mzRtpqK8nJibW/U9Dq4m5eXm53HHHLWzfvhWLxUx4eAS7dm7jxhuuYu2a1bz99uvU1dWRnpHpnleh1xvcpS5b5+YDZGZkolarqaur8wjuASwWM7f9/nree/8dCgryCAsNJTIyin379/Laay9zxdyL2gzuAfbu2c2DD/6BfXv3oFKp3OcWHh5Oebn/p3cqrYb0s6YSkpyIub6Rkp/WtXkcF7VOzehLTyImM4qmWhM7l+zt0HZHS6V2hBaSfS9E9wl4BF8IgNDYECbeMAZDhJ6m2mb2/5RL/saiLpnAJYToWrqoCHpdcC6asBAs9Q1UbN5O1c69WJy55lGRUXz9zUoaGhuYNnV8N7e251Dp9UQP6EPcqJPQhoVibWrmwIKvaK5oO81GY9SSMSKZPpOyMEYaMDWY+emt9dSUBD9ROxChcSGcfrfjJWTr/rOJEnmjrRBdTh0eFvNIdzdCnHjMjWYKNpcQFh9KVGoECX1iqS2to7q4a35AhBBdx9rUTNXufeiiozAmxBGWkUpz5WGaKhypPQMGDOTcc3/HwQP7Wbjw025ubc8RnpFK2vTTUOt01BUUkbvwG0xV3i9Xay2hTywjLxqK1qChfH8la+ZvpP6Qd+nSY8XcYCYsNoTI5HDShieTfUoamWPSyd9c7K6wI4Q4tqSKjghac10za/+ziZjMKDLHpGGWtxYK0WNZGhrJ+99SQlISiR48AKvpSC1/19tZ8/OP8uVNwoPNbKHq130c3rWX+nz/b/9tzWKyUrC5mNwNRVTsP/aTan3Z9Nl2aoprSTkpkdCYEMLi9EjFTCG6jgT44qhV5lZRmXvsS68JIbpfQ1EpDa3muWQ4yz/mtvNyKhGYuoIi6gp8vxW3LRUHKqk40PEXmh0LNqudvT/ksPeHnG5thxC/VZKDL4QQQgghRA8idfCFEEIIIYToQSTAF0IIIYQQogeRAF8IIYQQQogeRAJ8IYQQQgghehAJ8IUQQhy3tMB4rZW+KqkHcaxlqOxM0tgwIH0txIlOymQKIYQ4Lp2utTJXZyVWZeflJg17berublKPlqSy8yejmSo7fNis4SuzWkJ9IU5Q8iZbccLo268/Dz74COfNvIDCwgJKS0u6u0lCiGNArdi522DlUr0VgwI/WlSsMKupscubko4lsx3CFTt9VXZO1trorbbzs0WNvHtWiBNPUCP4er2R/v0Gk5ycQVhoODabnbq6avLyD7B3305sNnmj6fHsoosu4+677+Wbbxbz6KMPnjDHu//+vzBwwGAAiovPZ8uWTR0+9qrvl3PvfXcHfeyOHCOQ8/vTnx5i1qzZXp9v376VG264srObCMCVV17HLbfc7vW5xWKhpKSYlSu/45133qKurq5b29mduuJ66ekumz6F+6+6iC9/XMcDr88Pah+3GyycprFRYlN4qknDQWvnZpPKde1bmV3hxSYtH6nsPGg0c7LGxr1GM080aruwtUKIzhBwgB8VFcPkiWeh1xsAMJmaUVQqoqJiiYqKJTU1i1U/fI3FYun0xorOkZmVDUBOzsEuOV628zX2ubk5R7Wf/fv20q/vAEpLS/js0487tI3rXI/22G0J5vyioqKprDzyCvmQkBAMBiO5ucfuO8nMzAKgquqwRxAfExNLWlo6c+dezZgxp3D99VdisZi7rZ3dqSuul54uOzURgANFwT1hG6+1Mk1jo8au8GCDlrJjMGov13XbimyOvn8p1MwpGhvTtVaWmiU9SogTSUABvkqlMO6Uqej1BsrKi9mwaTV1tdUAJCamMPbkKcTGxDOg/zC279hwTBosjl5WpivAP9A1x8t2BcBHd7wnn3yEJ598JKBtMjOyAMg5hgFbMOf3wAP3ePz/o4/+lenTzybn4LH7TrKcP/LPPPM4K1cud3+uKAqnn34mDz/8JP37D+Tcmeez8PNPu62d3akrrpeerldKEgAHgwzw5+gcT4DfaVYfk+Ae5LruiCq7wr+aNNxnNHO53soys6TqCHEiCei5Z3x8MmFhEZhNJlav+c4d3AOUlhaxY8dGADIzenduK0Wnysrq2gA/2xUA5+R0yfFacv2wHcuRuc44vyM3XceunRnuvsjx+Nxut/Ptt9/w4w8rARg5fLTffXRFO7tTV1wvPV2vFOcIfkFxwNv2V9vIUNmpsyus6MIRY7muffvZoqLcrhCr2BmukfBeiBNJQCP4iqKQX3CAmppqzCaT1/JDleUAhISEoigKdrvMvz/ehIWHExsbh9lsoqioiIsvuZzzzruAtNQ0amvr+Pbbr3njjVdpbm7yuf24cROZO/dqBg0aTHOziV/W/cwLLzzNddffzOzZl/L443/hq68WudePjIgkKioas9lEQWEBl1wyh5nnzSItNY26ujqWLVvKP//5d5qaGr2Odf75F3LffX/2+nzvnt1cedUlPts3f/4H9O8/0Ovzt9561+uzmeedQUV5ebedn4uiKGRkZgIdv+lKTEzmssuuYNy4CSQlJWGz2cjNzeHLL79gwYKPsdk8f4zj4uIICwvDarWSn5/vc58lpaWO9qh93/cH085A+zMtPYNPPl5EXl4uc+ZcyJw5V3PWWeeQkpJCTU1tu9dnoP1ytNfLoEFDuPSSuQwcNIjExCQURaG4qIiV3y/n3XfnUVtb06F+ak+oUc/Pb71IaWUVZ5deq7oAACAASURBVN/5EFecNZVzJ48lIyGOhmYTy9Zt5qWPFlJb3+BzO4Dx199NXaNnv82cdApP3nwV32/azu3Pv+Z13KG9M5l71jSG9MokKS4aFIWisgq+W7+Ff/9vKTWtjhceGkJcVCRmi4WC8kPMOWsKF0yZQEZCHDUNTXy9+hf+/sn/aPbx+wEwROX4frZYFcwd6JeQkBC++241ZeWlXDBrBpddOpezZswkLTWNxsZGVqz4jtdef5m62lq/+5Dr2vu6drEBmywqpmutDFXb2Ghpf0wwK6svM86+AJWiZum3X7Bn7452txFCdL6AAvySkkJKSgr9Ltfp9QBYrVYJ7o9TWc588b379nDvvQ8xffpZ5OblUltTS1x8PJdddgXxCYn8+aE/eW07d85V3Pb7uwBobGyktraGKVPPAJWKsJBQAPLycjy2cY1u7979Kw888DDTpp1JSUkRVpuN2Ng4LrnkcuLi43nowT96HS8+Ps4jT9ZoDMFobDtPNiws3L2NVqslPDwCi8VKTU2Vx3oNDfVeP2pdfX4uSUnJGAxGTKZmioqL/K7nMm7cRJ548llCjCGYzSZKSkqIiYmlf/+B9O8/kN69+/DMM094bJOV6WhncXGhO7++NfeTHT9pCoG2M5j+dI2k5hfk8fxzrxAdHcPGjb+w/0A0p06e0ub1GUy/HM31cvnlV3L77Y4Ji01NjZSXl6PX60nPyOSKK65h3PiJXHP15X77OxDZyckA5BSX8MIdN5CVksS2fQcpPXSYUwYP4KJpE8lIiueGp172uV1ZZZVXcO9Y7j9f/qpzTueeyy9wnJ/JRNnhavRaDZnJiVw7czoThw/m0gefxmI9UlQh25meszuvgD9fdznnjB/NweJSauobiY+O5MoZ00iMjeKPr7zt8zwTnPFjQQcn1bqu67zcHP761PNkZGazY8c2ykpLGDNmLLNmzSY9PYPbb7/R7z7kuvYd3Lvk2RxpUokdfA/BlFPPJjwsEoCpU2dIgC9EN+nUOvhxsQkAVB6u6Mzdik7k+qGJjY2jqKiIc8453T3KeO21N3LDDbdy+rTpvPLy85SXl7m3Gzp0GLfedicWi5UXX3yahQs/w2azkZCQxAvPv0JcguO7z2kVfGf1cqRrJSYkUVhYwIwZU6itrUFRFK699iauv/5mpk09g9dSUikq8rx5fOutN3jrrTfc///AAw8zc+YscvP8B/izZ5/r/u9zzjmPhx56jM2b13P77Te12S/dcX7ufThvuvLzcr1G4lpLSUnlySefw2g08uabr/L++/9xTHRXFC6++HLuvPOP/O53s3n33Xkex3NNsM3Ny/W53969+jBq1BgAvl+13Oc6gbQz6P50tnPEiFHM+/ebvPfefPeySZOn8OwzL/q8PoPtl2Cvl7S0dG677U4sFgtPP/0Y33yzGKsz0B04YDAvv/I6fXr35eQxY1n98w9t7qsjXBNXh/bO5t2vl3PXi29icw6ijOzfm3l/vptTBvdnSK8sth/IcW/XK9URcO8v9J0P7wrIDxZ6ptOkJ8Vz12WzMFusPPb2+3z54zqszu98cHYmb9x/O/3SUxk3dCA/bN5+5HjO9Jy4qEgKyw8x5db73KP8N806m9tmz+TMU0bxXMxnlFV6BpsAYc6U+8YODhBlZmUBMGjwUD784D3uu/8e97U5fNgIXnv934wefTKDBg5h567tPvch13Xb6p1fRXgH1282HbmRNPl5IiGEOPY6rfaYSqWmV3Z/AHJz93XWbkUnc43S1tXV8egjD3qkEPznP/NobHSkkqSnZ3hsd8nFl6MoCvPnv8mCBZ+4fwjLykr4YtECoiKjqKw85PUoPDvLEQCXV5Tx+ON/dh/Pbrczb96blJc5fsx69e7bbtsznTcnBzuY6+7OO/UT1B4v5+d6CtCR/N85c67CaDTy6acfMm/evzCZmt3H++ij99359X369vfYzlVFI8/HJLvhw0bwzLMvodFo+G7ZEvbt3XPU7Qy2P13t3L5tq0cQBPDDqhXu6j+tr89g+8Xj2AFcLxMmTEalUvHTj9+zePEid3APsOvXHVx73VyuvWYOO3ZsbXdfHeEaad+TW8Crn/7PHdwDbNy9n237HW3unZbksV2WKx++0Hc+fLbzBuBAUanH56eOGIpKUVi1aRtfrFrjDu4BdhzM5fK/PMtlDz3D1n2e14Jrgm1tQyP3vzrfI4Xn7UVLaWx2pOZkJib4bI+iOM7LrnRscq3rxnXf3j3861+veQTom7dsYudOR1Cf3auX333Idd0xru+mPV8vWcCu3dvYs3cH/1v86VEdUwgRvE4bwR82dAwGQwjVNYfJzZMA/3jlqvjy1eJFXqkDFosZq7O8aWPDkZxxjUbL2HETsdvtfLFogdc+XUGtrxJsrhuKRYs+9wiCAGw2GzV1NcQnJHQojcEV4Hd0olhGhiOvNq+d9bv7/NypMR2owjNhwiQAFn7h3U7AnevfOpfX1XczZpzHpEmnuT+PioomLCwMgI0b1/PUU48cdTuPqj+d7Vy69Guf+1acgV/L6xOC75eWOnq9AISHO/osJDQMlUrlNfJbkJ/X7j4CkZXsCJy/XrPR53KT8/oytSpP7Aq49/sI8DVqFekJ8QDktErRCQ8xAhBqNKBSFI8bCoC8kjJ86ZXmSAlatGqNR+oOgMVqdZRP1utoaGr2uX2gXNf1smVLfC43OXP9TX5y/kGu6852uLKCRYs+6JJjCSH865QAv0/vQfTpMwiLxcLadd+3+5hTdB/XD83mzd6BQojRSKgz2MsvPBKg9Ordm9DQUIqLi3zmayYkOIIIXyNgrhrxmzat99meuFhHgFFUWNBmuyMjIomMjMRut5Of17HgKdN57PZKw3X3+bkreBxs+wc4PDyCxERHAHXzTbdh9/HnzDWiWdgqwMzKdhwjMtLRjy719fVs2bKJxYsXsXjxF23+2e1oO4+mPzOcx/h19y6vZeHhEYSGOnKcW16fR9MvHut08HoBWLN2DddeezNjxpzCxx8vYtu2LeTl5XDgwH42b9pAdU11u/sIhCtFZ8cB332fHBsDQGGZZ3pkr1RHv/hK0UlPiEerUXOousZrsuxPW3dx86wZjB0ygC//9iib9xwgp7iE/YUlrN+1l+q6ep/tcN1QbPx1r9eyEIOeMOeNQ15Z23nfHeUK8F0j9a0lJjra4y89DuS6FkL0TEcd4A8cMJwhg0dis9n4ec1yqqsrO6Nd4hjQ6fQkJ6cAvkfBMzN7oSgKFRUVHo+Y26ub7xoBa73P0NBQ9+h1oY8ANzo6hsjISL/LPY7hfPJQUlLc5miVi1qtJi0tDYC83LYfTXf3+bnO7WA7KQKudgBMnHiq3/Wam5s8JgsajUbi4xwpETNmTOXw4eD+jHa4nUH2Z3R0DBEREdhsNvJ9pBO4tvO6PoPsl5YCuV4Atm/bwl8evp+bbryNtLR0UlPT3MssFgvvvjuPN998td39dIRapSIjyfH9+RqJ12m1JMc5AvwDLQJ5rUZNWkKc4/MC7/M+kp7jHfxv3XuAe1+dx+0XzSQ9Md69HwCzxcq8L7/lH58s8thGp9WSEh8LwMFWKT8A2cmOKkPlVTVe1X6CoVarSU9Pdxzv4H6v5TqdnqQk5+TkNqrjyHXdQcfonQRCiGMj6ABfpVIxasR4srL6YbFY+HntckpK2w7SRPfKyMxEpVJRVl5Kfb33CJxrlLf1D5hrEtpBP9VV3D9srStHOLfLy8/zSl+BI7mv/pb72lduB+tUJ6ekotFoaW5uorS07Xrc3Xl+MTGxhIc7fvzz2smRdR1vxYrvvF7U05bMjGwURaGmpibo4D6Ydgben47PS0qK3bnGLWX6CbCC7ZeWArleXJZ9+w3Lvv2G+PgEsrN7kZmZzfhxExk7bgLXXHMDO3ds48efVgXVnpZSE+LQqtUUH6qkvtG7X7JSElApilelnPSEeDRqFYeqa6j2EVC7RtsP+JmA+83P6/nm5/UkxETROzWJrORkJg8fxIRhg7nxd2exbd8Bvt90ZOTc1Y5SPxV7eqW5jue/f5udQaS+A/neru+stLSYhgbv83P9fVdeVubz7zuQ67ojDM5/+y/0K4Q4HgU1yVar0zFx4nSysvrR1NTAylVfUVIiwf3xzvWD4e9R9JFcVM/laamOUbKW1R1c9HoD2dmOiaatg2/X8SoPHfLaDmDIkGEAbNu6ud22u6vAdPAxc5ZzYllBfl67JVu78/xcNwFFRQWYzf7zhAH3SFzlYd/H88dVaeRoXmwWUDuD7M9M9/Xnu52Z/q7PIPulpUCul9bKy8tYt24Nn3zyAXfdfRs/rXZUzek/YFC72yqKgkrV9l/D2c6JsrV1vkOskf0dE7h35Xi+3yA90THqXlDmu6rZwGzHhM69+f7TV8BRYvPnbb/ywdIV3PLsq6xyVs0ZlJ3psV6vFMdoub8bBlfFHl9PDFwOO7s+rgODxa4R9doa3zXuhw8bCcDuPd5pMe42yXXdrnjn5VllkxF8IU4kAY/gh4aGMXHCdCLCo6iuOcyPP31LQ0PdsWib6GSuH0R/I1CufPLcVssNRscYjitPtKXp08/GaDTS3NxESYnnCJHrxzMqMsprO51Oz4wZMwFYsfK7dtvuDlLbKJHZUrprYpmflzq11J3nl+oMGkpK/Ac9LfcJEOnjeADx8Qno9XoOHapwV0OCznlzcSDtDLY/szKcI6B+qiS5R0hbXZ/B9ktLgVwvw4ePJCY6hh07d/gcFXUVgDlU2Xa54KGDR3LGGeejqBRWrPiajZt+9rleL2cFncjwUK8Jr1qNmgtPGw/A8g1bPLYLcX4PKpX3G2EjQkMYN3Qgdrudn7f96rFs1IA+xESEs31/LsWHvJ/4uMK8imrPeQZHngj4Hinu7UwJyvFzAwCw16oCrAxWtx+MukpPRkRFek101mg0nDdzFgCrVq30uw+5rts3WO3o190dDPDDwyLJclYXq62rISdHim4I0R0CGsGPCI9i2pTziAiPoqg4jxUrF0twfwJx5Zr6G0lyj/C3GoHKd07gOv+8C91BLcCE8ZO49tobAKiqrvIaIXIdLyIqklkXzHZ/HhMTyxNPPENmZhb79u9l/S9r2217pvtHsmMBfkhICADx8fFotbo21+3O83Pts3fvPsTFxfldD2DPHkcgdtqpU5k0eYr7c4PByJw5V/H551/z+mv/Rq32DOgyMzteBrAz2hl0f7pvRPw8YXIGdK2XB9svLQVyvcy+6DKefOp5/vKXx4mJiXV/rtcbmDv3asaNnYjJ1MyPP6xscz+nnnoWWq0WjVrDaaee6a6k0porV96OnZtmzXCvFxkWylO3Xk3/zDQKyw+x+KdfPLbLcebBD+mVweThQ9yfJ8VE88IdNxBmNPDtuk3kl3pOGL1s+mm8cMcNPHHLlcRGRhw5P52Oa849g4nDBmMym1m5wbMEaC93Tr/vAL9XB0bwN1sVGu0KqSobQ9RtF2twjXzb7XauuebGI/0SEcnDjzxF3379KSoqZMmSr/zuQ67rtmWrbfRX27AA6y3+j9PS4MEjmHH2bGacPdv9bhwhRNcLaAQ/OjoWvd4A2ImMiGH66b/zu+6Pq5fJhNvjjPuH5oD3hDSNRktyiuORcOsbgC+++IzZsy8hPiGB9977lKKiQgwGIyGhITzwwB946cXXSExI4uOPvmDRogW89/47wJEnAm+/9Qb33/8Xbr35DqprqklOTkGlUlFRUcGDD/zBKz/90Uf/yujRJ3t8Fh3tmET41F9fwOZcv7Gx0eOFLi2t+mEl1113M0OGnMS3367yyMG99tq5HiOvXX1+La1btwaTqZno6Bi++GIpVVWH3ctan9+33y7h0kvm0q//AJ595kWqqquoqa4mOTkZrVZHWXkp9997j7umtsuRFJ3gA/xA2hlsf7ra6WsCuEajJTk51XEera7PYPulpUCul08+/i+nTp7CyJGjWbRoKYcqK7BZrcTFxaPRaLFarTzzzBNUVLQ9gm+1WVr8tw38DFpnO0tkzlu0lPuuupirzjmdQ9U1pMTHolapqK5v4M4X38Bk9izFuisnn9VbdzL+pEH844+3cri2jmazmcToKBRFYXduAY+//V+v472/ZCVTRg1jzMB+LPvHU1RU1WC1WYmPjkKrVmO12Xjs7Q8or6rx2M51I7K/wFdJTjWpzpKcbeXgN9oVvjGrmKWzcqPeyh8bVPgrqOmq7/7ef+Zx9z33cfmcK6k8dIjk5BTUajU1NTXcd//dPvPeXeS69v9daBS4Ve+4Rpeb1VR1MMMnM8Px96LZbGLbjk0d20gI0emCfNGVQmhoGCEh/v9pL69UdC21Wk2G8yUqPsu4pWeg0aipq6vzCkzy8nK5445b2L59KxaLmfDwCHbt3MaNN1zF2jWrefvt16mrqyM9IxOzsw63Xm8gKSmZpqZGFi1awLPPPcHhw5UkJCRwqKKCBQs+5uqrL/U5sW3QoCHExMR6/OManYuKjHJ/1uBn4hzA3j27efDBP7Bv7x5UKpV7m/DwcMrLPSt8dPX5tVRaWsytt17P5s0baaiv9zjn1udnsZi57ffX897771BQkEdYaCiRkVHs27+X1157mSvmXuT1tk61Wk16miMN4WhSdAJpZ7D96SoJ6OspTWZGJmq17+szmH5pLZDrZcuWTVxz7eV8t/xbKirKiI2JIzIymsLCQhYtWsDcubP56qv/tduny777krq6Whoa6lm2bBF2PxF+pjMHf+m6Tdz/2nyKKipJio3mcE0tC79fzcX3P8XuXN9zoO588U3eXrSE/JJywoxGIkND2ZWTz9/++zlzHn7O5+TbTbv3cdlfnmbp2o2UHa4iLiqC6PBwCsoqWLDiJy689wkW/bDGYxu1SkWWs9JP65dmAWQlJ6BRq6htaPS6MWjtA5OaEptCttrGQ0YzoX4yQ1ylJ5evWMYjjzxASUkxiYmJVFUd5ssvF3LllZewd8/uNo8l17VvBuz8yWBmgNpOpU1hfnPHRu/VahWpqY7fmZ27ttDcJFNzheguSnJin+Bm3gghhDimosLDWPXPZ2loambsdXd1d3O6TLLKztNGMzEqO4ftsNCkdo4iH7nR//qblTQ0NjBt6vhubm3PEarAVK2FC3Q24hQ7tXaFBxq05HQw/z4tLYs5l90IwPx3/kFpme/ynUKIY0+G2YUQ4jjVyzl67+/NsT1VsU3hjgYd6ywqohW4Rm9ltOZITr4r3bCggy+9Ex0zWG3jRr2VOMXOFqvC/9V3PLiHI3OliorzJbgXopt1yptshRBCdL5sZ+nJ3N9YgA9QZYfHG7UMVNuZrrVS3+JFS663s+bnH+XLm4SHJjusNKtZZlazxRp4Wcz0dEf1nE2b2y+cIIQ4tiTAF0KI41RWsiOvPaf4txfgu+yyKuyyev5UZTjLP+a2M8dFBGarVcVWa3AP9tVqDampGTQ2NbBr19b2NxBCHFOSgy+EEEIIIUQPIjn4QgghhBBC9CAS4AshhBBCCNGDSIAvhBBCCCFEDyIBvhBCCCGEED2IBPhCCCGEEEL0IFIms5tNu3si5kYz9ZWNlOwso3BbSXc3SQghhBBCnMAkwO9mYXEhAESnR5I2LIm43jFsWbizm1slhBBCCCFOVAHXwT93xqUYjSFtrrN9xwZ2/brlqBr2W6I1aEg9KYlh5w8CBZa/tJrasrrubpYQQgghhDgBBTyCX19fg9Vq9bHEjkqtIsQY1gnN+m0xN1nIWVdAxug0otMiiEqLkABfCCGEEEIEJeAAf8X3X/n8PC42kfHjp2G32zhcdeioG/ZbZDVbALDb5OXCQgghhBAiOJ2Sgx8fl8SkidNRqVSsWbeKkpKCztjtb47OoAXA0mTp5pYIIYQQQogT1VGXyYyOjmPChDPcwX1BwYHOaNdvksYZ4JskwBdCCCGEEEE6qgA/IiKayRPPRKNWS3DfCbQGNSAj+EIIIYQQInhBB/g6nZ7Jk85Co9GwZu1KCe47gdXsa/KyEEIIIYQQHRd0gG80hGA0GFGp1IweNYmpp51Dn96DUCnyctxgle11TE5OH5mColK6uTVCCCGEEOJEFHAdfJewsAgmTTgTAKPRiFrtmK97+HAF3//4DWaTqfNa+RuhC9Ey8qIhxPeJw2q2Ymowg93x9Xz/6lrMTeZubqEQQgghhDjeBV1Fp66uhq+XfAKAoigkJqQyZtREoqPjGDlsHGt/+b7TGvlbYW6yUJlXTWhsKGFxIWgNR74eeTAihBBCCCE6IugRfF8S4pM5dfLZ2O02Fn35ASZTc2ft+jdh4PQ+9DutF4VbS9i++Fea6kwgJfGFEEIIIUQAOnVcuKy8GLO5GUVRERkR3Zm7/k1IPSkZgL2rDtJUK8G9EEIIIYQIXEApOhHhUSQmpdLU2EB+wcE211UUmSQaKJ3R8XXYLBLZCyGEEEKI4AQU4Gs0WoafdAo2m5Wy8hKamxs9lsfGJqLV6rHb7VTXVHVqQ38LLCYrWqMWrbFTXjAshBBCCCF+gwJK0ak8XE55RQkqlZqJE04nokUaTkJ8MmNPPhWAoqI8r+BftM/c6KiSo3W+0VYIIYQQQohABTxUvGbtCqacdi4x0fGcecYsmk1NqFUaNBrHrmprq9mwaXWnN/S3wPUGW43zjbZCCCGEEEIEKuAAv6mpkaXffk6/vkPIzOhNaGgYdrudqqpKCgpz2LtvOxaL5Vi0tedzTltQq6QmphBCCCGECE5Qyd5Wq4Vdv25m16+bO7s9v1mxWdFEpUUCUFdR382tEUIIIYQQJyqZzdnNpt09EY1egyFcB0DZngoq86u7uVVCCCGEEOJEJQF+NwuLC8HcZKG6qJaSXWXs+b7t8qNCCCGEEEK0pVPfZCuEEEIIIYToXjKbUwghhBBCiB5EAnwhhBBCCCF6EAnwhRBCCCGE6EEkwBdCCCGEEKIHkQBfCCGEEEKIHkQC/E6SobIzSWPDgBQlEkIIIYQQ3Ufq4Lfy6GkX0mA2UV5fy9bSXNYXd6wufZLKzp+MZqrs8GGzhq/Magn1hRBCCCFEl1OHh8U80t2NOJ5cOngc0YZQUiOiGZmcTYQ+hG1l+e1uZ7ZDuGKnr8rOyVobvdV2fraosXVBm4UQQgghhHDptAB/3ClTGTd2CqGhYRQV5XXGLrvFl3s38d3B7RxqrGdoYhpZUXFsLM6h1tTU5nb1KKyxqPnBomaYxsYgtZ0stZ1VFnXXNFwIIYQQQgg6KQc/PTWbtLQsmhob2Lx1bWfssls1Wsz8kPcruVWHAMiIiu3wtkU2hQcbtByyK5yisTFdaz1WzRRCCCGEEMLLUQf4ep2e4SPGArB+44+YTaajbtTxwmQ1A2CzB5ZNX2VX+FeTY3rD5XqrzGQWQgghhBBd5qhjzxHDx2HQG8nJ3UdxSUFntOm4EaLVA9BkDvym5WeLinK7QqxiZ7hGMvGFEEIIIUTXOKoAPyUlg/T0XjQ2NbJ5y4mfmtOaUasDoMFiDnhbG7DJ4ujeoWoJ8IUQQgghRNcIOsDXavWMGjEegA0bf8Rsbu60Rh0vjBotAI1BjOAD5NkUABJVUjBTCCGEEEJ0jaAD/OHDTsFgCCE3bz/Fxe2XkTwRmayWo9q+3hnXh3dCW4QQQgghhOiIoAL85KR0sjL70NTUwObNP7s/j46KY8jgkWRl9um0BnanneWFAIxL64NKCT6bSVFkBF8IIYQQQnSNgN9kq9XqGDXSmZqzaTWmFukrUdGxDBwwnLKyInJy93VeK7vJZ7t+IcJgZErWICZk9KeuRS38v/6wiAZLz0tLEkIIIYQQJ7aAA/xhJ52M0RhKXv6BE/qFVh3RaDGzv7Kc+JAIEkMj3Tn5ACqpfSmEEEIIIY5DAQf42Vn9ANixc2OnN+Z4M7PfCM7uM4wNxQf425qvqGlqJKhkG7vS2U0TQgghhBDCp4ADfJfJk87CbvMMd7VarZ+1T0yjU3oB8M3+bVQ3NQa8vcH578C3FEIIIYQQIjhBB/ihIWGd2Y7jUpjzRVdWa3B17OOdaTxVNhnBF0IIIYQQXSPgAP+Tz/7td1l2dn9Gj5xwVA06njRZzRi1OgxBPpkY7HzB1W4J8IUQQgghRBeRqaJtaHC+vCtEow9422y1jf5qGxZgvUXdyS0TQgghhBDCNwnw2+B6g60xwBF8jQK36h0vyVpuVlMlZfCFEEIIIUQXCToH/7dAwZFao1E6PgJvwM7dBgsD1HYqbQrzm2X0XgghhBBCdJ1ODfAPHtzNwYO7O3OX3aZvTBKZUXEAlNZXtbt+qAJTtRYu0NmIU+zU2hUebtRSKyUyhRBCCCFEF5IR/FYePe1CDGodkQYjADvLCzlQVd7udoPVNm7UWwHYYlV4qVFLhQT3QgghhBCii0mA30piaCSNZhP51YfYUpbHkn1bO7Rdkx1WmtUsM6vZYpXAXgghhBBCdA8lObGPTAEVQgghhBCih5AqOkIIIYQQQvQgEuALIYQQQgjRg0iAL4QQQgghRA8iAb4QQgghhBA9iAT4QgghhBBC9CAS4PdAOpWdSYlN9I+wdHdTxAlAC4zXWumrOnELamWo7EzS2DBw4p6DEEII0VmkDn4Pc1ZKI9f0aSDOYOW57eHsrpGvWPh3utbKXJ2VWJWdl5s07LWpu7tJQUlS2fmT0UyVHT5s1vCVWS2hfhtO1tiYqLGSrLITpsAfGnTUS4cJIUSPIdFfD6FW7Nw7pJZpyU1Y7bCyRM/Oam13N0scp9SKnTv1Vk7TWrEBP1hU/Go9cR/o5VgVlptVTNbYuNlgYaTGxtONWszd3bDj0BV6CxfrrB6fOW6H5AV9QgjRUwT8oqvJE88iMTGlzXX27tvJ5i1rjqphIjB/GlLDmSlNFDWqeXhzJAdq2793Gz0gjo8eOxWAk678gvomSek5GidSf95pNDNNY6PEpvBUk4aDJ3Bw31KKys6DRjMZKjtrLSqeaJSb3JZiVXb+HWpCBfy7SfoaZwAAIABJREFUWcNSs1pG7oUQogcKfATfGQeYTSasNqvPVcxm09G0SQRocmIzZ6Y0UW1W8Ydfoilt6hnBmjg2xmutTNPYqLErPNigpczec0Zui2yOc3op1MwpGhvTtVaWmk/MtKNjIVuxowKKbQqfm6RfhBCipwo4wFcpjuBx3fpVFBXndXqDROCu7lMPwFt7QiW4F+2a40zPeKdZ3aOCe5cqu8K/mjTcZzRzud7KMrMaW3c36jjhGqyXIRghhOjZAo4GVc48TbtdfjKPBwMjzWSGWqg1q/i22BDQtlab3ed/i+CcCP3ZX20jQ2Wnzq6wogePbP9sUVFuV4hV7AzXHD9/V02bei5hYeHddvx657/Det59nRBCiBaCSNFx3BMcn+FL94uPjuSKs6YyeeRQUuNisAO5xWUs+mEN/12yEqvNM9jISErgyxceIae4jAvve5yrzjmDcyeeTFp8LNX1jXy9+hf+/sn/aDb5HnM7Kdrx+cZKLWZbYL/a1XXNADSbrTSZfKdbtRRm1HDtuf04e2wKGYlhKAoUlDfw3fpi3li4m6o67zbOPi2TZ24dzWff5/LE/K3cc9kgTh+dQmyEnvKqJr5ZU8jLn+6krsHSKdsB6LVqrjmnD+eOTycrORSVSiGvtJ4la4t46397qG3wnnp5NMcLtj+7wxCV4/rbYlUCmoAaF53IzNMuYfjAscTHJGKz2Sgqy2P52q9Y8uPnPm/4r7vobs6aMItX3nuMvOKDXHDGFQzqPZywkAiKy/P534qPWLF2cadt15IN2GRRMV1rZajaxkbL8fFka/So8QwffjJbtvzCmrUrqaur7dLj1zuf2IR06VGFEEJ0tSBSdFwj+BLit3byoH68eOeNhIeGYLfbOVRdQ1R4OP0z0/hj5mwGZKbz4D/f8dgmOyURgLzSMv5+zy3ERITzy8497AsPY8qoYVw5YxqJsVH88ZW3fR4zyegIrPLrA79XO1TjCEiratt/YB8druOjx0+jd4pj9LGmwYzdBr1Twul9XjjnTUzn4odWUljR4HN7BfjPnycSHa5n455DRIXqGDMwjmvP7cvJg+K4+M/f02z2DooD3S7MqOH9hyczpFc0gCOYt9jpmxZB37QIZk5I4+I/f09FdVOntjPQ/uwuCc44tyCASbUjBo7l7qsfw6A3YrGYqThcQkR4DNlp/bgurR+Zyb144+PnvLZLTcgAIDIsmkd/fze7c7axccdqemcOJDO5N7dedh9Wq5lV65d2ynat5TlveBM7ub5/WHgEl196Y4fW/fzzdymvKHX//+qfVzBy5DhGjRzH8GFj2LL1F9asWUVtXXWnttEf14RaozMX//h5tiGEEKIzBRwVKs4cfLvdTmJiKn17DyI0LByrxUJFRSm7926nsbG+nb30PEkx0bx0982EGQ18sHQFr366mJr6BjRqNf938Xlcfe4ZzJx0CvMXL2NvfqF7u17JjgB/9IC+vPH5V8z78lv3simjhvHy3Tdx5imjeC7mM8oqq7yOG6Z1/GK3MbDsV029mZoGM0WHGttd974rTqJ3SjgHi2q565Vf2HbgMAD90iN48faTGZAVyWM3DOe6v672uf30k1NZvDqfh9/ehNniaPPArEg+fnwKQ3pFc/HULN5dsv+ot7vrksEM6RVN8aEG7n7lF9btqgBgeN8YXvy/k8lMCuPh64Zx+9/Wdmo7A+3P7uJKzWjs4A16Qmwy91zzOHqdgQ+/+heLln+I2WJCURRmTJ7N1bP+j9PHn8fn371H2aFij23TEjIBmHLKOTz44k0Uljnm7KhUau666lHGDjuVGade5BWoB7tda65gtrMTYtQqFdFRMR1bV+NZxeeHH79l3fofGT1yHKNHT2DkiHEMO2kMW7atZ82a76mtPbaBvusZXzMS3AshRE8WRIDv+HdqSgZ9eg/yWBYdHUdGZm9WrvyKmlrvYLQnu+78MwkzGliyZgN/fecT9+cWq5WXP/qCs8aPJikmmgFZaR4BfnZqEgBb9h70CO4BVmzYQm1DI+EhRjITE3wG+CpnspQ9iBrWdjuMuHpRu+tp1Apnj00F4IE3NrqDe4A9+TXc89ovLH72dCYPSyI8VEttvXfyh91u54n5W9xBM8CunGreX7KfG87rx+ThiT4D50C2UykKF5zqGP19+O3N7uAeYPPeSu5/fQPvPzKZM0anEmrQ+CxjGWw7Hdt2rD+7k6I4rxelY9fLeVMuR68z8M0Pn/HZ0v+4P7fb7Sz+/hPOmPA7UhMyyEzp4xHghxhCiY6MA2D+wr+7g3QAm83Kkp8WMnbYqSTFpXocL9jtOnLOnaW6uopnnnsg6O2bmxr5afVyfln/EyNHjOPkMRMZOXwsw08aw5atG1izZuUx+ftTAc50TrDe0IPnXwghhAgmwHfm4KelZLF6zXJKSwtQqzUkJqQwbNgpGPRGRo+ayPKVX3Z6Y49nU0cPB+DDb7/3Wma12aisriUpJhqT2TOozE5xBPhfrf7F534VZyDW0NTcmc0NSEyEnlCDBrvdzua9lV7Ld+dW09hswajXkBIXwu5671HIA0V1NDR7p7b8mudYNyHa9wThQLaLidATEaoDYO2Ocq9t1u+uwGyxodWoSIkLYW9BTae1s6caNXgcAN/+7PvPs8nkSHUymz2vzxRnmk1VbSXb92zw2s5scaxf11DbKdudiEymZtasXcmGjT8xYsRYxoyayIjhJ3PS0NH8/bUnaW46+idB/ww9crMdodhRY2eNRcXrzRLgCyFETxZwgL9+w4+o1Rpqa6vdqTgWi4W8/AM0m5qZPPFMYmMTCA0Jo76hrtMbfDyKj4ogPioCq83G1n05PteJi4wAoKi8wuPzLGeAvzPHu+RoRGgIYUZHQJlX5h2wdhWd5ki+9tv3T/C5jkbtCBh0at+53fWNvqd0/riljBue/snnxNdAtzPoHMe22uzUNXqPzlusduqbLESF6TDofAc4wbazJwo1hhMX7Ughu/yc67HZvJM6XAF5SUWhx+epSY40m/35u33O16k8XM7bn73E4ZryTtnuRGY2m1m37gfy8w8y46wLiYtLdM91OlqpKs/vrNyuUG5TaOiB5VGFEEIcEXCAf+hQmd9lpaWFWCwWNBoNYeGRv5kAv1dqMgCFZRWYLd6BZZjRQEJMFAAHi45MuIuJCCcyNASb3U5usXe/utJ3yqtqqK33PXm1K6c6K4rC+KEJnbrPiuomlm8s6bLtgtXVxzsepDmDbYBRg33f2AGYzM2Utsq/d02ULSzJ8blN+eESvvnhM6/Pg92uTcd5MJuWmsX48VPIzuoLQFFxPhZz57wFeWatHnCk50QqcI3ezEydFb0Cf28KfGK+EEKIE0On/w1vMjWh0YShVv92fjx6OUfh9xcW+1ze23kDUFZZRV1jk9d2xRWVmMzeI8PZzgm4B/zsF6DZWQ3FoD72ob7VZqffpQuO+XHEsdPsDHb1HchLT03MAmDNlu95Yd5DAR3HtW3LHPpjuZ0vrmSqzp7yfDRVdFrKzu7L+LFTSEvLAqCoKI+fVi/nwME9ndVUNztQZYf/mjRM1ZqYoLHy987/618IIcRxotP/htdqHDnQNlvnjEB1N0VRUBTFZ3qCS1piPAClh31XwBjRvw8AOw96Bi3ZqW0H8NnOG4MDRf5HjitNjoAt3nDs6q6bLI5zV6sUwkO0x22aSpPpSDvDjBqvNB21SiHUoHGue3zWqT/WDjvj+rgODGonxaUAUFXnPe+iPamJjtH/wtKcLtnOl3hntlhVgO+HaM/RVNFRUOjTdyDjx55GUlIaAAUFOfz083JycvZ1ajt9MTlv8EIVpEymEEL0YAEF+EaDkVGjJmG329m4abVXOczoqFi0OkeAX1vTNXWdj6Whg0dyxhnno6gUVqz4mo2bfva5nk7r6MaoUO/Xxxj1Oi6Y4khv+G79Zo9l2cmOEfyWaTstuUb4cwr9B/i7axwBxNDoY3dDVVnTTEOzlRC9mnFDEli6zjPfWlEgIyEUFIWCsvpue4trZU0z1XVmIsO0nDwonuUbPG+cRg+IRatRYbbYKSz/7ZVyBdhrVQFWBnfgiY9W40jviPh/9u47vq3qbOD472p4yJa8t2PLznL2JJBNFklDAmUTdiil5W2hFF4KZZRVWijwUqC0QNkUwh5pQjYJhISQPQjZ3it2vCRZtuZ9/5DtxLYcz8SO83w/H38c696j++hKdp5z7nPODQnzuz0yPJoAfRAVVcdwOI9fmdJqtcRF+ToHBUdz2hxbR9u1ZIjWl74e6OIEvzOr6Ny88A6io30d+7z8bDZsWENOrv9VmU4FQ11KL8tkCiFE79au2zvW1NZgCDaQmNCH8edOwxhqatgWER7NuePOB6CktKhX1N9PnToHvV6PTqvj/KmzG1a0aepwXiEAM8aNYua4UQ37pcTH8sLdt2FOiOVgXgFLNzReKSe9rsa+pRH6+jXyTzaCv70sALtboY/B3XBX267m9qgs25QPwCM3j+DcwdEN26LDgnjytrF8/eIcXrrrvG5L7gG8qsrn3/oSw8duGck5GVEN20b2j+TJ28YCsHJLgd+VcrrL8GFjufeev3DvPX9h1sz5p/RYOz0KNapCksbLUO3JU7ysAl+pyLhhUzhn2OSGxwMDgrho+gL+9adPeOy3L6JrUo4XH5WETqujylbRrtVuOtrOnzStl4FaL25gq7vnrBgTHR1HTm4miz54jfcXvXpak3uAkLq/+NVd3OkRQgjRs7S7ROeHLd8ydfIcoqJimTP7chyOWjSKpmHk3m63sXXr+i4PtDt4Tigz8ni9Lc5oXbx+Ewtmn096Yjz/97tfUuNw4nA6CTeGApBbXMIdz7yM29M4qTTX3cXW3wi+TqslMdaXoJ6sBt/uVliSH8yVZju3Z9j47eYIHJ6u/8/7yXf3MLp/JGmJRt5/ZCpWu4uaWg8xEYEoikJZlYN7/7W1y4/bXs99uJexGVEMTY/gg8fO95UTqWAM8V3pyCm28dgbu7o3yCbM5r6Ab235rdv9XyXqKjWqwnKXhksCPNwa6OEeu4aWFmDduH0N86ZeRVpyf/7wi79gra7CWm0hNjIenU5PWVUpz7z+ANU1jTvziQ1lNu0bhe9ou6Z0CvxPoO9392uXlsoedNPt9xa9Sn5+drcdP6TuT8PZef1KCCHOHu1O8Kuqylm+8lP69xtCYkIKhpBQNBoNVZYKCgpyOHj4R1zOUzOSfLqtXrOEC2ZejEaj4eu1S1FbyPBrHE5ufPRZfvXzn3H+mOHERUag6vX8lJXLyh+28/6KddQ2OSeBAQEkRPnqeLP8jNCnJcSh1Wiw2msorWy+XvuJ3jkSwqQ4B+lGN4+PrOKxXWHY3F2b5JdbHPz8/q+5Zd5A5pybSEp8CIqicDjfyuqtRbyz4jAl5bWtP9EpZqtxc9WfvuGmuf2YN6EPaYmhKAocyrOw/IdCXl9ysEfNIVBQSE3xzdHIzDpIRfmxVlp03iKnlvE6L2laLw8Gu3iyVt9w19cTuT1uHn3pDi6ZdQPnDptMdGQ8KAo5RUf4fuc61ny/2O9Ie0MdfXF7J9h2rN2JglC5K8hNhlal3KvwVg9b7707k3uA+hkBMn4vhBC9m5IQ168HjW+Jjko0ePj72EqigjyUOzR8khPMisJgKp3tqsISp1lsbAILb7wdgA8/fuO0TLQESNCoPBnsIlKjUqHCF05t3Wj3mZn6hSgwXe/m0gAv0YqKVVW4364nW0pRGknUqLwS4sQL/LlGzxa3/H0QQojeSP669xKFdi2/2hTB96WBRAZ6uXVANedFd9/db0XbpKX6Ru+PlZWctuQeoMir8Dt7AJvdGiIUWBjoYazuzJ12OUTr5dZAD9GKyi6Pwh3Vktz7U+hVWOfSogH+FOzi3VAHL4e4Gkp3hBBC9A6yEHIvUuHU8OCOMIaEu5ibXIvNI/23ni7V7Evwt23beNqPXanC4zV6BmlVLtB7qD5DR+8BalVY59Ky2qVl1ymYg9KbPO/Qke2BiQFeEhWVJI0XLSpSuCOEEL2HJPi90N5KPXsr9a3vKLqVVqujT7KZ2toa9u7d2XqDU2SfR2Gf58z+U7Dbo2G3dGjbxK3Cpy4dn/acqShCCCG6mNTgCyGEEEII0YvIkJcQQgghhBC9iCT4QgghhBBC9CKS4AshhBBCCNGLSIIvhBBCCCFELyIJvhBnuQAdTB6sMjCxuyPpuNQYlWnDVIICZM0AIYQQ4sxeG08I0SlzRnm5eYZKtAn+9rnCgcIzs8+fGAkPXeGlohreWath8RYFVXJ9IYQQZymtMTTyke4OQghxemk1Kn+8VOX681UC9fDtXoVVuxSq7GfmzY5cHgVTMGQkwYQMlf4J8N0+Bc+Ze3NeIYQQosM6vQ5+YEAgc2ZfQUBAAAcO7mH3ni1dFZs4iz00djpX9Bva7PFdZcVcv+qjbojIv4duvoYrZkxq9viuw1lc//DT3RBR29x7qZfZI1UKKxQeXqRwpPjMTOybSo6Gxxd4SY1R2bBf4aH3z8wrEkIIIURndPp/v2HDziEgIAB7TTU/7dvRFTEJQURgEGW19oavWo/vtpvZlvJujqyxCGMIZVWWhq9apxOA7ILibo6sZVOGqMweqVJlh7vf1PSa5B4g/xj8/g0NpRaYmKEyd4zU6QghhDj7dKoGPyoyhjRzfwB27voBt9vdJUEJcdeGrxr9/OT42cxNHUhmVc9K8O96/t+Nfn7yNwuZO+EcMguKuimi1i2c7kt6/71Kw9HKbg7mFKishn9+peHhq73cOM3L8h1avFKqI4QQ4izS4RF8RVEYNWoCoFBUnEdBQXbXRSVEE+mmSAAye9gIflPpifEAZBb2zBH8QckqqTEq1hqFVTt7z8h9U+v3KZRUQYwJxvSVUXwhhBBnlw6P4PdNH0REeBRer4edOzd1ZUxnpWCdjmv6j2RWSj/Mxgj0Gg3Zlgo+zdzLB4d2421hSZCY4BCuHzCKKUlpJIUYUVHJsVSyOHs/7x/chUdtPHSZYgxnyYU3kG2t5LJl/+HGjDHMM2eQHGqkyuFkWc4BXtzzPQ6P/6sxwyLjuG7gKIZGxhIfYgQUCm1VrCnI5I2ftmFx1XZJnCdSUDCbwgHItFS04WxCgsHIDRmjmJhgJjEkFK+qkmWp4PPMfXx0uOXz2RmKomBOjPPFWXi0TW1iIsK4fs50poweRlJ0JCqQU1TC4vWbeH/FOjwtDD1PHTWUGy6cyZC0VDweDzsPZfLMfz7FGBLMfx79Q4tzAEak+l739ixwedr+2uLiEliw4HrGj59IfHw8Xq+XnJxsliz5ks8++wivnzj/9577uezSK3nkkfs5knmYG2+8hdGjxmAymcjNy2XR+++yZMkXXdbuRF4Vth5WmDtGZaRZZcuh1jszZnN/5v7sUjSKlpWrvuTgob1tP0FCCCFED9KhBD8wIJChg0cDsG//LmzV1i4N6myTaDDx6rSfk2L0JbGVjloUFPqHR3Pf6KmMik7gno3Lm7UbF5vMc5MuxBgQiIpKWa2d8AADAyNiuCcihozwGB74YWWjNmnGCAByrZW8OHk+kUEGthzN53BVENOS+nJDxijiQkK5Z8OyZse7MWM0d4/0TSit9bgoqakmUKsl1RTBzaYxTEpI5eqVH+Bukux1JM4TJYSEEqTV4/S6Kai2tHo+JyWYeWbizzDo9Li8HoqqrUQGGRgUEcugMbEMCI/isS1ft/o87ZUQHUFQQABOl4uCkmOt7j9u8ACeu/NWjCEGVFWlrMpCuNHIwNRk7km9nIzUPjzw8tvN2t1x5UXccvEcABxOJ8cqbZw3NINX7/8d//psKQBZLXQw4nxvP7mlbR+9Hz9+En9+4m8Ygg24XE6Ki4uJjIxi4MBBDBw4iL59+/HUU39u1i41xQxAREQk//rnG+zes4MNG75l0OCh9OvbnwceeAS328Xy5Uu7pF1TWSW+7/ERbXud06b+DGNoGADTp8+VBF8IIcQZq0MJ/uAho9EHBGCzWdh/YE9Xx3RW0Ws0vDBlHinGcDYW5fDEtnXk2apQUJhnHshj585kdsoAvsjax4ainIZ28QYjf588j1B9AIsO7eKl3T9gcdWi02i4Y9gEbho0mvlpGbx1YDuHKo8nm+kmX7YzNjaJV37czJv7tzVsm5aUzvOT5zG7T3+eNnxLib26YVsfYzi/HzERl9fLY1vWsCT7QMOo+5DIOF6ZdjEDwqMZH5fC+qLsTsd5onRTFAA5lspWR96TQkw8O3EuwTod/9jzPW/t24HT60ZB4dqBI/jDqClc3ncor/+0tU2dhfZIT0zwxVl0tNU44yMj+PtdvyY0OIhFK9fy0idLsVTb0Wm13HHlRdw0bxbzJ5/LW0tXcyivoKHd1NHDuOXiOXi8Xp5571M+XPUNbo+XoIAA/vzrG7huznQAslsoETIG+77X1KpA60l+YmISTzzxNMHBwbz66ku89947OJ0OFEXhyiuv4c477+HnP7+cd999k8LCgkZtzalpAMyb/3NuueU6cnKyAdBqtTz++N+YNm0GV151TbNEvaPtmqquVQAVU3CrLxMAh/P41Senw/+VKCGEEOJM0O4a/JCQUNLNGYBKbl4W06ddyGWX3MRF86/hvHHnY6obhRZtM7NPPwaER3PEUs7vvltKnq0KABWV/2bvZ1nOQQAmxKc0aveLQWMJ1QewIvcgf932TUNpjNvr5fndGym2+66qZIRHN2qXVlfLvutYUaPkHmBtQSZWpwOA1NDGw55TE81oFIVvC7P4Mmtfo5KaveVHuWblRyxY+SG7yxonlh2N80R9w9pef39TxhiCdToWHdrFq3u34PT6So1UVP5zYCdZVl+Jz8CImFafq736JvsS/LaU5/zi4tmEBgexYtM2/vr2x1iq7QC4PR6e//BList9cWaYkxu1u/XncwF47csVvLd8Le66hd5rnU6eeucj+tXF0NIIvqYup1eVto3gX3vtjQQHB/PJJx/w5pv/xln3+VBVlQ8/fK8h+e7Xf2CjdiEhIUTH+M7x839/umE/AI/Hw2ef+ZY6TU7q0yXt/PN1sjRK28qxlq34jH0H9nDw0F7+u/STNrURQggheqJ2j+APGDAMjUbB5XTSv/9gamvtWG1VGEPD6dMnnYSEFL79bgVlZW2rQT7bTUtKB+DzzL1+697/sXsTHx/5kWO19kaPT0/uC8AHh3Y3a+NRvZQ7aog3GHE2KZdJqxvB/6qu49CUUpf42d2uRo8b9YEAhOgC0ChKsxHqXKv/5Vg6GueJ6q86tKX+fkqSGYBPjvgvr6ite121Lcwx6Iz2TLCdPnYkAB+s+qbZNo/XS3mVlfjICJyu43FGmowM65sKwCdfr2/Wrtxia/h3VmHXrOIzceJkAL748jO/22trawBwNBnxTq0bhS8vL2Pr1s3N2tV3FCwWS5e06woV5cdYvHhRlz+vEEIIcbq1K8HXaBRS6hI2m93Kps3rsFl9I84GQyjnnTOVqOg4xo2dzPKVn6GeZOKk8BkU7hut3Fla6Hd7od1Cob1xMhMTbCAm2IBH9bK7hY5UdKDB177uikA9c90I/k8VJc3amPRBhOoDAMi1NU7YNxTn8uuh4zgvvg9LLryRnccKybZWcKSqnK0lBVQ5m5c0dCbOEzWsoNPKEpkmfRAJBiMAdwwbj5fmI7f1HZy8FjokndGQ4OefPMGPCTcRE27C4/Wy+3C2332iw0wAFJYeL1vKMPtGrYvKyjla3jz+yDDfa3e5PeS3YQ5Aa4xGE3FxvisCv/7Vb1D9dMJSU80AFOTlNnrcbPYl6vv2/4Tqp1yppKSEZ599kmPHSrqknRBCCCGOa1eCHx4WTUBAAF6vyqZNXzeaXGu329i4eS1zZ19OaKiJqKhYjh3rmUsF9hQ6jYak0PatDgPHa9ILbBZc3uZLoYTqA4g1hAI0lKQARAYZCAsIxKv6VrBpKi3Ml/yW1tgbSnXq7T5WxL0bV3D78PH0CQ0jOdTUsM3l9fLmvm38Y8/3XRJnS3FlnmSfE/cDmJqU1uJ+Dk/bJuu2V1pS20bw05N8SXNByTFcfu4dERocRGyk73NxYqmNOSHW91iB/85Sapxve15JaUPpTlPtWTyoPtkGmDRpaov7ORy1FBY17qDWJ/7ZWZl+2xQXF/LJJx80e7yj7U5GVXvvcqBCCCGEP+1K8A2GEACstkq/K+fU1tiprCwnKioWkzFMEvxWmI0R6DQKJXYbNpezze3qS1aOtFCT3rduxLvp86bXraBTZLc21KafKK2hFKbM7/Muzz3I8tyDxBpC6GuKxGyMZEqimYkJqdw65Bz2lBXxTWF2p+M8UVSQAZM+CK+qkt1KJ6h+pH913uFmN8o61aLCTJhCDL44i05enlY/0n+khZth9a3rAJSUV2KrOX5lJDHa12Eqt/hftWpIXflO1knuoltbV3kVqG99kq3Z7CsfW7t2Dffff/dJ923Wtq7U5sQa+lPZzp8gvW+SbU3bf7WEEEKIXqFdk2w9dXXLGk3Lzeq3eaU8p1VJIb6SipLaar/bjQGBjIpJZFBEbKPHk+uW8jtaY/PXjFExiUDzMpyGkfAWEu60hptJnTyRLrFX831xHosO7eK2b77k27qkfnBkXJfEeaL6TkCBrcrvVYAT9ak73jGH/aT7tYWiKCf9nDfVt270vuCo/1H5EyXH+cqyjlb4L0saNbAfAD9lNS570eu0AESaQpu10et0/HzqeACyTtLBqKh7K2JNLe5yPM5k3wTf8gr/Hb6TSa3rHGRn+x+J7+p2/sTWzfcvt8kIvhBCiLNLu0bwKyrLAZXQECMmYziWJnXMoaEmwupWPKmsbH9ScLZRFF8CGR4QjIKC2qRm/I5hE7iq/zDe2redfSckwQEaXV27oGbPGazTcWnfoQCsyT/SaFua0ffeZFX5T+DrR9yzm3QAxsQkEhlk4MeyoxTZm48e1y/IcqxJR6WjcZ4o2ehGHQx9AAAgAElEQVRL2gv9HLepQK0vAY4I9L8uYqwhhECtnmM1NmpOkoQPGzKaWbMuRtEorF27jO07vm9x34Y465L2wrLWV/oJ0NedlxBDs23BgQFcOm0iAGu27my0LbNuZP68YYOYM34sy7/fCkB0uIkHbrqaQL0egOyTrOKzv9A3qj3M3GqYBAT4JlaHhflfGSsmJpbAwEDKyo5RU1PT8LhWqyUpydc5yMnJav1AnWzXkhFm3+/Tvvy27W8MDcNs9s0xstosZGcf7nQMQgghRHdo1wh+ba2dvLwsFEXDhPEziIo6PrIcER7FhPEz0Gg0lB4rprKy9UTnbLe3vBiP6iU51MRtQ89FXzdibNQHcsdwX3Jf6azl3YPbG7U7bPFNoJyR3I+Zffqh1JVapBjDeWHyfMzGcA5WHmNpzoFG7RpWo7H6f2/qS3iajuAvGDCCZyfO5c/nzSIq6HhSGqjVsTDDd4Mrp9fNuoLGo64djfNE9TXj/cOiiAlunhCfaH9FKQDTk/o2rE4EEKTVc1PGaFbMX8hb0y9Dp2hP+jxTp85Br9ej0+o4f+rshpWFTqZ+Qmj/PonEhJ98ePxwnq9efca4UcwcN6rh+VPiY3nh7tswJ8RyMK+ApRu2NGq3dMNmissr0CgKf/vtzXz7ytN89dxjrHrxL2QVFlPr9NXfZJ6kRGf7EQW7A/pEqQxPPXlB/sGD+wE4f+p0Jk+Z1vB4UFAw1157I59/vox//fMNtNrG5zM5uQ86nY6KivJ2rXbT0Xb+9I1XGZSs4vbAD224iy3AkCGjmPuzy5n7s8uJjoptvYEQQgjRQ7V7mcxtOzcSagwjIjyK6efPw+V2gepFX7eMos1m4YfNzZf+E82V1th546dt/HLIOfx66Dh+MXgslY4aooIMaBQFi6uWW9d+TmlN45KTxVn7WNB/JOmmCP5v4lxq3G4cHjfhgb6R8lxrJXd8u6TZHWXNdQl+lp8SHJ1GQ2LdxNmmNfjvHdzFtKS+nBObzOqLb+ZYrR2P10tMcCh6jQaP6uWxLWu7LM4TbSrOxel1ExlkYNVFv6DCcXykuMbtZu6Stxp+XpZ7kOsHjiIjIobnJ8+j0lFLpbOWpBAjeo2WozU2fr9+KVaXw8+RjvOcMD/B4/XiZzGe5nHu2Y/T5SLSZGTVP/5KxQl18jUOJ3N//6fj52X9JhbMPp/0xHj+73e/pMbhxOF0Em70ld7kFpdwxzMv4/Y0Lkmy1dRy02PPcvc1l3He0AwCdDrKLTZe+uS/rNq8k5vmXQBAVlHLS2TaHbBkq8KVE1Vuv1Dlt/9WcLj877tq1Qquvuo6BgzM4G9PPUdlVSWWqioSEhLQ6wMoKT3KH++9G5utcQnW8TKb9o3Cd7RdUzot3DnP95lauVNpKEtq9fgpvuO7XE727N3RqRiEEEKI7qQ1hkY+0p4GXo+H7JzDuFxOAgMCCQwMRqvVYrFWkZm5ny3b1jdbE1u0bHNJPoXVVmINIUQGBhOs05NfbWFx1j7+uGkFudbmddpur5dlOQcJ0GiJDDJgCghEUeBQVRnvHdzJQz+socJZ06hNoFbHXSMnoqDw3K7vmq0D39cUydX9R2B1Onhxz6ZG24rtVtYVZBIeGESoPpCY4BACNDoK7RbW5mfywKaVbDqa1yVxNmVzOdlUnEuqKQKTPpDwwGAMOj0GnZ6iagsfH/mxYV+vqrI89xAajYbowGAigwxoNQrZlgreP7iLRzevabiR2MlUVVXQJzkNt9vNmq+XUFLa+mRxW00Nm37cT2pCHCZDMOHGUAxBgRiCAik6Vs7Ha46vW+/2eFj2/VYCdDoiw4yYQgwoisKhvELeW7GWh155lwqr/6zUaq9h5Q/beeO/K3lt8Qo+W7eBQ3mFjByQzqXnT6CgtIw3l6w6aax782DaMEiNURmUDN8fUHD6qVjyer2sXr0cjVZLZGQkkZGRaDRacnKz+fijRfz1r4+SX9D8fZ8yZRrnnHMumzZtZMOGb1s9d51td6KgAJUHL/cyth+UWRUeXqTgcLc+gq/Vapg18yK0Wi0/7t3OAblDtxBCiDOYkhDXrx0L5wkheqInfn0j8yefy6JV3/DXtz5sdf/EKHh+oZcok0q5DT7eqLBih4ZK//O9e7yQYJg9wstVk1RiTGCpUbjrTQ2ZbVzIKznZzLULbgXgrbf/wdES//elEEIIIc4E7arBF0L0LOHGUO6+5lLmTz6XWqeTd5aublO7wjK49WUN3x9QiAyFX12gct6AM3flq+EpKr+d60vut2fCL19qe3IPkJriW56zsChPknshhBBnvHbX4Ashus9rD9zZsCSnXqfDVLcST63TyT0vvEZBadtXr6qwwQPvaRiaAnPHqNhOPjWhR6t1wupdCst2aNjRgRU2+/TxrZ6zY+cPXRyZEEIIcfpJgi/EGUJRFEb0MxMYEACAy+Mh72gp3+/Zz9tfrSbvaGmHnvfHXPgx98xeK35HlsKOrI69Bq1WR1JSCjW1dvbt293FkQkhhBCnn9TgCyGEEEII0YtIDb4QQgghhBC9iCT4QgghhBBC9CKS4AshhBBCCNGLSIIvhBBCCCFELyIJfhdJDXEzLd5BkFbmLAshhBBCiO4jy2Q28XKIC5sKxV6FH9wa1rvb1gdKNHh4cHgVFU4N7x4JYXFeMJLqCyGEEEKI001rDI18pLuD6El+FeQmWqNi1qpM1HuJVGCLp/Uk3+XVYNR7yTC5GR/roJ/RzYaSQDzqmb2+uBBCCCGEOLO0ax386Oh4pk2d26Z9N3y/hsLCnA4H1p0MCkzRefmfIBcK8JvqAHK9bUvUk0M8PDayitQQNxtLAnloZ9ipDVYIIYQQQogTdKgGX1VVamtr/HzZcbvdXR3jaWdXYblLw6G6kft+7airz6/WcteWcEodGibEOpibVHOqwhRCCCGEEKKZDtXg19RUs3TZR80eVxSFC2ZdgskYjsNR2+ngupuj7ru3ndX0lU4N/9xv5OERVdzQr5rlhcF4pSBfCCGEEEKcBl26ik5CQgomYzg2m4WysqNd+dTdIrTuu70DdfTflQRSUqshJtDLmChn1wYmhBBCCCFEC9qV4FdXW9i9Zwv79u/yu71fv0EAZGbt73xkPYBB8Q272zqQ4HtV2FoWAMCICEnwhRBCCCHE6dGuEp2aGjsHDu7xu81oDCMuJhGv10NW9qEuCa67hWh8Cb69g+U12Tbf6U0weLoqJCGEEEIIIU6qy0p0+vUbDEBefjZOp6OVvc8Mjk4ucWlz+dobdVKAL4QQQgghTo8uSfB1Oh2pKf0AOJLZO8pzAHbU3eRqht7ToRNV3z3QKJLgCyGEEEKI06NL7mRrTumPXqenylLRKybX1nvDoSVcozJP7+ECvQeLqjSsp3NXdQC2bo1OCCGEEEKI5rokwe9bP7n2SO8ZvQeoVhX2uTUk6CFJ422YdAt1o/Jyl1ohhBBCCNHDdDrBj41JxGQMx+12k5N3uCti6jGuDXRzZYCH9W4N99sDqDhhBL89VOkICCGEEEKI06TTCX6/vr7R+7y8I7hcrk4H1JNM0XkB+MSpo7wDSXqQ1ve9xiMJvhBCCCGEOD06Nck2ODiEhIQUAI5kHuiSgHoSY11JjruDc2Rjg33LY5Y7uvR+YkIIIYQQQrSoU5ln3/SBaDQKFRXHqKg81lUx9Rg1devgGDo4AD88wndFY19Vl0x1EEIIIYQQolUdTvA1ioa0tIFA71oa80S2upH70A5U3qcb3QwKc+FWFTYfC+ziyIQQQgghhPCvwwl+cp80ggKDcbqc5OZldmVMPUb9HWwNmvYl+DqNyp2DrACsLAykwiklOkIIIYQQ4vTocO1Iv3Tf5Nrc3MN4PO4uC6gnqa/M0bdjgm2QVuWPQy0MCXdR5tDy74OhpyY4IYQQQggh/Ohwgv/1uiVdGUePM1TrpZ/WN3Jf0IYB/BC9ygUJNVxlthMT5MXi0nDf9jAsLhm9F0IIIYQQp4/M/mzi5RAXwahE1pXlbHdr2O9pPUkfHu7ktxm+e9vuKNfz1I9hlNZKci+EEEIIIU4vSfCbSNJ4qVYh06Pwg0fDx462naJaj4Y1RUEsKwhmR7n+FEcphBBCCCGEf0pCXL8OrvIuhBBCCCGE6GmkhkQIIYQQQoheRBJ8IYQQQgghehFJ8IUQQgghhOhFJMEXQgghhBCiF5EEXwghhBBCiF5EEvxeKEAHkwerDEzs7khERwRoVCbH1TLQ1PwO0akhbqbFOwjSyuJXQgghhPBP1sHvZeaM8nLzDJVoE/ztc4UDhdKHO5PMSaxhYT870UEenv7RyAFL41/RRIOHB4dXUeHU8O6REBbnBSOpfsvGxziYGucgyeAhVK/y280RVLuU7g5LCCGEOKUkwe8ltBqVey9RmTlCxeOFdT8q/JQnicyZQquo3DvUyoyEWjwqrCsO5Keq5jdMy7TqWVkYxPR4B3cMsjI2ysnju004vfJeN3VzPxvXptsbPaZDBeRcCSGE6N06dKMrRVFIMw8gPT0DkzEMAJvNQl5+NgcP/YjH07y0QJxa917qZfZIlcIKhYcXKRwpbj2JGZsRzYePTQVg+A1fUl17Zrxv8ZHBbHh5LgADF3yG2+P/I3wmvb4/DLUwO7GWwhotD+8MI9N68r53coiHx0ZWkRriZmNJIA/tDDtNkZ4ZooM8vD+5DK0CLx8M5auCYBm5F0IIcdZod/2GXqdn2vnzGDN6ImGmSGw2C1arBaMxnKFDRjNj+nwCAgJPRayiBVOGqMweqVJlh7vf1LQpuRc9x5Q4B7MTa6lyafjfLRGtJvcA+dVa7toSTqlDw4RYB3OTak5DpGeOvqEetAoU2rV8nG2Q5F4IIcRZpd0J/uDBo4iKjMFeU82q1Z+zcvUXrFrzBStWfYrNZiHMFMHwYeecilhFCxZO941g/3uVhqOV3RyMaLeb+lUD8NrBEI7Wtv1XstKp4Z/7jQDc0K8ajeSwDeqv6TikdEkIIcRZqN0Jfp/kNAD27t2OxXo8m7TZrOz+cWvdPuldFJ5ozaBkldQYFWuNwqqd7UtmPF7V7797izPh9Q0Kc5Ea4sbq0rCqKKjd7b8rCaSkVkNMoJcxUc5TEGHHzJg+j9BQY7cd3+b2/S6E6r3dFoMQQgjRXdo9yba+/MZiqWi2zVJV7ntSnQ6tVndW1uLHRIRx/ZzpTBk9jKToSFQgp6iExes38f6KdXi8jROOlPhYljz7CNlFJVx23+PceOEs5k0aR3JMFFXVNSzbuIUXP/4vDqf/5G1Eqi9x3Z4FLk/7Yq2yOQBwuDzUOltvHBqs4+Z5A/jZeYmkxIWiKJBfamfN1iJe+eIAlbbmMe546yJMBj0jFy5m5pgEbr6wP+lJRhxOL+t3FfPMoh/JK7H7ORokxxj432uGMnlEHIF6DZmFNv69+CA/7Cs9Ja+vOwyP8J2z7eV6XB0YbfaqsLUsgLlJtYyIcLLlWEBXh9ghY8dMYOTIcezatYVNP6zDZrOe1uPb6kpyQnU9s2MnhBBCnErtTvCt1irCw6MINYZRXnGs0bbQUBMAdrvtrEzuxw0ewHN33ooxxICqqpRVWQg3GhmYmsw9qZeTkdqHB15+u1GbtMQ4AHKPlvDi3bcRaTKy5aeDHDaGMm3MCG6YO4O4qHDueeF1v8eMi/B9zy1tf3JYZvElwJXW1kd+I4wBfPj4+fRN9I3KWuwuVC/0TTTS9yIjF03qw5UPrqPgmP9k/bKpqdxx+WDW7ShmT2YFE4fHMW9iHyYMi+Xi+76msEm7hCgDn/1lOlFhvg5lSUUtMeFB/P1343jg1R1d/vq6S3ywr8OXV93xBa2ybb62CYau7cSEGk1cc/Wtbdr388/fpfTY0YafN36/ltGjxzNm9HhGjjiHXbu3sGnTt1htVV0aY0uq60bwg7UqGsXXERJCCCHOFu3OKg4e+pFx50xlcMZIiovzcTp9SZReH8CQIaMBOHBgT9dGeQaIj4zg73f9mtDgIBatXMtLnyzFUm1Hp9Vyx5UXcdO8WcyffC5vLV3NobyChnbpCb4Ef2xGf175/CveXLKqYdu0MSN4/q5fMfvcMTwd+Skl5c0L7I3Bvu81te1f/s9S7cJid1FY1voEzfuuH07fRCNZhVZ+/8IW9mT6ruAM6GPiudvHkWEO47FfjuQXf93ot/1VM8zM+d+VlJTXAhAcqOOtByYyNiOaO68azB9e2tpo/3uuGUpUWCD5pXb+55nv2Zvle+3nDY7hwZtGdPnr6y6hel/mae9Ef7h+tNrYxaPVWo2GiPDItu2ra7yk5/rvVrF563eMHT2esWMnMnrUeEYMP4dde7ayadM3WK2nNtGv/01weCS5F0IIcfZpd4Kfk3sEvT6QwYNHMvuCSykuzkdVVeLjktHp9Py4dzuHM/edilh7tF9cPJvQ4CBWbNrGX9/+uOFxt8fD8x9+yZwJY4mPjCDDnNwowU9Ligdg16GsRsk9wNptu7DaazAagkmNi/Wb4NdPrFSV9o/gqyqMumlxq/vptAo/Oy8JgPtf2d6Q3AMczLNw9z+3sPRvM5kyIh5jiB5rtavZc7y74khDcg9Q43Dz4if7ePvByUwfndBoX61GYeY5vscefWNnQ3IPsOmnUj5em8WfFo7sstfXnTR100HVTqzNXt9So3RtJltVVclTT9/f4faO2ho2bPyaLVs3MHrUeMadM4nRI89j5PBz2LV7G5s2rWs0j6erKMCFyb7P2g/HZEUvIYQQZ58O1QWUlBZhzA+jX3oG5tT+DY9nZx+kqDivy4I7k0wf60s4P1j1TbNtHq+X8ior8ZEROF2Nh2rTEn0J/lcbt/h9XqUucbfXOroy3HaJNAUSEqRDVVV2Hipvtv1AThU1DjfBgToSow0cqG4+Orsvq/ljh/N9ddkRxgD0OgWXW210PIDNfurtf9h3rNljoudyOh1s+mEd27ZvYNSo8zhnzCRGjRzH8GFjefGfT+Co7fwVlrcmHf9chum9aBWVDSWBPL+v+yb6CiGEEN2l3Ql+Qnwfxp83DY/Hw5Yt31Fcko/X6yU2NomRI84lJaUfW7Z+S25e5qmIt0eKCTcRE27C4/Wy+3C2332iw3zzEwpLGyen5roE/6fs3GZtTCEGQoN9K6vklrRtYumpEKA7vtjS63+c6HcfnVbr21frf2EmfzeZcpwwK1ijaADfz4F633N4vCo2P7UrlZaeW1MvWuZyudi8eT15eVnMnXMZ0dFxaDpw5cmfPobGn5OSWg0ltVpq3LJMphBCiLNPuxJ8rVbH2NET0Wp1bNy0huLi46Um+fmZ1NitTJ82j9GjJnK0pBCHo/Ykz9Z7pCf5ykkKSo7hcjdPSEODg4iNDAcgq/D4RMRIk5GwEANeVSWnqKRZu/ryndJKC9Zq/5NX1dNYX6woChOGxZ6+A54FuvLtU9WencwmJ5mZMGEaaWbfVb/Cojzcrq6ZjD9jpe9zqQDhAV5uHWDjkhQ7gVovz+41dckxhBBCiDNFuxL88PAogoINuFyORsl9vbLyUmw2K6GhJqKj4ykoyO6qOHu09LpR+CMFRX63963rAJSUV2KrqW3WruhYOU5X87r1tLoJuJktPC9AbV2zQH37J9m2l8erMuDqz07pMc42Do/vakWQtuOpfpDv4gk1nq59/zuzis6J0tL6M+G8aSQnmwEoLMxlw8avycw62FWhNlCBCqeGd46EcEFiLVNiHTy7t8sPI4QQQvRo7Urwg4N8S7a4PS3fPKZ+eczAwN4xuU1RFBRFwett+TUnx8UAcLTC/8ogowb2A+CnrMZlOGlJJ0/g0+o6BpmFxS0eu8Lm+x57CgcpnW7fa9dqFIwGPVZ7885IV3K4fMfTKBCo1zYq5QEIDur4kpI9TbnTl5THBHV8icvYYF/bcke771t3Up1ZRUdBoV//QUw473zi45MByM/PZsP3X5OdfbhL4/Sn/g62oXpZJlMIIcTZp12Zkq3aAvgS/TBTBFVNbnZlMIRiNPpKUWxWSxeF2H2GDRnNrFkXo2gU1q5dxvYd3/vdL0DvO43hIYZm24IDA7h0mq9ufc3WnY22pSX4RvBPLNs5Uf0If3ZBywn+/kIFUBlmPulL6ZRyiwO7w4MhUMv4obGs3Nz46o2iQEpsCCgK+SXVnb5r7InHG2wOY0eTib2DzeGdev6e5IDFlxgPi+h4qcrwCF+Ha19V13Z8OrOKzs0L7yA62teBzcvPZsOGNeTkHunK8E4qROvrJMoymUIIIc5G7Rryq6wsp7LSl2ydO24qocawhm0GQyjjz5uORqPBZq3iWFnLSemZYurUOej1enRaHedPnd2wok1Th/MKAZgxbhQzx41q2C8lPpYX7r4Nc0IsB/MKWLqh8Uo56XU19i2N0NevkX+yEfztRxTsDugTpTI89dRkMm6PyrJN+QA8cvMIzh0c3bAtOiyIJ28by9cvzuGlu87rdHIPvlKgNVt95/SBG4djCjl+d9bosCBuvah/S027xPBhY7n3nr9w7z1/YdbM+af0WNvLArC7FfoY3A13tW2PdKObQWEu3KrC5h60JGR0dBw5uZks+uA13l/06mlN7gFC6u4vYHNpT+txhRBCiJ6g3UN+P2xex9QpcwgLi2TOrEuw2iyoqooxNAyNRoPDUcvGH9bi7QXDZh6v+4R/e1ucEbl4/SYWzD6f9MR4/u93v6TG4cThdBJuDAUgt7iEO555GbencRmGue4utv5G8HVaLYmxUcDJa/DtDliyVeHKiSq3X6jy238rOE5BBc2T7+5hdP9I0hKNvP/IVKx2FzW1HmIiAlEUhbIqB/f+a2vrT9RGT7/3IxOHxTJqQBSr/34BP9QtlzlhaCz//Gw/g8zhaDWnZs6B2dwXAFVV2brd/1WbrmJ3KyzJD+ZKs53bM2z8dnMEjjbW0us0KncO8i01urIwkApn15bodMZ7i14lPz+7245ffwOx6i6elyCEEEKcCdqdEVislaxc9Tn79u/CYq0ixBCKMdREdbWVAwf3sGLV51RVNV8r/Uy0es0SbDYrdns1q1cvRm0hw69xOLnx0Wf5z7KvyS85hk6rJUCv56esXP7+wRdc/se/UHisrFGbwIAAEqJ89c1Zfkbo0xLi0Go0WO01lFaevNzp7bUKhRUKfeNV/nyNl9CgDr7gkyi3OPj5/V/z4if7OZRnIUCvwRCs43C+lX99foB5965udEOqzio4ZufS+79myYY8dFoN00cn0DfRyP99sJfXlxzqsuM0paCQmuKbM5GZdZCK8lO/5v47R0IorNGSbnTz+MgqQttwR9ogrcpDwywMCXdR5tDy74OhpzzO9ujO5B5A38U3/RJCCCHOJEpCXD/5n7AXSIyC5xd6iTKplNvg440KK3ZoqKzu7sjOLLGxCSy88XYAPvz4jdMyIRQg0eDh72MriQryUO7Q8ElOMCsKg6lsMiofole5IKGGq8x2YoK8WFwa7t4aTqa190w87gpJBg/vTCrDq8JDO8LY1IPKl4QQQohTTWsMjXyku4MQnWetgdW7FVKiYUAijO0LOaVwuFhKFNpj6OBRmM39OVZWwtq1X52241pdGlYXBdEnxMMAk5sxUS5ybVoOWxuvTjM2ysl9w6yE6FR2lOu5b3sEBXapM2/K6tKQbPDQ1+hmRoKDi/rUMDe5llVFQbi88jshhBCid5Nhv16kwgYPvKdhaArMHaNic3R3RGeeVLOvPGfbto2n/dgVTg0P7ghjSLiLucm12DzNK+hqPRrWFAWxrCCYHeV6P88i6v1tr5EjVi1T4x0kB3voY3Cj49TfL0IIIYToblKiI0QdrVbHnXc8hNvt5p//egqXu/2r2gghhBBCdDdJ8IUQQgghhOhFes66ekIIIYQQQohOkwRfCCGEEEKIXkQSfCGEEEIIIXoRSfCFEEIIIYToRSTBF+Isp9NpGT44hT6J0d0dihBnrAAdTB6sMjCxuyMRQpwoNUZl2jCVoID2rSkTHxPOqGHpBAScmSvKn5lRCyG6xLhR/Zg7YzRhJgOLPv+OvMJj3R2SEGecOaO83DxDJdoEf/tc4UChjJ0J0VMkRsJDV3ipqIZ31mpYvEVBbUOuHxUZyg1XTMFaXcvKtTvZsGV/m9r1FHInWyHOQlqNwrWXTuGC80cQoNeya282W3dlUm2Xu6MJ0VZajcofL1W5/nyVQD18u1dh1S6FKnvvuZla/wEDeeCBR7ho/qUUFORz9Ghxd4ckRLu4PAqmYMhIggkZKv0T4Lt9Ch7vydu5PV4MwQGkJEUzJKMPyQlR7N6Xi9d7ZmT5HVoHX6NRMJsHYE4dQJgpAkUBq9VCXn4Wh4/sxe12n4pYxVnkobHTuaLf0GaP7yor5vpVH3VDRP49dPM1XDFjUrPHdx3O4vqHn+6GiNpmwaWTGDeyH2UVVt5Y9DWFxRXdHZJfCy6Yxh9vvIKvt+7izudeOem+t1w0mzuuurjZ4y63h+KyclZv2clrXy7Haq9p2Hamvn8d1Z7z2VH3L7yaq2dOAeA3T/+T9Tt/bLT9jisv4paL5/Cvz5byr0+XnpIYTpd7L/Uye6RKYYXCw4sUjhS3nNhfccUC7rrrXpYvX8qjjz5wymPrquO98eZ7DMoYAsCSJV/wxBOPtPnY337zNffed1eHj92WY7Tn9f3hDw9yySWXN3v8xx9388tf3tDVIQJwww2/4Lbbbm/2uNvtpri4iHXr1vD2269hs9m6Nc7udDo+LwDJ0fD4Ai+pMSob9is89H7brrTFRIdx84JpxMeE8+P+XF5//+tTFmNXavd1RI1Gy6RJsxkzaiJRkTF4vG68XpXw8EiGDR3D9GnzCQwMPhWxirNIRGAQZbX2hq9ajwuAbEt5N0fWWIQxhLIqS8NXrdN399vsgp47yjViSCrjRvaj2u7gpTdX9NjkHiAtKQ6ArMLWz6c50bdvhdVG3tHShi+ny0WfuBgWzpvFaw/8Dp1W29DmTHz/OqM957PDx5hXLXsAACAASURBVEiIa/j36IF9m203J8QDkHmGn+MpQ1Rmj1SpssPdb2pOmtwDpJrTAMjOzjod4ZFmTgcgJye7U89z5PAhPB4PhYUFfPpJ2wZX6l9rZ499Mh15feHhEZSXlzV81dbW1D3HqXtPUlPNAFRWVpCfn9fw5XQ6SU7uw3XX3cQ//vFvdDp9t8bZnU7H5wUg/xj8/g0NpRaYmKEyd0zbxrdLj1Xx0hvLqbJUMzQjhfPGDDilcXaVdtfgjxh+DnExidTW2tmy7TuKi/MBiI6KY9y4qYSZIhh3zmTWf7eyy4MVZ4+7NnzV6Ocnx89mbupAMqt6VoJ/1/P/bvTzk79ZyNwJ55BZUNRNEbVuzvRRACxZtY2KSlsre3ev+mQxu/Bo6/smJgDw+Ovvs3rLzobHFUVhzvgx/OW2mxhkTuGS88fz8ZrvgDPz/euM9pzPjkpPjMfhdFJlszM2o3/zGOo7GUVndoK/cLovOfj3Kg1HK1vf35xan+Bnnsqwjh8vrT4B7tzxnnjikTaN2p8oNcUMQPYpTNg68vruv//uRj8/+uhfueCCn5GddereE3Nd8vrUU4+zbt3xkV9FUZg5czYPP/wEAwcOYt78i/ni80+6Lc7udDo+L/Uqq+GfX2l4+GovN07zsnyHFm8rpToAtupaPv9qMzddPY0500awecehHl+q064RfL0+gPS0DAA2b13fkNwDHCs7yqZNX6OqKvFxyRhDTV0bqTirpZsiAcjsYSP4TaUn1o1OnsIR0s5ITY4mPiYce42TrTuPdHc4rapPSNuSDJoTYn37NkleVVVl2catrNu2G4CxGS2PvvT096+z2nM+OyIkOJCYiDAqbXZyS0oZ3DeVwICAhu1ajYaU+Fi8qkpOUekpieF0GJSskhqjYq1RWLWzbfX2ZvPpTfDT6hPg7OzTcrwT1Sdsp3LEuSte3/FO16mLM6XhXGQ3elxVVVatWs5369cBMHrk2Baf43TE2Z1Ox+flROv3KZRUQYwJxvRte5K+e18uFVU2wkwhDOjb85fLatcIfmRkNBqNhtpaO0ePFjTbXl5xDKutCpMxnKioWKw2S5cF2tsF63Rc038ks1L6YTZGoNdoyLZU8GnmXj44tBtvC1O3Y4JDuH7AKKYkpZEUYkRFJcdSyeLs/bx/cBcetXHXNMUYzpILbyDbWslly/7DjRljmGfOIDnUSJXDybKcA7y453scHv/zKIZFxnHdwFEMjYwlPsQIKBTaqlhTkMkbP23D4qrtkjhPpKBgNoUDkGlpWzlJgsHIDRmjmJhgJjEkFK+qkmWp4PPMfXx0uOXz2RmKojSUiWS2cYQ0JiKM6+dMZ8roYSRFR6ICOUUlLF6/ifdXrMPTwtDC1FFDueHCmQxJS8Xj8bDzUCbP/OdTjCHB/OfRP7RYQ9431ZfAHsoqxO3xtPm1dfR4CVGR3DB3BhNHDCExOsL3PhQW8/k3m/ho1TfN3ocPn7iPQeaUZs/zn0f/0OyxGb/9I6UVVQDEhJswGoLxeL3kFJf4fQ3FZb7PjkbrPyHryPs3acQQFs6fxbC+ZmqdLjbt2cdf3v6I2y6dy4ILzuehl9/hy/WbGvZPiY9lybOPkF1UwmX3Pc6NF85i3qRxJMdEUVVdw7KNW3jx4//iqCsVaup0nc96w/qmct2cGQxNTyU+OgIUhcKSY6zZuos3/rsSS7W90f5pCb6rKEfLK8k/WsrYjP4M72tmy76DACTHxaDXaikoLfP7Gtt7Pt986C5iI8J48p2P+cN1lxEbGcGS7zbz17c/4J7rr2DexHFUWmz88V9vsvtwdqfPZ70Rqb7Ht2eBqw2/RqFGI1FR0bhcTgoLC7nyqmu46KJLSU5Kxmq1sWrVMl555SUcDv9/P8ePn8R1193E4MFDcDicbNn8Pc8++yS/uOXXXH751Tz++J/46qvFDfuHmcIID4/A5XKSX5DPVVddy/yLLiE5KRmbzcbq1St5+eUXG0o/TnTxxZdx330PNXv80MED3HDjVX7je+utRQwcOKjZ46+99m6zx+ZfNItjpY07d6fz9dVTFIWU1FSg7Z2uuLgEFiy4nvHjJxIfH4/X6yUnJ5slS77ks88+wtvk73V0dDShoaF4PB7y8vL8PmfxUd/fGkXrf7y1I3G293wm90nh448Wk5ubw7XXXsa1197EnDkXkpiYiMVibfXz2d7z0tnPy+DBQ7n6qusYNHgwcXHxKIpCUWEh6775mnfffROr9eS5p1eFrYcV5o5RGWlW2XKobZ10VVU5cLiQ88YMoJ85nv2HmufBTZnN/Zn7s0vRKFpWrvqSg4f2tulYXaFdCb5eHwSAvaa6xX1q7HZMxnA0GlmBs60SDSZenfZzUoy+JLbSUYuCQv/waO4bPZVR0Qncs3F5s3bjYpN5btKFGAMCUVEpq7UTHmBgYEQM90TEkBEewwM/NC6VSjNGAJBrreTFyfOJDDKw5Wg+h6uCmJbUlxsyRhEXEso9G5Y1O96NGaO5e6RvQmKtx0VJTTWBWi2ppghuNo1hUkIqV6/8AHeTX+aOxHmihJBQgrR6nF43BdWtdxonJZh5ZuLPMOj0uLweiqqtRAYZGBQRy6AxsQwIj+KxLV0/SSYhOoKggACcLhcFJa0vNzlu8ACeu/NWjCEGVFWlrMpCuNHIwNRk7km9nIzUPjzw8tvN2tVPUgRwOJ0cq7Rx3tAMXr3/d/zrM9+kxaaj2PUiI4wAHC1te+e7o8ebNGIIz9xxC4agQFxuN0XHyokMMzHInMIgcwoD+iTy2OvvN2pjNBgoq/LFptfpMIUYcHu8VNkalxLZaxyNktH0JF9iWVhS1mLHJa1+dD7f/+h1e9+/hRfO5PfXXApAjcOJtdrOrHNHo2gUQoN8fyuzixqfl7S6DkTu0RJevPs2Ik1Gtvx0kMPGUKaNGcENc2cQFxXOPS+83ux4p/N8Atx44Uzurnt9tU4nJRVVBOp1pCbEcfP8C5g0cghXP/Bko/OdnuQ7xwUlx9if47vCOzqjb0OCX3+FxN8cgI6ez+KyCiaNGMybS1fzm8vmccWMSXhUL9mFxXz69XfcNG8Wv19wKQsf/79On896cb4/o+SWtnX03jfafOjwQe6990EuuGAOObk5WC1WomNiWLDgemJi43joweYdr+uuvZHf/Pb3vvNSU4PVamHa9Fmg0RBqCPHFkZvd+LzUjW4fOLCf++9/mBkzZlNcXIjH6yUqKpqrrrqG6JgYHnzgnmbHi4mJpry8rOHn4GADwcHBJx1dDQ01NrTR6/UYjSbcbg8WS+PaJbu9ulmydrpfX734+ASCgoJxOh0UFhW2uF+98eMn8ecn/oYh2IDL5aS4uJjIyCgGDhzEwIGD6Nu3H0899edGbcypvjiLigpwu11+n7fhyk4L5TftjbMj57P+CkFefi7PPP0CERGRbN++hSOZEUydMu2kn8+OnJfOfF6uueYGbr/dNxG3traG0tJSAgMD6ZOSyvXXL2T8hEksvOmaFs93vay6caD4iJPu1kxxiS/GyIjQNu0/berPMIaGATB9+tyem+A7nb7eW2hIWIv7hIT4XrS9pmfX9vYUeo2GF6bMI8UYzsaiHJ7Yto48WxUKCvPMA3ns3JnMThnAF1n72FCU09Au3mDk75PnEaoPYNGhXby0+wcsrlp0Gg13DJvATYNGMz8tg7cObOdQ5fFkJd3k+zSPjU3ilR838+b+bQ3bpiWl8/zkeczu05+nDd9SYj/eketjDOf3Iybi8np5bMsalmQfaBh1HxIZxyvTLmZAeDTj41JYX5Td6ThPlG6KAiDHUtnqyHtSiIlnJ84lWKfjH3u+5619O3B63SgoXDtwBH8YNYXL+w7l9Z+2tqmz0B7pdTXgOUVHW40zPjKCv9/1a0KDg1i0ci0vfbIUS7UdnVbLHVdexE3zZjF/8rm8tXQ1h/KOjxJMHT2MWy6eg8fr5Zn3PuXDVd/g9ngJCgjgz7++gevmTAcgu4USk+BgX7mEo9b/CHFTHT1eUkwUz/7ulwQHBvCPjxfz1tI1OF0uFEXh2jnT+MN1l3P59Em8vngFBaXHk4m5v/9Tw78vnnIej//qBrbtP8gv//LCSeNsKD0p9t+x6Z+cyDmDfaU5a7bt9LtPe96/EQPSuXPBJbg9Xp565yM+XrMer6oSHxnBP/73f4iN9P2NzGySkKbXxTk2oz+vfP4Vby5Z1bBt2pgRPH/Xr5h97hiejvyUkvLj/9md7vPZJz6G3y+4BJfbw2Ovv8eS7zY3XE0akpbKK3+8nQF9khg/bFCjVXLqr4BkFRWz+1A2AGMy+gO+AYP6Dk7TDmFHzqcxxECkyUiNw8mT73yMqqqkxseycN4sMguK+WDlOgCunDmFuMjwRsfr6PlsOHbdOhI1tSrQepJfn0BFRUVTWFjIhRfObBhlvPnmW/nlL/+HmTMu4IXnn6G09PgVqGHDRvA/v7kTt9vDc889yRdffIrX6yU2Np5nn3mB6FhfWVp2k+TbnO6b3BwXG09BQT5z507DarWgKAo33/wrbrnl18yYPot/JiZRWNh4FPK1117htdeOr7B0//0PM3/+JeTktpzgX375vIZ/X3jhRTz44GPs3LmV22//1UnPS3e8vobnqOt05eXmNBthbioxMYknnnia4OBgXn31Jd577x2cTgeKonDllddw55338POfX867777Z6Hj1E2xzcnP8Pm/f9H6MGXMOAN9863/QqT1xdvh81sU5atQY3nzjVf7zn7catk2eMo2/PfWc389nR89LRz8vycl9+M1v7sTtdvPkk4+xfPlS/r+98w6Pq7r29jtd0mhGXVYvlhsuuAIGG4ydAEFAEoi5xEA+wL60hJBCvocv4YY0AhcuKU4gBUhMCFyH5mCBu8EFXMBFlptsSZZk9TLqI400mvL9ceaMpkozI1k2Zr/P48f2aXufffacs/bav7W23eVguGTaDFb/4c9MKpjM5ZctZO++j4e9Vm+/AnBiDDMnjMX17dRH60I6fsA6NOthDTIDcq4IS4Pf0WHC4XCg1WrJyZ7otz9tQhaxsUYcDjsm08WpYR1rvpw9iSnxyZzpbud7n2yg1ix50Zw4eb/6FJvOSp6vq9K8p9lXXbKAWI2WLTVlPHNol1saY3M4WH10L019PQBMi/denTTfpWUvMTV6GfcAO+or6bFKedBzY72HtUsy8lAqFOxuqGJ9VamXpOZEezN3bn2LFVvf5Gib93OPtJ6eFMSFrr+/d9p8otVq1paX8NKJA1gdktTIiZPXTx+hqkeSaUxNSBnxWuFSkCUZiKHIO1Z97QZio6PYsv8Qz/zjbbfUwWa3s/rN9TS1S/Wclpfldd4DXy8E4JX1W3hj8w5srkS+/VYrz772FpNcdQjmwVe6bBFniGm6Iy3v3puvI1qnZe3Wnbz03masg5I3xel08vqmj6hyGWpTc73vz5M8t148sOTGEzlwM1Dw6LypBax+7CE0ahVb9h+i7GzgD344z+/uG5aiUCh46b2NvLl9t3tA0NTewTs79xBviKWtq5seXwmLy8NdUl7lZdwD7DhU4k7hmTsh1WvfeLfnkrmzpN978THW797vJRU7UXWWO598jhX/9SxHK7wNBfdAq76ZU2dr6LdamT15ImqX/EC+f18PfiTtKc/I7Dx0FKfr+ASD5KE8cOI0IM1aROm0dPR4zzqPtj2Hfkfh6e/NZjO/+PkTXhKC115bg8UiPffsbO/3/B3/cScKhYJXX32Jdevedht4LS1NrC9aR3xcPO3tbZh7erzOy8+TDOBWUwu/+tVP3eU5nU7WrHmJ1hapD0ws8A+C9iXXNTipClHr7tZTBzFqL5T7k2cBQtG133XXPURHR/POO/9izZqXsbq+k06nkzfffMOtr580earXeXJ2mJoAwaNzZs/l2ed+j1qt5sPtW6goLxt1PSNtT7mex48d9TLuAT7evcOdwtO3f0baLl5lh9FfFi26BqVSyZ5PdrFhQ5HbuAcoPXWClavuZuV9d3HixNERrwXSO0OpiEyuG+JPn01b1lF6+hhl5Sd4f8M7EZUVKWF58AcHrVRWn2bSxEuYP28xGq2W+voanE4n6elZzJl1BQB19WdFLvwQWZop/Xj/XXkioO79haP7efvMcUz93obCsizpBfevcv+ObHc6aB+wkBZjwOoz4s93efA3ng38MlG4em2fz/SWQSONVvVqLUqFws/DWdMTOI1EpPX0RJ51CEV/f01mHgDvnAk8Ddbvuq/+IDEGoyGcAM1lC+YA8K9tu/z22R0O2rt6SEtMwDo4VM9Eo4FZBZIW852P/L0T7d1Ds2ZVDaPPAjOa8q6ZK61h8M6OPQGv3T8gfQj6rcGnUfPcGV9CCbCVjPOvXrOQpfMvdW+PN8RiiJFcNAdKy/jZy68HvUaoz0+tUrFo9gycTifvBri/nl7JmKxq9B8oyEbpxr0HAl7b/fvr915wbLzbU24zfXRU4N97kDgH2YCvbGzCZndwtKKay6dP4ZK8bI6dOUu+O0XmUH+JtD0numYDznhcKz89zSsOIy99AkqF4pz0z3CQM75s3FDkJx2w2Qaxu76XFo81GtRqDQuvXIzT6WR90Tq/a8pGbaDUgvKAoqjo315GEIDD4aDb3E1KauqIMgYYMvBDDYDMyZHeGTUjHH++788tjQkhC8+iRVcD8N56/3oCbq2/r0ZdbrvCwq9y9dXXurfHxycQGyupHQ4fPsjTT/981PUcVXu66rl1q780F4beS579EyJvF09C7S8ABoPUZjH6WJRKpd+MRl1tzYjXGG862k0UFa09L2WHLZQ/duwAccYEUpLTmDfnKubNuQqQHqTdYUcDnC4LZfQkALgkXvIkH2kNrK1r6Oumoc9bSpISHUNKdAx2p4OjbYG9jcm6GOl8s7euNs/lwT/Z4f+BNmqiiNVIEo4as7fBvqephodmXs7CtGw+uOkejpgaqO7p4ExXOwdb6umy+v+AR1NPT9wZdEZIkWnURJEeI2nMH511JQ78R+byAKc2yIBkNEwcQeMtkxJvJCXeiN3hCBj4B5AcJ2Whamgdki1Ny8sGoLGtneZ2//onxkn3PmizUxeChnwkIi3PqI8hPUl6Zo/e/lUcAQKoZUO3tjl4JhW3tzeAoeyLrP2Oj9UTH6t3bzdb+ik+XcF7u/ezfte+YaU3oT6/SdkZxEZH0dDa7qdbB0l+BZIX25c8Vxknq/0/REZ9DLHRkta8pqXVa/t4t+eeo6U8dGshC2dO44Pf/oIjZZVUNzZxpr6Jg6XldJn947DUKiXZqSmuDDnS++VIWSWXT5/CvGmTJQM/gEQn0vbMz5Rnj4aeV27GBK84DLk8z5mdsWrPcJANqCNHDvvti4mORu8y9mrrh/rFxIIC9Ho9jY0NfjpkgNRUqY6BPLtyjvji4oMB65OcJH13GurrAu6XiTPGERcXh9PppLYmNOMp11X2SCkPz/f9uTPTVA1vWBoMRiZMkPraQw9+B2cAZ5Qsxan3MTDz8qUy4uKkdpTp7e2lpKSYDRuK2LBh/bDSm1DrOZr2zHGVcep0qd8+g8GIXi+9Uz3752jaxeuYEPsLwP5P97Ny5UNcdtkVvPVWEceOlVBTU01l5RmOFB+iqzu4HfFFJGwD32azsWv3ZnJzJpKenoNWq8Ns7mZw0MrUKbOorauks/PCTmV4oaBWKsmMDS87DAxp0uvN3Qw6/AMKYzVaUmOkD4YsSQFIjIohTquTPsDd/gZbfpz0IW219LmlOjJHTY08vncL3730SrJj48jySIM66HCwpvQQLxzbNyb1DFavymGO8TwOYElmftDjBuyhBeuGi9t7OYKHVA4IrW8xMRhgpis2OopUl2bY0xByp4EMYDjCkKyjtqXVLaXxxTmCttyTSMuT2wEkDX8wBqzWoMGsKqWS7AnSR/psw/CSkmidltQE6eN57cOP097dM+zxwQj5+bk9/YFnSYYMae/rJBoNxOljvAzgQOe1dvpIUca5PQGOllfy+Itr+O7tt5A9IYWs1CEJ3aDNzpoPtvHC20Ve52SlJqNRq6hrMbklL4dPVwCSTGrjns8wxETT1dtHR8/Q7E+k7SnHM8i/kQRDLPGxekrKhwyYfHdWpKFzx6I9w0nCpdXqSE+XUuoF8oLn5k5EoVBgMpm8pBMj5c2XPbu+19Tr9W7vdX0AAzchIZG4uLig+73KcM08NDU1DuuFlVGpVGRlSbKmmrPDSy7O9/3J91Y1gvRFrgfA4sVLgh43MNDvFQQbHR1NSrL0jiwsXEZHR2R2Ucj1jLA9ExISMRqNOBwOagPIZOTz/PpnhO3iSTj9BeD4sRKe/NmPefCB75CVlU1m5pCEzmaz8c9/ruGll14c8TqeOEPVq47ReeNJRKlunE4H1WcrqD4rvbxj9Qau+/KtOBx2jh4LPKIW+JNnSECtVNDSZ8Y8GFrQIwxJVs4E0aQXuDzevted6Mqg09jX49ame5LvlsL4B5UBbK4pY3NNGakxegqMieQZErkmI49F6bk8MOMyjrU1squhetT19CQpKgajJgqH00n1CIMg2dO/vbbCb6Gsc01SnBGjy3jzzfThi2zQnAmymFKBawDQ0t6J2TL0Uc1IlgZMwQzYGS45TdUwK4RaXTn9tBpV0GNGW558f9s/K/ZbSCpUMlOT0ahUDFitNLYN/2HMz5DSpHX19kVs3If1/FzP50xdEIM0w9+zDEPt0mhqdxvAXue5DFbfRbbGuz1lNu87yOZ9B0lNjKcgM4289HSumTOdRbNn8MDXv8Kxikp2FQ8F2Aa676PllTicTuZOKXB7xX1XCR5Ne3o+c/fsgKdkRx48eGwbi/bsdz0+nWbkINuc3FyUSiUtrc309vrPfMheXl/DTA6urAqSXcVtsPlmRHGdV1Nb4ydfgSFNd7D9ga51NsT86+kZmajVGgYG+mluHl4meD7vLzExCYNBMmprRtB+y+Xt2PGh3wJUw5Gbk49CoaC7uzti4z6SeobfntL2pqZGt4bek9wgA4dI28WTcPqLzPZtm9m+bTMpKank508kNzefq65czMIrF3Hfffdz8sQxPtmze8TrRGmkIFtL6KYXAFqNZDYPjJF871wSVpBtMBYsuBq1Ws2p00fp6xPZc0IlUy9JHFr6A6cdNWh1zE3J4JIE74C7LFfKpeYgmYrmpkjeIl8ZjtsTHsTgzncvJjW8Id3S18u+plrWlpfw8K717HYZ9dMTJ3gdF2k9PZEHAfXmroCzAJ5ku8ozDfQNe1woKBQKlMrQfx4FcnrA5sBeeU+yXJ7U5gByBIC5UycBcLLKe1pTo5aM8kSjf3oujVrN15dcCQwvwegxS5rIeKM+6DGjLU/2FJsiNLYB8l2zBzVNLSPOOrgNuyAGYiiE8/yyXd7slg7/WTCdVusReOxtkMqBwMFWyZUlJ74zCOPdnr60tHey79gp1m7dwcPPvchuV9ac6fm53mUEkN+YLf1U1DQQb4jl0smSQeB3fxG0p1qlIiM1yWuw4B4IePTH/IwJfhKysWjPDtcrLTWE9RxlQyiYxGJIY+29PytTksh5Zi2R0emiyM+X4pt8jW+5vPa2wI6amTNnA3DsaOBsUp64s8CEuMJonitgsq62ZsR+dj7vTx4ENDTUMTiCc032MLd3BC4vGLl5ecDoFjYLq54Rtmeuu/8FrmdusP4ZYbt4Ek5/8aW1tYXPPtvP22+v5Qc//A579kpxYlOnTQ/p/FRXYq12c3ie+IR46XvYYx7fjDiRMOpk9ZMnTSclOQ2zuYfSU0J7Hw4KhWRAxmujUaDA6aMZf3TWVdwxeRavlh6m1MMI1rrWGIjXRvldM1qt5rYCKYDswzrvlUrzDZKxXNUV2ICXPe7VPgOA+SkZJEbFcLytmcY+/4+iHE1u8hmoRFpPT7IMktHeEKBcX3QqySBN0AXOe5Uao0en0mCymLEMY8TNmjGP6677Ggqlgh07NnG4eF/QY931dBkNDSF4R2UPQLw+xm9ftE7LbUsXAfDhQe8PVKXLmFk46xK+cuUCNu+TZsuS4408ce830Wk0QOBMMjI1DdLLeGJeWtBjRluevF3OaOJLamI8Oq0GU0cXloHAH61clzf7bNPIGuixWH02nOcXrZPiVPTR/v268KoFROu0kqfc5P07kwNMg2U4mhjEwz3e7Tl/2iQSjQaOnzkb0Nsvfw5NXd4D1GASp8PlZ5iSm8l0V0yH7/1H0p556amolEov2U6gAUZu2gQ/CdlYtOepBsn7Nysv4G4vZOlEMM+qrCc/67M/ytUesv7Zk+uvv5Ho6GgGBvppavIeMMpGYXxcvN95Wq2OwsJbANix88MR6+42UodJkelJthwwGWRRJ0/O5/1luozhpqaR3xlarZRgIi5AeQApKanodDra2kzubEgwNisXh1PPSNszL8fl2Q+SJcnt+ffpn5G2iyfh9Jc5c+aRmJDIiZMnAnr7ZTukrT20+LPZeZK9VTq8Ss2PgjzXu7RuZKkjgCE2jjxX1qceczfV1RXhFTgKRuXBj401MmumtLzykZL9OEbwsAq8OdHehN3pICvWyMMzr0Dj8hgbNDoevVQy7jut/fyzzDswq6Jb6sBfyprEl7MnoXB9cnMM8fzh6lvIM8RT1mliw9nTXue5s9H0BDZiZAmPrwd/xZTZ/GZRIU8tvI6kqCGjVKdSc980aYErq8PGznrvF0Ck9fREHtRPjksiJdrfIPbkVIdkvCzLLHBnJwKIUmm4d9o8ttxyH68u+wZqxfDylCVLvoJGo0GtUnPtkhvcGQSGQ/Y+TM7OICV+eLdeRa2kR/zS5XP58uVz3dfPSUvlD489TF56KmW19WzY451pZcOez2hq70CpUPDcIyvZ/df/YePvfsm2Pz5NVUOTO+NH5TASnfIzDfQPDJKaZKQgd0LQ40ZT3qmz0st62fw5LJ0/2709Sqvl3puuY8vqp3j1v36IWhX8OcRESR+PlMR4NOrhABxF9wAAEXZJREFU/RD5Y2Dgh/P85Awty5cudsupAK6ZM5MHb70RgA5zr59HauIIGn9ZU+67f7zbc8X11/Kb793PUw//H5LihtpCp9Vy383XsXj2DKyDg+w85O3QCTaAKXbp8OWUk74ZbSJpzyHpjbe3Xrq+1H5piQnEROn8gqbHoj0Pn1HQNwDZSU4uzR3e8yhrqIN5SN0efh/Paq0rMPFrX/2G26gFWHTV1axceT8AnV2dfv1MLs8YH8etty13b09MTOKpp54lNzePijPlHDzw6bD1BklmAqFLdGJipHd0SkoKGlfChmCcz/uTr1lQMInk5OApmgHKyk4BcO2SZVx9zVL39qioaO666x7+/e9N/PlPf0fl019yc0NPbzkW9Yy4Pd0DkSAzTK5ZHN/9kbaLJ+H0l+W3r+DXTz/Pk0/+isTEJPd2nS6Ku+++lysXLsZqHeCTj3cOex2AgjQnl2Q5sdnh0xBXsQXISEsgNysFu91BaQir2ALMmDGXwhuXU3jjcpKTUkc+YQyJ2IOvUCi4fP7VqFRq6hvO0tg08ghM4E2rpY+/nzzE/TMu46GZl7Nq+gI6BywkRcWgVCjoHuzngR3/ptXiLTkpqiplxeQ5TDQm8NtFhVhsNgbsNuJ1rgwcPZ08uvsDvxVl81wGflUACY5aqSTDFTjrq8F/o6yEpZkFXJaaxfavrcTU34fd4SAlOhaNUond6eCXB3aMWT092d9Ug9VhIzEqhm1fXUXHwJAnwGKzUfjBq+7/b6op41tT5zItIYXVV99M50A/ndZ+MvUGNEoVzRYzP/h4Az2D/jpDT+we8Ql2h4MAyXj863nsFNbBQRKNBra98AwdHtP/lgGr14JDRR/vZ8UN1zIxI43ffu9+LANWBqxW4l0pwGqaWnj0+b/4rchqtvRz7y9/w2N3foOFM6ehVatp7zbz4jvvs+2zI9x78/UAVDUGl6r0Dwyy7+Bpli6ayW03LWT1yxu8UnGORXmb9h7kW19ZxrS8bFb/8EE6e8x0mvvITElEo1bT3N7JD373kjvneyB2HDrKw7fdxOxJ+ex9+XmvWIQ7f/qcl2c5z23sRW7gh/P83t3xCSuuX0JqYjzvPvtf1LeYiNLp0Efp+OHql/nL44+QlpjA+8//jHU79rBmw3ZXPQMv8gRDkhPpPs5ve76xZSdL58/mskumsP2FpzF1dmN32ElJiEejUmF3OPjl39bS2ukdqC7LgHylScWnpBk6WRrju/hXJO05ZMx76+07e8zuDD+yJMp3QDEW7dk3AB8cVPAfi5x89yYnj7ysYCCIJNdtQFX6z1Sq1RrSM6SBj+8AYP36d1m+/A5SUlN5/fV3aGioJyoqmhh9DD/5yY/4/e/+xITUNN56cz1FRet4/Q1p1Wt5RuBvr/yVH//4Sb790Pfo6u4iPT0DpVKJyWTiiZ/8yE+f/otfPMOCBZd7bUtIkGZ9n37mNzhcx1ssFq+FijzZ/fFOVq16iJkzL2Xbtt1eMQcrV97t5Xkd7/vz5LPP9mO1DpCQkMj69Vvp7Bz6Jvre37ZtW/jmHXczZeo0nnv2d3R2ddLd1UV6ejoajZaW1mZ+/Phj7lzxMkMSncgN/HDqGWl7yvUMFACuVmtIT8+U7sOnf0baLp6E01/efut/WXLNUubNW0BR0Vba2k047HaSk1NQqzXY7XaeffYpTKbhPfhqFXz/Zsnm2HpE4ZbbjYRKpeT2myVZ6oEjFW6560jk5kj9dXDQyrETxaEVNkZE7MGfPGkGSckTsNttHCkZ2RMgCMwfj+3jp59u53h7Mw6ng3hdFDXmLl47VcytG193e6U9sdhs3LP9bV4/fYQ6czdqpRKtSsXJjhZ+X7KH5ZvX+qXW1KnUpLs0/1UBNPj5hgRUCiU91gE/Q724tYEVW//F1tpyWiy9JEfFkKCLoa63i3VnTvCNTW9QVOWfXiuSevrS2NfDyg/f5VBrPb2DVpKiYtx/en0MdZvDwaqP1rHm1GFqezrRa7TE66Io6zRJ5W16g+PtI6cI3P7hB5jNPfT19bJ9e5GfdCpgPdvaWfnU7zh0qoLePgtJcUb3n16Lt1bPMmDlnl/8htc3fURdiwm1SoVWo+FkVQ2//9d7LP/x0zSYAusaG1rbeWz1yyy6/zEWrvoBd//sOTbsOcCsglzUKiX1rW30WoYfwGzZcYS2jh4y0hJYdecyoqOCe04iKc9mt7Pq179nzYbt1Da1oo+JJt6gp6y2Xrq///cUxyurh63j6bN1PPaHVyg7W49SqXS3pVEfQ3P70EdOpVSSm+YyHEeR+z+c51fd2MKD//1HSiqqsNlsGPQxHD9Txbd+/jx7j57kz+s20NNnITd9AoOuwatOq3WnZvQ1gEEKsFUplfT0WfwM5/FsT5A87iue/G+2fnqYlo5OkuONJBgM1LWYWLdjD994/CmKPt7vdU5yvBGDPoZOcy+dPd5fzKb2DvfCbYM2Gw0t3n07kvaU9fbyYEGjVpOenOidMlOeUfAZUIxFewL8Y4eChg4FBWlOnrrTQay/wgiVSkWOa3GggOkJs3NQq1WYzWY/w6Sm5izf+97DHD9+FJttEIPBSOnJYzxw/z18un8vf/vbnzGbzWTn5LrjRnS6KNLS0unvt1BUtI7n/ucpOjraSU1Npc1kYt26t7j33m8GDNicPn0miYlJXn/k2cX4uHj3tr4AgcIy5WWneeKJH1FRXoZSqXSfYzAYaG31fg7jfX+eNDc38u1v/ydHjhymr7fX6559789mG+Q7j/wnr7/xD+rqaojV64mLi6fiTDl/+tNqvnX37ZwsPe51jkqlIjtLkteMRqITTj0jbU851WWgWZrcnFxUqsD9M5J28SWc/lJSUsx9K+/kw4+2YTK1kJSYTFxcAvX19RQVrePuu5ezceP7w5YXpXXy5O12ZuRAW4+Cl7aG5r3XatXcc/sS8nJS6eqx8MHWQyOfhDQoyMyUfv8nS0sY6A9tUDBWKNInTIpsGS+BQHDB8OuH7uGWq69g7bZdPPPqmyMen5xk5Lv33YjRGE232cKuvSf4rLgCc29ogUPhlicQXIxkJMHq+xwkGZ20m+HtvQq2FCvpDG4DCwSCcUYfDTfMdnDHYicpRui2KPjhGiWVI0z6RkdrWTC7gGWLZxJv1NNrGeDFNVtobAotK1JWVh53rXgAgFf/8QLNLYHThZ4rxiSLjkAgOD/EG2J57M7buOXqK+i3WnnNJQcZCVNbN8//pYgTp+swxkZzy/ULmD4la8TzIi1PILgYaWiDB/6iZN9pBYmx8OD1ThZOCS45FAgE48+lOU4eKZSM+8OVcP+LIxv3ABNzUrmt8ArijXrKKxt5/sWikI17GIphaWisHXfjHsYgi45AIBg/Xnni++6Ujhq1GqMrE0+/1cr//cMr1LeGnrKsx2zhlTe2k58zgYXzJ2MJICIey/IEgouRDjM88YaSmTlQON+JeXiFnEAgGGf6rbC9RMGmYiXFYSimrFY7h0oq+bS4gvLK8A307Gwpe07xkfMjYxcGvkDwOUGhUDB7Uh46raSZH7TbqW1uZd+xU/xj43Zqm0dOgRiIqppmqmr8YxPOVXkCwcXI8Ro4XnPhr24pEHzRKK5SUFwV/m+zvKqR8qrIYrtUKjWZmTlY+vsoLT0/KeSFBl8gEAgEAoFAILiIEBp8gUAgEAgEAoHgIkIY+AKBQCAQCAQCwUWEMPAFAoFAIBAIBIKLCGHgCwQCgUAgEAgEFxHCwB8jclOcLJ3lJEorYpYFAoFAIBAIBOcPkSbTh1cXt2MeVNDQp2Jvi46dzbqQzstIhJ/e7qCjF17boaTogAKnsPUFAoFAIBAIBOOMyhCb+PPzXYkLie9O6yElysFEg40laQMkah3sN41s5A/aFRijYVomXDXNyeR0+KRUgV0saigQCAQCgUAgGEcUWRnTnHNnX0F+/lQAWk1N7Ny1cdiTlEoVkydNJzt7IobYOBQKMJu7qa2rprziODabbTzqfs7Qq50sTRvg+9O7UQCr9iZSbQ5tsiMrGX61wkFuipM9pxT89H+FCkogEAgEAoFAMH4or/vS18jPn4rDEZqrWa1Ws/Tam7h01mUkxCfhxInD7iAuLpGZM+axbOktaDXac1ztc0uvTcEHdVGc7tIAMMUY+oClzgQ/+LuS1m5YNM1J4Xyh0xEIBAKBQCAQjB9KgyGO+vqzlJR8GtIJM6bPIzEhGUu/hV27N/Pe+n/y3vuv89HOD+jrMxNnTGD27CvOcbXHh37XmMcepo3e2Qt/2ih57u9Z6kApnPgCgUAgEAgEgnFC+elnO9m7/0MGbdaQTsjLnQxA8ZG9tLQ2uLe3tbVw4NAnAGRn5aNSff7jd41qybLvsynCPvfjUgUtXZBihPkFwosvEAgEAoFAIBgflDW1lSEfrNNFo9VKAactLQ1++02mRhwOByqVGn1M7JhV8nwR4zLwe2zhu+AdTjhYIQ0M5uSFZuDn5U3m2w8/ziPf/glTJs8Iu0yBQCAQCAQCgSAsy1WtUgHgdDoYHBz02+9wOLHZpO0q9effgx+rkTQ6fYPhe/ABqlqkv9MSQjt+6ZIbMcTGodfHsmxZYURlCgQCgUAgEAi+2IxKHa5QKFl05Ze4ZvENKJWqsarTBYPFHplhL9PbL51vjA7t+AFrv/vf1oH+YY4UCAQCgUAgEAgCMyoDPyY6hoyMXCZMyMRojBurOl0wHHLlv78+ox9lRLa+JM1RKkKT6Gzaso7S08coKz/B+xveiaRAgUAgEAgEAsEXnFHpaBQe6WEUiosvVcxfy/Qk6OzcmmOhMMtC16BSttl5eH8i5giCb4ejo91EUdHaMb2mQCAQCAQCgeCLxeiE8k5n4H9fJJhtSk50asmIcZAdY0Ovtrv3qRROYGwNfIFAIBAIBAKBYLSMysDvs/TS1dmOSqWix9w1VnW6YLivwMydE/vY2aTjsQNxtA+oiGQY43SKgYBAIBAIBAKBYHwYlYHvcDjY+uF7Y1WXC45r0wcAWFutp20g/CDiKI0CcGIJbYkBgUAgEAgEAoFg1IQlnLfZJYmKQqFEo9H4X0ypQK2WtttttjGo3vklTi2lybQ5Ijs/NV76u90sPPgCgUAgEAgEgvEhLA/+wIAFq3UArVZHamom9fXVXvuTk9NRKpXY7TbMvT1jWc/zQp9dgV7jRK+OLL5gtmuBq9K60I43xMaRl1cAQI+5m+rqiojKFQgEAoFAIBB8cQk79U312XIA5s5eSEpymnt7UmIKC+YtBqC2thKHwx7w/M8T8gq2sREY+AVpTi7JcmKzw6floXnwZ8yYS+GNyym8cTnJSalhlykQCAQCgUAgEKhvvOF26R+ulWeTElOQtwFUVZ/m1Omj7v+fOHmY5OQJJCakcO2SQmlFW6cTjVYLQFdXO0eOHhjHWzh3yCvY6tXhaXTUKvj+zdI5W48o6DCHdl5uzkQABgetHDtRHFaZAoFAIBAIBAIBgDo21uC1QalU4blNq43y2m+z2dixcyOTJ80gJ3siBoMRUNDV2U5NXRXlFSew2z//+ntPNGHMc0RpnfzkNgczcqCtR8FLW0Pz3qtUSjIzcwA4WVrCQL8lkqoKBAKBQCAQCL7gqN9+9+9hn+Rw2DlddpTTZUdHPvhzyqUJVqbGSQOV2t6RM+joo+GG2Q7uWOwkxQjdFgWP/1NJd4h2enp6DhqNNAtSXPxpxPUWCAQCgUAgEHyxGd1CVxchry5uJ0blJEknxRAcMGk52eWfMciXS3OcPFIoafUPV8Kz65S0dodebm5OPgANjbU0tzSEX3GBQCAQCAQCgQBh4PuRHWPDPKigolvN3lYda6tiQjqv3wrbSxRsKlZSXBlBudlS9pziI8J7LxAIBAKBQCCIHGHg+/ClrZFlrymuUlBcFVm+e5VKTWZmDpb+PkpLL17Zk0AgEAgEAoHg3KNInzApsiTvAoFAIBAIBAKB4IIj7Dz4AoFAIBAIBAKB4MLl/wPkdtUxfYCdtwAAAABJRU5ErkJggg==;" vertex="1" parent="1">
          <mxGeometry x="170" y="820" width="760" height="347" as="geometry" />
        </mxCell>
        <mxCell id="q35H9doEMfjliMhX2mms-2" value="We stream .csv data and chain multiple listener" style="text;html=1;strokeColor=none;fillColor=none;align=center;verticalAlign=middle;whiteSpace=wrap;rounded=0;fontFamily=Comfortaa;fontSource=https%3A%2F%2Ffonts.googleapis.com%2Fcss%3Ffamily%3DComfortaa;fontSize=25;fontStyle=2" vertex="1" parent="1">
          <mxGeometry x="335" y="1200" width="430" height="30" as="geometry" />
        </mxCell>
        <mxCell id="q35H9doEMfjliMhX2mms-3" value="" style="shape=image;verticalLabelPosition=bottom;labelBackgroundColor=default;verticalAlign=top;aspect=fixed;imageAspect=0;image=data:image/png,iVBORw0KGgoAAAANSUhEUgAAArAAAAD6CAYAAABZGHSVAAAABHNCSVQICAgIfAhkiAAAABl0RVh0U29mdHdhcmUAZ25vbWUtc2NyZWVuc2hvdO8Dvz4AAAAtdEVYdENyZWF0aW9uIFRpbWUAVGh1IDMxIE1hciAyMDIyIDA5OjQ2OjI0IEFNICswN9WEvG4AACAASURBVHic7N13eBTV18Dx75b0bHrvgdBCr4ZeBCkiCCIKKooKioq915/Y+2tXLCAWVMCCDem9994JCem9Z7Pt/WOzSza7SUihBM/neXwkM3Pn3p2d3T1z59w7itDgOBNCCCGEEEI0E8qL3QAhhBBCCCHqQwJYIYQQQgjRrEgAK4QQQgghmhUJYIUQQgghRLMiAawQQgghhGhWJIAVQgghhBDNigSwQgghhBCiWZEAVgghhBBCNCsSwAohhBBCiGZFAlghhBBCCNGsSAArhBBCCCGaFQlghRBCCCFEsyIBrBBCCCGEaFYkgBVCXFRKtZLQ9kH4hHtf7KYIIZohTZAH4Z1CUTmrLnZTxAWkvtgNEEL8d0V1C6PdsFa4eruwa+F+8lMKLnaTahQW4M7aj0cAMOi+JZzJKr3ILRJCAHj4udPjxo5oiys4suIEp7Ymg+lit0qcb9IDK4S44JRKBd0ndqTrhA64aJxJ2ZtObvKlG7wCXDcoCoVCweaD2RK8CnEJKUwvJnlnKk5uTnQa244rbu6KUi3hzeXuvPTA+vn5c+edM0hI6ENwcAhKpflEMhgMDBqUgF6vOx/ViiomXTWYp269npXb9/Dge5+flzruHDOc+28Ya7e8vKKC42dSWbBiPb+u3nhe6m5KHzx8N4O6d+L52d/y25pNduv7dW7P9Vf2o2PLGHw0GkrKy9l99CRfLl7CnqMna933hXgfmqPO4+OJ6BJKSW4ZW7/fRWFacZ1lerQN4KdZAwHoNOV3Ssr157uZVgoFjBsQA8CiVYl26/96cyhtY7yZ9voGVu5Mv2DtOlcaDyd2zxnjcN3db29i2dbUC9yiCy/Ez40Nn40CoM2kX9AbmraLbtn/DadFmCdTXlrHhn2ZTbrv/6L6fN5L88vYuXA/R1af4oqbuxDSLpCeN3Ziy3e7L1RzxUXQ5AGsp6cnn302h8jIKHS6CvLz86zr0tPTJHi9QGLDgwE4lXr+fkxjwsx15BUVU1xaBoBSqSTYz5cOLWLo0CKG6JAg/u/H385bG5pCbOXrOJmaYbfumak3csPQAQBU6HTkFRUT4K1hYNcO9Oscz6MffMmKbTV/SV6I96G5CesQRFS3cCpKdWz8cjul+WUXu0l16tUugOgQD4rL9CzZ0vyCPZPJRHZBuc0yH08X1CrFRWqREE2vJLuEDV9uY9B9CYTEBxHdM4LT285c7GaJ86TJA9iJEycTGRnFho3reObpx9Bqy+suJJpcbKg5cEp0EJQ1WR1hoQC89NUPLK8SxDk7OfHs1Bu4dmAfbhs9jB+XriE9N6+m3VxUapWK8KBAwD7IHNs/gRuGDqC0XMsLs79j2dadGE0mQvx8ee/h6bSPjebRm66rPYC9AO9Dc9N2aCsADv57rFkErwDjB8UA8NfGZMq0F67nt6kUl+q5YtpfNst+f30IHVr4XqQWCXF+aIsr2PfnEXpO7kzbK1uQtCMFk1ESYi9HTZ4k0juhLwC//bpQgteLyBI4nUo7jz2woUHmOqoFZxU6Ha998zMlZeUoFQq6tY07b21orJjQINQqJdn5BRSV2OY13jxyCADvzv+Ff7fswGgyfwmm5+bxf/N/ByA80B+Nh3uN+78Q70Nz4hvpjSbIA12ZjuSd9evJNFT5ETJcwB8kD1c1IxPCAVi4+vQFq1eI/7LGfN7TDmRSVlCOq5crgXH+Td00cYlo8h7YFnHm3pXExNpzAy3i4ztw4w030y4+nuDgEBQKBWmpqaxes5Jvv51DUVFhk7bPzcWZyVcNYtgV3YgJDcZJrSIxNZ1Fqzfy49I11iClqqen3siNQwfw1CdzOHYmlWljR9CjbSu8PD04nZbJvL+XO8ydBAj192PKqCvp27k9YQG+GE0mTqWm8+uazfy8zHF9YM67nHrNMDq2jKG8QsfmfYd49ZufmTF+FJOuGsRzn83j93Wbrdv/9MqTtIuJstvPdy8+brfsyvueIivPdsBMfdsZ6OOFxt0Ng9HI6XT7fK8ybQX5xSV4uLmiUtlfJ12o42LRsWU0068dRbc2LVEqlRxMTOLt7xYRFmj+cquePuDm4kzrKHPQsuXAUbv9HUk6w8tz5gNQrtValzfmfWgO59mc5x4myNeb1+ct4PGbryPIz5c/12/ltW9+5LFbrmd0317kFxbz1Kdz2Hs80a6+gBhzj1/WiVyMBqPDNtWkoNh8nLU6A+UVhnqVbYyRCeF4uKo5lVrEziM5DdrH81O7cOvIlhxNLmDM4yvRVXntnm5qbh/dmpEJYUQFe6JQwJmsUlZsT+Pz346QX1xht79dc8fg5e5El6mLuSI+kBnXtqF1lDcGvZFNBzJ5Z/4BjqcUNfg1O9KQdk4YFM0b9/Rg0ZrTvDx3L49MimdojzD8vVzIyi9nyeYU3l94kOLSpuvVjgh059HJHejfORgXJyUnU4v5YvFRthzKqrVckJ8rt46I48ruoYQFuqNSKkjOKGHFjjRmLz5CQbFt+tvL07oxaVis3X7mPdffbpmjPOP61tdYCgVcNzCa64fE0CbKG1dnFanZZazelc4nvxy2SzGxiA72YPrY1vSKDyIswA2VUklqdglbDmYze/FRTqXanmf/90AvrukbybdLTvC/rx3fnXphamemjIxj3Z4MbntlvcNtGvN5N5lMZB7NJrpnBAGxvmQeza5XedE8NGkAGxQYjLubO3q9nrS0untXJk+ewsyZDwNQXl5GVlYWLi4uREZFc8stU+ndpx9Tb5vcZHmzYQH+zH5qJlEh5p7D/KJiFAoFraIieHLKRLq2bsljH35lV87Si+bnpWHOsw+z++gJ1u7aT/uW0bSODGfW9FvQGwz8uX6rTbl+ndvz9v134u7qgk6vJy07Fz9vL9rFRNEuJorWkWHM+uoHu/qmXj2UhyaPB8yBYFFJKcOu6IZCqcDT1RWAxDTbgEvj7k5OgTnYd1Kr8fJwR28wUlBsOzimtExrF7w2pJ0tws3pA6mZOegN9l8u7q4uBPma5/U8nGibg3QhjwvAqD49efnuW1GrlOgMBtKzcukcF8vnT87kuyUrAThZLX1AoTibGxgTEsjpavvNLyrm5+Xr7OpqzPvQHM6z2LBg0nPy6Nc5njl/Lefe60Zz/ZX9MJiM5gvBleu5bfQwHpo0nqkvvWtXp5uvGwBFWSV26+qSU2j+Qcsvsg+UzqcJQ8xBSkN7X7u18eeW4S3QG0w89vEOm+DVV+PMTy8NomWYBoDCUh0mI7QM09ByjIYx/SKZ+OxqUrIdz3pwZfdQ3r63B7mFFRQUawnxc+OqXuEkdAji+mdWNVkQ29h2KoB5z/XDV+PCzqM5+Hg407NdALePbkWv+AAmPrcGra7xFyWh/u788uoQ/L1dAMjMKyfQx5X/e6AXz8zeVWO5ji18mfdcP7w8nNHqDCRllODppqZluIZWkV6M7R/JxOfWkFrl9RWV6WyCPl+NCyqlgsKSCir0thdn2grbvxtSX2MoFPB/9/didN9Ic3t0BgpKKogO8eDWkS0Z3SeCyS+u5fgZ2w6jTi39+OF//XFzUWM0msjO16IzGgkLcGfikBhG941k6ivr2X74bID465okrukbyYiEcGbN2ePw4nlYrzAAFq9PrrHNjf28F2Wav2Pc/dwaVF5c+hoVwDo5ObNq1SZUKtvJg9VqNevX77Dbfty4UaSnmwPbiIhI7r33QfR6Pa+/PoslS/7CUBkItWvbnvc/+JS4lq3o1TOBjZvsA4V6t1Wt4oOH7yYqJIiNew/yytyfSM7IQqFQMLpfL2ZNv4XhCd35be0mNuw5aFO2RVgIANcO6sPNz7/JqcofdZVSyVsz72Bor67cNGKwTWARHujPOw9Mw83FmY8WLGbuXyuo0OlQKBTcNGIwj988gQlD+vHV4n9JyTrbq9O5dQsenDQOvcHIG/N+ZsGKdda8y48evYcgP3NQeLJaYDHqoeet/x47IIGX7prCjsNHmfbqB7Uel4a203prPN1xbueEIf1wUqs5k5nNseSUi3ZcIkMCeemuW1CrlHz2y9988fsSdHo9bi7OvH7vVCZeaR6gdepMmk250nIt2w4do1d8a1648yae+GgO2w7Z98RW19D3AS7980zj4Y6fl4YybQWvz1uAyWQiOiSIqaOHcTIlnR+XrgZg4tABBPv5OHyNzm5OABgaMINAYYmOwlIdqTkXLm82OtiDHm38MBhN/Lo2qd7lXZxUvDGjB0qlgk8WHWb/Sdtc8Cdv6UTLMA2nUot46INt7Ktc3zrSi/dm9qJtjDezpnXhjtccz+Zx99g23PHaRtbsNl+AtQjz5ONHEmgd6c3Tt3bi9lc31LvNjjS2nVf1Cuevjcm88NUudHpzQNMuxpufXxpMhxa+TBwSw7f/nmh0Ox+b3AF/bxfOZJVyz9ubOHAqH4CE+ECeva1zjeXeuq8HXh7OLFiVyMvf7LH2CMeFa/jokQRaRXjx1JSOzHx3i7XMG9/t443v9ln/tsxCcN+7W+qchaAh9TXG+AHRjO4bSZlWz1Of7eSvjWcwmkxEBXvw2ozuJMQHmgPcx5fblLvvura4uajZdjiH+/9vM5m55oDd013Nc7d1YcKgaN6Z2ZNB9/2DJU5dvzeD7ALzhcMV8QFsOmDb8905zpdQf3fKKwws3ZpCTRr7edeVmzu+nF2dGlReXPoalQMbEhpKQUE+ubk55ObmUFpmvlrUasutyyz/paenkpFxNkjo23cASqWSDevX8Ndfi63BK8Chwwe4/Y6buX3qTRw4sLcxTbQa2qsrraPDOZGSxgPvzSY5w/yhMplM/LFuC/9s3A5An47xNuU83VwJrOxJfOvbhdagAsBgNPJTZS9cZOVAIIvbRg/DzcWZ+UtXM/u3JVTodNb6vvtnpXU/baIjbMrdPHwwCoWC2b/9zU/L19rkXS5cvQEfjSc5BYV2+ZpVxVjzLuueyqWh7bSMrq8+OEmtUnLD0AE8cOO1ALz13aKLelymXj0MJ7Wa39Zs5JNFf6LTm38oyrQVvDFvIUGVgVb1HliAF2Z/S3puHgE+3nz17IN8P+sJJgzph7PTuX0h1ud9aA7nWWxlgL16x15Mldv7ajwA2HbgCGDudXZ1cSavqIYe1sqO7YZksJpM0PW2xUx4ZlUDSjfM+EExKBQK1u/NICO3/j+kD94QT4swT44kFfDRwkM269QqhTW39unPd1qDQoCjyYU88sk2AAZ0DkHj4ficW7w+2Rq8ApxMLebpz3YC0LdjMJ5ujb/J1hTtNJlMvDx3jzV4BTiUWMD3lUHrgC7BjW6nSqlgaE/znaEXv95tDV4BNh/MYsGqUw7LOamUvPndPu58fQPPfbHTJp3heEoRr8wz/wb179T4Nl6M+gDGD44GYPbvR/ljQ7L1856UUcJdb2ykpFxPuxhvOsfZDuqLCjZ/vuf8ddQavIJ5UOALX+7i2idXct87m1Epz96xMhhN/LHefNft6j6Rdm0ZkWD+LlqxPZXispovZBv9ea881RQyHexlq1HfbslJp7n66iutfz/62NNcN34iP//0A598WnuPk0bjCYC7hydKpRKj0fYWy5nk+vd21GZwt04A/Lp6I9oK+1sSHy34gwUr15NdUO22buUUSzkFhWyp/JGuSlsZMBRWC5wGdO0AwMJVjntALHmT5RVn0yPUKhV9O7fHZDKxyEG5ohJzUHDKwW3yqmKsI9/rHjjUkHaa6zD/UIwZkMDg7uZjq1AoCPb3xUmlwmgy8c4Pv7Bqx55G19eY4zKw8n1fsMK+Fz+jyswIJ1PS7NanZOVw0/NvMvP6a7imfwIdW0bTsWU0d40bxStzfmT1ztovrurzPjSH86xFZRtPVDlWsaEhNnnQMaHBKBUKTqXaH8/mRqlQMH6gOZ954cr6pw90bOHLHaNboTeYePTj7TapAwB+Xi54uKoxmUzsPpZrV/7I6QLKtHrcXNSEBbhzpMT+QQ9bD9nn9u09kYdOb8RJrSTU351jZxo3jqAp2nkytZhSrX2KwOEk87ZBvq6NamPVdgJsdZDvusXBsQLQGYy1zt174ow5DUPj7oRKqWj0AMILXR9gTf3YtN/+Yrq4TM/1z61G4+ZEcqbt90tyZgmtIr3o3iaAf6tNH1deYbC5mKnq17WnmXp1HCMSwvnf17ts5ty9qqc5feC3dTWnDwhxLpo0BzY2pgUAp85hANfmLZu5/fa76dnzCn7+eTH79u0hKSmRkydPsHvXDgoKm/apPO1izFeCu486vk2Vmp1Darb9AA3LVFEHTiVZe52qyszN59VvfiY77+zVvpeHO6H+fgDcf/0YjCb7wSqW3ixLTzBAXGQYnm6upGbl2uVHAoT4ma+OT6XUHsDGhpv3XVeg29B2ArSorMPH0wMfTw+bdat37OWzX//m4Cnbi5ALfVwCfbwI9PFCp9dz4KT9BVGwv7n3tai0jKx8xz/yWXkFPD/7Oz5c8AdjB/TmpuGDCPbz4Z0HpnHPmx85DDatr+Uc3wdoHudZbGXec9XpxqLDgm3yoC2B+OUwbVifjoGEBbhTWFLB8u31mzHBSa3gjXu6o1Iq+GDhIQ5W6Q20cK7ypKCvnurrcD/qyvQsZwcDIQEKS+wvxg1GEyXlenw8nXFtgmfDN0U7S8ocj2NYvyeTaa9voKi08eMcXJwqH5hjNDkcFJZfWHsupcbDiWv7RREXqcHVWY0lDd7N5ewxVDThtLkXsj6XyvOgoMTxcT5y2vHv7TdLTjCkeyh3jG7F8CvCOXAyn1NpRZxIKWLboSy7gNfiwKl8jp0ppFWEF707BrFut+VOkDcxoZ4UFOtYt0dmZhGN07QBbGxlAHuy7gB2/749PP/CU9w1/V4iIiIJDz97i1Ov1/Ptt3OYPfvjJmlX1bk+T6bU70Njmaz/5BnHPUqp2TnW3D8LS+ACMLBbxxr3ra2oICXzbK+AJQfyZA29V2cDoppfg0qpJDLY/FpPp9Z+67qh7XRzcbYO0Bo04wlyC809BvOef4QubVqy+9hJu+C1MfU19LhYBpqdSstwOJCgZXhY5X7rPiey8gr48vcl/Lh0NV8+8yDxsVHcN3EMW154y+H29XkfoHmcZy0sKRGVwamvxhMfTw/2HDt7a/bsQyFqOqbNZz7G6yrnfv19fbLdoJyafPGkbYB37Ewhn/xyqIatzRQKBX06BjWojRfS+WhndkH5JfHksrH9I3nx9q41pkA09/oaav2eDO58fQOPTWpPm2gfIgJtpwxcvSuNxz/ZQU6B1q7sb2uTeGxyB0b3ibQGsMN7mVNR/tqYbJNOcj6ZTPKwjstVkwWwXl5e+Pr6YTKZSDztONeouuXLlrB82RICA4OIjW1BdHQsfXr3I6F3X6ZOncbBA/tYv2Fto9tmmeszMzef4rL6zU1r+bE/l1606mWWb93Fw+9/ce7lKgOuEzUEMZZeutqe6hQeFICTSoW2ooK0HPvbfU3Rztgw83RnBSWl1uAVYPn23XRp05LhCd34+o+lTVZfQ4+Lpb6aegNbVu43sR4XNcVl5Xyy8E8+euwe4mPtp8uyqM/7ULWtl/J51iIsxOY9twSrp6qmFFiCYwcpGQAGnTkQVDlf2olpGncnrqocKb1w1bmnD2TmlVOmNaBSKYgIdCcswJ3IIA9Optb8qFyD0UTrG39pdJvPt+bSzvqKDvbgjRk9cVIrePfHA8xfforcwrMBWdVH0DbH+hpr1c50Vu1Mx9/bhXbR3kSFeNA5zp9r+kYwqGsor9/dnWlv2A/e+31dMo9Oas/wnmE8q1KiMxgZmWD+TP1ey+wDTUVd2eusr2h+Dx4R56bJfkVaxLYEzI+LLS+v32CHrKxMtm7dzIIF83no4XvZsNGcr9imbXwdJc29Akpl7S8jvHKuz8x8+9t4YB5d3bVNnDXNoCpLb9S59NJZWHresgvrN4VNZFCAuZ159u10cXYmLqLuADa28uECSemZDm9FN0U7rYFLtQBo+TbzNDXtYqKs+26K+hp6XCIq60vNcjx3p2We1xPVAthJVw1mxviraevgfAAoKDXfNiup5WKoPu8DXPrnmVqlIizI3ybYtwa6VYLu2LBgdHoDZzId5xtqK6fEcfNqfM5jfSgVCpuBJnUZ3TcCV2cVR5IK7GYOqM0zn+9gyP1LGHjvP/y9+Qwermo+ejjB4a18S6+uSqlA496wnjiNh7PdMpVSYc0FbYr5cpuinReCtvLiSKkwz/5QnZur4/6aIT1CcVIr2Hwwi49/OWwTTILtlHpNoSnrO9fzWlt5Hng5OF/AfGu/R9sA/LxcatxHToGW9Xsz+WHpKZ74ZDu3vWyev3VQ1xCH53daTimbD2aj8XCif+cgokM8aR3pTUp2KTuOnP95Wd18zNNnaR3MTywuD00WwMa0MAewpxLrngqlS5duDBk8lODgUIfrLZ/fnNzaT/KO7bvx0AP/46EH/0e3rr1r3E5ROQzRx9PT4ZfD/RPH8M3zDzOydw+b5WqVkohA8499fXrpXCpHqVtGaFcX5OdDZEggbi62XyaWvz3c7H/cR/XpgZuLs7lHL7vmH9Toytu8p9Nrn7S7Me08ewva9pikZuVyONF8ZT38im5NVl9Dj4ulPkfvucbDnSE9zNPqVO8tvGn4QGZcdzUDKwdIVTe0RxcAdh057nA91O99aA7nWUxoECql0iatwHohU6WHOzokmOTMLPQ1PKQgL8Wca+wf61fn62sq1w2MZs+8sez7diy3jGh5bmUq0wfq0/ta3VOf7uBUahFtorx54fYudutzC7XWgU29O9jfmlcozL110SGeNQYpvdrZP2Woa2t/nNRKDEYTaTk1z1aiqwxM3erIk22Kdl4IlnYqFAriY7zt1sfHOJ7azRLsVx1lX1XLCM051W+oPOcVdRyDpqqvPue15Q5A7w4Bdus83dT8PGsQP80aSETg2e8SyxPoRiaEOwxQD542XwArlQr8awh8f1tj/vyM6B3BsMrBW4vXJXMO1/SN5h9rzuXPS3bccSWavyYLYGNjzB+gxFN1pw9MuH4Sr7z6Ns8//xJ+fme/gF1cXLn55tvondCPigot69etrnU/AweOwMnJCbVKzaCBw2u8cj1wMhGD0UhEUAAzxl+Nk9r8YdS4u3H/DWO5YegA8otL+PafFTblIoMCcVKryC0soqCWaauqO3zaHMQN6d6Fwd3Pzj3o6uzMbVcP49/3X2busw9bBz5YWEZyTxjcz3p7G2BAlw7cNW4kAHnFJbX26Lm7mr9IAv18cFLXniHS0HbG1hDAAqzYbn7yyoiEHnbrLvRxseR4XpXQDd/KWS/A/L6/evetODmpHb6OXcfMOdxTRg2lX+f2NuXuGjeSKaOuxGgyMfcv2/Olqvq8D83hPDubGmDb2wpne2pD/Hxxd3Xh5Jmag/Cs49notQY8A9zxj/Gtcbum9PjNHXB3UeHipOKJmzqgrKOHq2WYhq6t/NDpTfy2ruGzoRSX6bnnnc2UafVMHBLDuAG2KSd6g4l/NpunG/rf7Z25Iv5scBHg7crrM3qw8sMRfPxwQo0j0cf2i6Jf57PTLcVFePHq3eaLx/V7MmqdpuhEZVBz3aAY3F1qDmKbop0XgsFoYkXlYLtnbu1k09sY4O3K9DGtHJazDLDr3SEQH0/bi73oEE8emhh/Tg9ZSEwzH8+h3UNrHXzVVPXV57z+ZXUiAHeNbcPovpHWbSMC3fn0sd54uqnZfzKPvSfOpjvp9EZemd6djx5O4IXbu9gcT093Nc9MMX/n5BdXkJHn+K7rki0plFcY6NsxiJ5tzb/1vzfiM3WuvEI98Y30xmQwktHAp+eJS1+T5cBaB3CdqnsA14Kff2DggMF069aDxYuXkpObjdFgICAgELXaCYPBwBtvvEx2du09sAajvsq/jTWOD8nKL+Trxf8y7dqR3D1+FHeMHU5+YTH+Pl4oFQoKS0qZ/toHdiPRG3JbF+Cfjdu5ZcQQ2sZE8v7Dd5FfVEx+cSnhgX44qdVk5Obz0HuzKSq1/dAvWrWeSVcNJMjPh0VvPEtKZjauLi54uLrw8Ptf8NkT9xHi58sfb7/AL6s2MOev5XZ1r9qxlxnjr6ZzXCwbv3jbJud38nNv2uRjNrSdMdZgxkEAu2039064htbR4USHBts8wepCH5e/1m9l+rUjCfX349c3n2PrgSMolUp6xbdm7l/LSejQhgqj0S7F4JMFf9KnQzsCfb355PF7KdNWUFxWToC3BoVCgd5g5PV5P9XaA1uf96E5nGdng1XbfNf8omIKiksqX4f9NtXptQYStyYT1z+GTte0Ze1nWzE0wROYalOhO9sbrDOYMNUxkGzCkBgAVu9Ms7u9W19Hkwt5/svdvHVvD2ZN68a+E3k2T8d6/dt9dGvlR2yYhh/+N5CiUh1l5QYCfV1QKBTkFGh54tPtNe7/h2WnmPt0X3IKtej0RkL9zYNsisv0vPbtvhrLAcz5+xhj+kXSr1MQO+eMpaDk7GvNKdAy6tGz3y+NbeeF8tb3++nbMYiurf1Z/n9XWR8f26dDEJ/8cph2MT52vcSrd2Ww9VA2vdoFsOTdYSzZnEJJuZ6WYRoGdQvhmc938vStnRymJVQ1b8kJhvYM5ZYRLRk/KJoy7dnfp6seWmp9NGxT1Vef83rRmtMM6BLM1X0ief+BXrwxoztFpToCfcx3YbILynn4g222+9cbee7LXbw7sycTh8QwfmA0Wfnm75JAHzfUKgUmk4nX5u21mSarquIyPcu3pVqfAHY4saDR07rVRalS0HmMOf0waWcq2uLGfYbFpUul8fT7X1Ps6J4ZD+Du4cG8eV+RlVX7qOuMjHTWrV+Nt7cPnp4eBPgH4uTkTHp6GmvXrmTWrGfZtq3uJ5AUFOQRGRGLXq9nxco/ycyqOQDYevAoqdm5BPl546fxxM3VhTOZOSxet5mnPplDkoNbvUO6dyahQ1s27DnE2l21/xhUZTSZWLJ5B0qVigAvDX4+XqiUBshedAAAIABJREFUShLTMvjh39W8+MV3JGfa15dfXMKOw8eJDQ/B38s8P+7eYyd56pO57Dl2EhTQNjqSID8f1u05wN7j9r3dOQWFHD+TRmxoCH7eGjzd3XB3dcFJreK9+b/afMU1pJ0qpZLHbr4OlVLJhwsW2wVHuYXFjOzTEx+NB7kFhew4fLxR9TXmuGh1OtbtPkBUcCARQYFEhQRRUaHjo4V/sHHfQW67ehgnzqTz0wrbgYLFZWX8uX4rapUKXy9PvDw9cFarSM7KYemWnTz/+TzWV3taW2Peh+Zwnk0Y0p/WUeF8vOhPCotLcVKreXjyOI6cTua3NZsA6NelA/27tGfRqg0cTar5CTt5SfmEdwpFE+SBb4Q36YezMJ7jKP+GOJNVSq92gWh1Bl6au4fDNUwZBOY8zzfv6YGHm5o3vt/HqVoGX1V107AWBPi48sf6ZE6l2ZY5dLqAED83urbyI6F9IIvWJFlTLMq0Bn5Zexq9Hvw0zvh5u6BSKUlKL+HnlYk88dl2a89eVXdf2wYXJxWvzdvLpgNZtInyJizAg7IKA2t3ZfDgB1vtHgtaXXa+lpU70ggPdMfH0xl/b1fcXdW4V97i/vKPY9ZtG9rO+BgfhvUMIzmzpEFPMquvolIdSzafIcDbldhQDa0izJ0Us38/yjf/nGDmhHYoFQo+WnQIS2exCfh7UwoooEWYht4dgmgd6UVukZaX5u7lny0p3DW2Da7OKpty1SVnlrD3RB7RIZ74e7vg4+lsPZ5fLD5qzUduqvrqc16DuTc0JasUX40zvhoXPN2cSckq5de1STz4wVaHjwE+llzIsm2puDir0LirCfJzw8vdiYKSCjbtz+L5L3axdFvtU8yVVxgY2z8KTzcnvvrzGDvOY4+oyllFjxs6EtQqgPKiCrZ9v9s6cFRcfhShwXGNvucT16o13877Ga22nGHDBqDTSdK0EKJmHv7u9JvWE1cvF8qLtJzYcJrknakXfcDFoK4hfPVUX3IKtPS5+68ae5Yutl1zx+Dl7sTIR5ZxNPn89mhdaLeNiuPK7o7HR1S37VA2HyysfZoycflTuzkR1TWUuP4xuHm7UlGqY8OX2ylMr98AV9G8NDqFICIikueemQXA33//KcGrEKJOJTmlrP5oM13GxxPSNpD2I1pTUVxB0s76PTCgqU0YHAOYnyR0qQavl7u4cK9znm+2sIaJ+cV/S0C0Dx1HtwUg60Quuxbup6ygflNmiuanwQHsnLk/EOAfRECAOaH/6JHDfPLp+03WMCHE5U1brGXLvF34RfsQ3TMCnYNHjV5I3p5ODO1h7vlbtLrhsw+Ixnn2i508+8XOi90M0YzoKwyc2Z3G6R2pZJ+QQVv/FQ0KYH19/WjbJh6ttpxjR4+wbPm//PTT91RUSLK0EKJ+ck/nk3v64k91U1Cso+3kXy92M4QQ9ZR9Mpfsk3U/MEZcXpokB1YIIYQQQogL5dJ+nqMQQgghhBDVNDgHdtOm3Q0qN3hIn4ZWKYQQQgghhPTACiGEEEKI5kUCWCGEEEII0axIAPsf4KRU0SkogkiN38VuihBCCCFEozX6QQbi0nZFaCwjW3TCx8WN+Ye2kFwkU40IIYQQonmTALYBWkeGcc+4kTg7O/P5b0vYc/zUxW6SHSUKboq/gu4hMRhNJnZlJpFYIBM8CyGEEKL5kwC2AZ657XraRUcCkNav5yUZwN7YrhfdQ2LILitmzr4NpBTnXewmCSGEEEI0CcmBbYDjyWkYjCZSs3NZsHrjxW6Onc5BkfQKjaVEp+XjXSsleBVCCCHEZUV6YBvgpbk/89Lcny92M2o0MrYjAH8c30teeelFbo0QQgghRNOSHtjLTLSXPyEeXpToKtiekXixmyOEEEII0eT+Mz2w7q4urP7oFTLzChj7xCtMHjaAUX17EBHgT1lFBSt37OPjRX9RVFpmV/ba/gk8fesEu+VHk1O5+cV3m7w+gBA/XyZfNYDeHdoS6u+D0QSJaRn8sWE7i1ZtwGgyOSzX0icQgOP5GeiNhnM9PEIIIYQQzcZ/JoCNCQkC4HR6Jq/fM4XokCAOnEoiIyefXvGtGD8wgaigAO555zO7soG+XuQWFln/dnNxwc3FmcS0zPNSX5+ObXnt7ltwc3FBp9eTnpuPn5eGttERtI2OIC4ihNfmLXRYr7+bJwAZJYXnfnCEEEIIIZqR/04AG2oOKDu0iOKHZet44uNvrL2YXVrF8vnj99CjXRzxMZEcTEy2KfvF4qV8sXip9e9nb53ImP69OJ1eSwDbwPrCAvx47e4puLk489mvS/hu6RoqdDoUCgU3Du3PQzeMYdyABL75eyWp2fZzurqpnQAo1+sacpiEEEIIIS55/5kcWEuP6LGkND7/bYnNLfjdx05x4JQ5iGwRHnLO+0pMy2jy+m4ZMQg3F2d+Xrmer/9aToXOHIiaTCbmL1tLYmXQ3DoyzGG9CoXCvH2dr0IIIYQQonn6zwSw0ZUB5dJtux2ur6jssazQ6+vcV1SoOc80MT2ryevr26kdAL+t3eKwXLm2wvz/CulhFUIIIcR/038mhSC68pb+wcQkh+tD/HwBSM2q/WlV3p4e+Hh6YDKZSMqoJYBtQH1eHm7W5TPGjcRoMtqViwkNBiC5jnYKIYQQQlyu/hMBrEqpIDI4AICTqfa3/Z2dnAjxNweOpxysr8qSGpCek4+2hl7QhtYXXRmcAvTvHF9jG7QVOtJqCGBrmJxACCGEEOKy8Z8IYMMC/HFSqUjPzaO0XGu3PjokEKVCQWZeASUO1lcVWxlkJqbXHOg2tL7Yyl7bVTv28sSn887ptVWnM5hTEpyVqgaVF0IIIYS41DX7HFiFQoFSqah1G8uMAEUljudc7dKqBQBHklLqrM+yr1qn0GpgfRGB5l7bnMLiOttRk6KKcgB83dwbvA8hhBBCiEtZs+6BjW/biUEDR6JQKli/fgV79m1zuJ3ltr+3pwdKhcJmRgC1SsXY/r0AWLN7f511xoSYB3DVOoVWA+tzcTK/HT4aD4f7DfL1xtnJiZyCQsoqB3NVl1RknlqrhXdgna9FCCGEEKI5atY9sH37XImTkxNqlZq+fYZYp5CqztIjasLEHdcMs27n7enBrGmTaR0ZRmp2Lks276qzzmhrD2zNA7gaWp+lR3ZQ1w4M7NLButzV2YmbrxrE7288y+eP34NKWfPbdiQ3A61BR5C7Fy19gup8PUIIIYQQzU2z7oE1GM9OQWU0GWuc/NTSIzrvn1U8Oulabh4+kNyCIkIC/FEpFRSUlPL4x3Otc65avDRtMj3btbJZ5qsxP+nqjXumYDCaZwko01Yw7qnXGl3f0q27mTRsAG2iwnnrvtsoKC4hv7iUsABfnNRqMvMKePzjuRSXldd4TLQGHRtTTjI4qg3jW3fl/R3LqTDII2WFEEIIcflo1gHsmrVLGTxwJEqlkrXrlmKqIYKNrLztv2L7XgpLypg66koig/3JLypi477DfLF4Gem5eXblOsRG4eelcbhPb8+zt/mPJqc2SX16g4EZb33K1NFDGdy1A8H+vpiA4ylprNy+j9/WbqagpLTO4/LPqX10DAwn3NOXOzr2Z87+DfJkLiGEEEJcNhShwXENmnhp0ybHE/TXZfCQPg0q11Denh4s+78XKdNqGXjvM5ddfTUJcNMws9sQvF3cKKwoY03SUbaknaJYV3PvrRBCCCFEc9Csc2DPhWVqqqSM7MuyvppklxXx9rZ/OZCTipezG9fEdaZ9QOhFbZMQQgghRFNo1ikE5yImxDxv64UKKC90fbUpqijniz1rifUJICG0JWWSRiCEEEKIy8BlH8BGV+aj1vbY1+Zc37k4lZ/NqfyLH1ALIYQQQjSFyz4HVgghhBBCXF4u+xxYIYQQQghxeWlwD6wQQgghhBAXg/TACiGEEEKIZkUCWCGEEEII0axIAPsfoFQrCW0fhE+498VuihBCCCFEo13202j910V1C6PdsFa4eruwa+F+8lMKzqlc70AtA4O1hLsb8HQycd9WX0p0ivPcWiGEEEKIukkAe5lSKhV0ndCBiC6hmIwmUvamk5t8bsHr7XHF3NSi1GaZGhMgAawQQgghLj4JYC9TncfHE9EllJLcMrZ+v4vCtOJzKhfgauDGWHPw+tlRT/5OcZOeVyGEEEJcUiSAvQyFdQgiqls4FaU6Nn65ndL8snMu29LTgEoBqaUqFiS6n8dWCiGEEEI0jAziugy1HdoKgIP/HqtX8ApgmRRYa5ReVyGEEEJcmiSAvcz4RnqjCfJAV6YjeWdqvcsX682Bq6eTsambJoQQQgjRJCSF4By5uTgz+apBDLuiGzGhwTipVSSmprNo9UZ+XLoGo8nxA806tozm5hFX0qFFNCEBvqBQkJqZzYrte/j6j6UUltgOlvrznf8RFRLEdU+8zLEzjgPQ2U/dT0KHtrw3/1fm/LnMZl1AjC8AWSdyMRrqH4QWV+a7eqrlAW1CCCGEuDRJAHsOwgL8mf3UTKJCggDILypGoVDQKiqCJ6dMpGvrljz24Vd25W69eiiPTB4PQHlFBZl5Bbg4qYkODeb2a66iX5f23PjM6+gNBmuZ/SdPExUSRNvYSIcBbKe4GBI6tCW3sIj5S9fYrXfzdQOgKKukQa+1pLIH1k1lQqkAo8SxQgghhLjESABbBye1ig8evpuokCA27j3IK3N/IjkjC4VCweh+vZg1/RaGJ3Tnt7Wb2LDnoLVcZEggD00ah05vYNZX3/Pn+q0YjOYe0fax0Xz+1ExaR4bTu2M71u3eby134ORpRvXpSbvoSP5Yt8WuPdPHjQLg6z+WUl5RYbfe2c0JAEO5vkGv15L5qjVI8CqEEEKIS5MEsHUY2qsrraPDOZGSxgPvzUZbGTSaTCb+WLeF3h3aMbpfL/p0jLcJYAd27YhSoWDVrn38vnazzT4PnDrN5OffROPmxpmsbJt1+08mAdA2NtKuLe1iIhnQpQPZ+QX8tHyd4wZXRqANiT0VwNUR5QBsyXZpwB6EEEIIIc4/CWDrMLhbJwB+Xb3RGrxW9dGCP1iwcj3ZBbYPCdC4m2/le7i5olQo7HJkk9IzHdZ36FQSBqORNlERKBQKTFXKTb92JABfLv7XYVsaYm6/XOu/vZ2MqBQmNmS68P4hTZPsXwghhBCiqUkAW4d2Meae0N1HTzhcn5qdQ2p2jt3yDXsPcfe4USR0aMuf777I7qMnSUxL50RKOtsPHaOg2HGOanlFBSdT02kVEUZEUADJGVkAtIoIY0iPzmTm5rNgxfomenUQ6W6bapBZriSzXEWZXqbREkIIIcSlSQLYWqhVKsKDAgE4mZJer7J7j53kiY/nMPP6a4gMDiQiKMC6Tqc3MOfPZXy0YLHDsgdPnKZVRBjtYiKtAez0cSNRKBR88fsSdPra8lvrlzxw5VLzwDQF4ONsZHrrYsZFleKiMvLOAa967UsIIYQQ4kKQeWBrERMahFqlJDM3n+Ky8nqXX7JpO1c//AJDZz7NXa9/wGvfLGDDngM4qVVMv3YEA7t2cFjuwMnTALSt7P2NCQ1i2BXdSMvJZdGqDbXWadCZB4qpnOv31pqAvAol8054ADAgSFuv8kIIIYQQF4oEsLUID/QHIDM/3+F6jYc7XdvEWdMMapKZm8+mfYeZv3QVM978mLWVsw7Ex0Y73N4ykCu+cr/Txo5EqVAw+9clNlNuOaItMufGunm51rpdjeWNlgcZmKfREkIIIYS41EgAWwuFwnx4fDw9USjso7n7J47hm+cfZmTvHjbLu7eNY1ivroT6+zneb+X/qw/8sjh8OhmdwUBcRBhhAf6M6tuTlKwcFq/bVGeb81IKAfCPdVx3XTxU5h5cmUZLCCGEEJcqCWBrceBkIgajkYigAGaMvxontQowzzBw/w1juWHoAPKLS/j2nxU25SZdNYh3HpjGyzOm4O99No/UxdmZqaOH0a9zeyp0Olbv2OuwXr3BwLGkFAJ9vZlwZT9USiWf/fI3On3tva8AWcez0WsNeAa441/5VK768HAyR63FOlW9ywohhBBCXAgyiKsWWfmFfL34X6ZdO5K7x4/ijrHDyS8sxt/HC6VCQWFJKdNf+4Cs/EKbct//u5rB3TvTs11rln/0Ktn5hRiMBgJ9fXBSqTAYjcz6ar5duar2nzhNfGwUo3r3JDk9i7822D/UwBG91kDi1mTi+sfQ6Zq2rP1sKwZd3YGvhWdlAFtikPwBIYQQQlyaVBpPv/9d7EZcyrYePEpqdi5Bft74aTxxc3XhTGYOi9dt5qlP5pCUnmVXJj0nl9W79uLj6YmnuyuBvt44q51Izc5l1fY9PPPpN2w+cLjWev28NQzu3hmNhxtvfreQw4lnzrnNeUn5hHcKRRPkgW+EN+mHszDqjedUNtpDz5BQLQU6Jb8nu51znUIIIYQQF4oiNDhOMh0vQx7+7vSb1hNXLxfKi7Sc2HCa5J2paItrfwBCuLuBef1yMJrguV3ebJYncgkhhBDiEiM9sJcpXZmOM7vT8Qz0wCfci6A4f4oyiilIK6q1XJFOSYS7gZYaPVeGahkTWcaoiHKWpbmiM0pagRBCCCEuPglgL2OGCgMpe9LJOp6DQqmgML2Y4izHTwCralO2M2V6BZ5OJnydjAS4GlmQ6G6dYksIIYQQ4mKSFAIhhBBCCNGsyDRaQgghhBCiWZEAVgghhBBCNCsSwAohhBBCiGZFAlghhBBCCNGsSAArhBBCCCGaFQlghRBCCCFEsyIBrBBCCCGEaFbUF7sB4tITEx7HpNHTcVa78NM/X3H45N6L3SQhhBBCCCsJYC8jfbsN5cEpL3D45F6e++DeBu/n7hufoGVkWwCyctPOWwDbMrItVw+cSHxcZ7w1fmgryjiSuJ9F/37D0cQD56XOy93I/hO4/boH2LpvHW999fTFbk6TWvz2/4gJDWL6ax+wef/hi90cIYQQF5EEsJeR8KBoAFIzkxq1n6TUE8SGtyI7L5Ml635tiqbZGTtkMpOvuQulQom2opzs3DQCfEPo1q43nVr35NXZj7HvyPbzUvflLCwkCoDUjNMXuSVCCCHE+SMB7GUkIqRpAthP5r/OJ/Nfb4omOdSjQz9uHjMDvUHPV7+8y7KNf2AyGXF38+T+m5+je/s+TBlzL4+9NfW8teFyFR5kDmBTMhp3DgghhBCXMhnEdRkJDzYHsCmZyRe5JbW7YeQdAHy3+BOWbvgdk8kIQGlZMV8seAcw5+G6ubhftDY2V+GBlnNAemCFEEJcvqQH9hIVF9WO0YMm0jKyLQG+waBQkJWTxtZ9a/l1+feUlBXZbK9UqggLjAQg1UHwolY78dL9HxMX1Y71O5bx/rezrOuG9r6Gu2543K5MYsrxGntB3VzcmffGv+QUZHHvrOsZPXAiA3qOICQgnHJtGVv2rOW7Pz+ltKzYppyfTwAx4XHo9BWs2Pyn3X5z8jP56Z8vUShUmDDZrff1DmD0wIl0a9+HIL8QTCYTaVlnWLPtH/5euwij0WCz/YszP8LPO4A5i97ntnEz8fMJZO22pXz1y7vcNu5++ne/iqLifD747iWOnT7Y6HIWAb7BXDPoBrq0SyDQLxij0UhqZhIrt/zNv+t/tQbtFiGBEXz4zHxSM5N55I1bGDPkJvr3uIpg/1CKS4tYv2M5P/79BRU6rU25Nx/9itiI1nb1v/rQ53bLpr8wjryCbJtl9T3PqmoR25qRw8ejUCpZuux3jh5r2rzl526fzPVX9rNbPvup++2WPfje56zcvsf699gBCbx01xR+X7eZt75dyH0TxzC4Wyf8vDVk5xewfOtuPl30J8Vl5Tb7Wf7hqwT5+XDLC2+x5/gpm3WxocH8/vYL6PR6ut9q3wYPNxemjBzK0Cu6EhUUgEKhICU7l9U79/H14n8pKC5p6KEQQghRjQSwl6BrBt/IlLHmQVjainJyC7JxcnImNCiSsVfeRJf4BJ58+070Br21TJB/KGq1EwaDgYycVLt93nndQ8RFtSMx5Tif/viGzTo/7wDyi3Ktf7u5uOPi7EpKRmKNbbT09qZmnOaR214iLDia44kHycnPpGPrHgzrO4aQoHBmffygTbnYcHOwlZhynHJtmcN9L/z3G4fLO7TqxmO3v4y7mwaTyUR+US5eHj7EhMcREz6T2PDWfPj9y9XaGUVOfiZd46/g95XzuWHk7QzrOwYDBtIyklix6Q/GDJnEzWPu4YUP72t0OYCu7RJ4+LZZuLq4odfryM5Lx0vjR2xEa+6IaE10aAs+//kt23ZW5i+nZZ/hiTvfxFvjy4Fju0hOO0nPjv25ZvAN+PsG8t7cF2zKubt5Wt87J7UTHm4aDAYDRaUFNtuVl5faBa8NOc+qGjRwOJ4aLwCGDBnV5AFscVkZOQWF1r99NJ6olEoKS0rR6W3bpNXpHO5DAXz+1Ex8PTXsOXYSb093urVtxS0jh9C9bRxTXnyHihrK1oePxpNvXniE2NBgAIpKyzCaTMSGBhN7dTCjevfg1hffITU7p9F1CSGEkAD2khMSGGHND53905us2b7U2qvYMrItz93zLtGhLenUuic7D22ylosIjgEgIycVg8G2F3JYnzFc2fsaikoLeeurp+x68X5eMoefl8yx/j3jxicYkjC61lzasGBzrmWr6Pb8ufpn3vr6WWuvYrsWnXhx5kd0bNWduKh2HE86ZC1nCXzP1HOQkb9PEI/d8Srurh78s24hP/39NSVlRahVaiZdPZ0xQyYxoOdwFq+cz+m0E4A5uPP29EWrLefrX97HZDIRGhTB2CGTSUk/zZJ1iwC4qu+1+PsEWutqaDkwX0g8MvUlXJxd+fHvL1i88kd0+goUCgWjBkzgtnH3M7TPGH5d8R2ZOWnWchGVx7N9yy4s/Hcuv6/8wbquZ8f+PH7Hq/TpMoRvfD4kN/9sIHrfSzdY/z2410jumfw0B0/sYtYnD9V6PBt6nlVVrj17HmnLyx1u0xjvzf+V9+afHURomYXg0Q++POdZCK7s0YV/N+/glbk/otObX1+b6AjmvfAo8bFRXDeoD/OXrWl0Wx+ZNI7Y0GBOp2Xw5MdzOXDKfH63igjjtXum0jo6nGem3sC9b33S6LqEEEJIDuwlp3t8b5QKJTsPbGTV1n9sbomfSD7Mk+9O58l3pnHstG1vl7VHtFr6QOuY9tx+3UMYjQbenfsCmbnpdbbBMhDoTC0DgSzbnE45xk//fGlzS/zQyb3WoDUyJMamXIQlTzc9sc52VDVu6C24u3qwcdcKvl70vvXWtt6g5/s/PycnPxOA6Ii4KnWZ696+fz0mkzkdwcvDG4D9R3cA5tQKZ2cXCksKGl0OYMzgybg4u7Jk3SIWLZ2HTl8BgMlk4q81C0ipvCiIDouzKWd5/44m7rcJXgG27VtHSWUqRmhAZI3HKMwygCur7hzohp5nVf3z7y8cOrKPo0cP8OdfP9dZ58VgAt74doE1eAU4cvoMP1UGrX06t290HWqVkmFXdAPgf19+bw1eAY6dSeXpz+cC0LdzezQektcthBBNQXpgLzEebp6A+Ta+QqG0y5VMzzrjsJxlBoKqA7h8NH48ctvLqFVq5v3+EfuPntu0VGGVQWdtA4HCg8zbbNi1yuF6S+BWobe9PdvQHthenfoD8O96+2m9jEYDBcV5+PsEoa9ya9lSV3KVVIiwoCiMRgPp2ebjGB4YhVKhJDX9dKPLAXRv3xuAZZvs83sBKirMPZW6ar3gljrX71zusJxCoQCoMe3C0kaAtHOYgaCh51lVebnZLF48v87tLqZTqRmUaSvslh9NTgEg0Mer0XX4ajxxd3XBZDKx93ii3fpjSamUV1Tg6uxMiL8vRSWlja5TCCH+6ySAvcTsPryNCcOn0rFNDz58dj5HTu0nNfM0yemJHDq+m6LSQoflwit7DS23/VUqFQ/dNgs/nwDW71jGH6t+Oqf6Ne5eaNy9zIOjapnNILzylvfxJPsBTAABPuZcwMxq+bhnZ0o49wDW18sfXy9/jEYDRx0MmALw8fS3q69qnq5FWHA0mTlp1rxOSypESpV0iYaW83DTmAdCAZOvvhOj0TYohLNBZnp2SrXl5jpPJB+1K+PhpsHd1QMw58jWJKwex7ah51lzU1ruOODftO8wM9/+hKLSmi8IzpWT09mv0U8ev8fhNiqlCgBnlXzlCiFEU5Bv00vM0cT9vP/tLG4cdSchAeEE+4dZ1+kNen5f8QM//v2FXTnLLf0ZNz7BjBufsC53NGirNuGVva9ZeRl2ubIWSqWKkMAIAM44SAVwUjsT4GcO5FKqBIE+Xv54uGnQ63U2+Z91sdzSz8xJRa+3H3Dj7uqBn08AYDsHriWv1DInqpenDxp3L46e2m/dxhKIn6nS29rgcpW94ADd2/et8fVU6LRkVHn93p6+eLprMJqMpDnIO7bsN68wx25WBwulUkVIQDgAqRl1pxA09Dy7XOQUFLJm1/66N6wHhULBFe3bNuk+hRBCOCYB7CVow87lbNi5HD+fACKCYwkPiqZbfAJd2l3BdVdN4djpA+w4sNG6vZ9PgLWHztKz5+7qgZenD0XF+TUGoo5EOOh9rC7IPxS1Sk12XgZlWvvboWHB5tvrufnZlJafnTrImv+alWQ33VVtrLf0a8ibjagMuqvXFx4UTXFpEQXFeZV/WwLT0zbbmJclNr5cZaC9ec8a3pnzbL1fX3ZuhjX1oipL7+yZWmaFsLwnFTot2fkZ51Rvfc8zUTuD0UjXW+6re0MhhBCNJoO4LmG5+dnsPbKNf9Yt5JXPH2XHQfNo8BaRtr08lsAprzCHmS/fyMyXb+Sxt6dSri2jY5se9Ol65TnXaQmWas9/NW9TUup4jtB2LToDcCrliM3yoMpevvyCXLsyYH54wfUjbqdvt6E2y4MrexZzCrMdFaNti04AnDxzdmS6WqUmyD+0WoBpeW226QJ6g9469VhDywGEBFS+vmLHr68m1t6XxHi1AAAgAElEQVTczMQa1luC5drek8rUhKxk68Czc3Wu59l/gd5gTvtwcXayW+fi4gxAhc52Ci9d5d8qpRKNu9t5bqEQQgiQAPaSEt+yM707D7LmUVZXOY6H/GqBXETlgKozaWcnXs/Nz2bhv+apsW679r5zfqpVeIh9b2N1llvsnp7eKBS2p5BapeLKhNEAbN233mads5MLABpP+4EzCoWCW8bcw8QRU1EpbffppDYHDho3jV05F2dXrky4xlzf3rXW5aGBkSiVKpuUAkfBeWhgJOnZKdapxxpaztxO8+uzzFhQnZ9PACGBEbg4u9ostwao6Y4HX52duaHm9yQsqPIhFlkpNW5j0dDzrDofX3/GXnMj1465iQD/oDrrbSx95bFWKBXnrY70XPPFR1xkmN26NlHhldvk2SzPKyq2DhTr1b6NXTmFQkFkcCCRIYF257YQQoiGkW/TS8iI/tfx8NSXuO+mZ/DR+FmXOzu5MHbIZLq2TUCnr2D7/g025SwB0Om0kzbL/1rzM2cyTuPrHcDEyse31uXsrfFaptCqrA+TiQnDb7OOkNe4ezHzlueJCY8jMyeNdduX2pRLSjXPz9oiog3D+46zLte4ezFj0lN0atOTpNTjbNy1wqZccrq53BWdB5HQeaC1vpDACJ6Y9jphQZGcTjvBuh3LrGUiHMx2YAnOLTMH+PsE4eriZhMYNrQcwKkU8wCsXh0H0LNjf+tyF2dXxgyZxKfPL2TWfR+irjaQxzKjQ00XDY5SGKpzdTb3/Pl5B6BW2/ceVtXQ86y6kcPH07ZtJ9q0ac/oqyfWum1TSEo3T5U2qGtH6znQ1CxP87pzzHDiY6Osy1tFhjPjuqsBWLVjr00ZvcHI0q07AXhqykR6tG1lXefv7cWsaTfz17sv8u790zA4GNhn0aljD5547FWeeOxVhg29pslekxBCXI4kB/YS8vfahfTs2J/2cV35/MVfyCvKxWg04OsVgFqlxmg08PnPb5FXaPs0H8sgn6RqAazeYODrhe/x/L3/x8j+17Fq6z8kpR63rn/glufp0Lq7TRlvT18AHr39ZQyVearainKbCfMtI+l/W/49t1/3IGMG30h+US5BfiEolSqKS4t46+un7fI5D53cw94j2+jUpid3Xv8wk0ZPp6g4nwC/ENQqNenZKbz82aPWnjaL1VuXMKL/BCKCo3lk6stoK8qp0GnRVPZ0pmcl88bsJ22eGGWdJaBa3mpRSYF1hP3ZKb0SG10OYOPOFYweeAOxEa14/I5XzWVKCgnyC0GtdiKnIIu3v3rGOqerdf+WXm9HjwCuTGlwVF9V2/av5/oRt9M6pj3fvPaPTS7wU+9OJzvvbF5sQ8+z6txcz/Yku7qd/1vn85euZnD3Tky6ahBjB/SmrMqDFK59bBYFTTA91Y/L1jLsim50jovlx5efJDu/AJMJAn3N59rxM2nM+WOpXbl3v/+FLnGxRIcG8/VzD1FcVk5ZuZYAHy8UCgW5hUU8P/vbWuuOiWkJmOcM3r7T8cMjhBBCmEkAewk5fHIvT747jeuGTaFVdDx+3gHo9DoyclI5fGIPf67+yeH8qdZBTtUCWIB9x3awcfdK+nQZwvQJD/Hch/dZcyTjouNteuCq0lS5DZ6YctxmnWW6ps3/3959h7dZXQ8c/76SbHnJ25L3SByyyE4gCQlkkMEKe48ABVooUFpK2VCg0LIClF9pgTaMQgNlFQgEskPI3nsnduK9t7b0+0OWEkXyjJfi83keHqJ33SvJto7Oe+6925ZTZ6zhimm3kBSfSnVdFVv3rOW/P7znFTC5OZ1O/vLuI1x2/k2MHzEFQ1wScTF68otyWLt9Od8t/8zvoDCzxcRTb9zDlTNmM/rMCcRF6wlyOjmct4/VW5bxw8ovMFu8V4LyZDUbSwE0miASYgzszzk+Mb87ED9x8Yf2ngeu0fvP/O1+Lp92C2cPmUh8bCIoCrmFh1izdTlL1nxD3Ul1w8FBWs+UY/4yrMn6dFQqNfXGumYDypz8g8x5/0mumn4rKYYMz/tqs1kpryr1Ora9P2cnW/HTQmbOuAKVSmHZsgUtHn+q1u3ax72v/J1fXn4h2alJxEUdL0VROujWvMVq5Y7n3+DWi6YyfewoMgwJKIrC4YIilm7YytxvF1Jn9F11rLK2juuffJHZF01j6pjhpBviUUK0HMovYvnm7cxbuJzSymo/LTb2H4WMdNfiFoeP7KeyovnyDSGE6O2UJEN220Z8iF5NFx7F3OfnYzIbufnh6d3dHSFOC3p9ErfNvg+ATz+bS07OwRbOEEKI3k1qYEWbuGtEC1uxUpMQonWyMlzZ17LyEglehRCiFSSAFW2S4glgW16uVAjROhmZrgB20yaZd1cIIVpDAljRJsfrPyUDK0RHUKs1pKVmYjIZ2bVra3d3RwghAoLUwAohhBBCiIAiGVghhBBCCBFQJIAVQgghhBABRQJYIYQQQggRUCSAFUIIIYQQAUUCWCGEEEIIEVAkgBVCCCGEEAFFAlghhBBCCBFQNN3dAdG97rr6IaadM8tn+/6cXTz++q+6oUfim1f+SGaSnrv+/FfW7tzb3d0RQgghehwJYHs5XUQUVbUVnseh2jC0wSHkF+d2Y6+EEEIIIZomAWwv9+p7T3g9/s3NTzFh1DTyi3O6p0NCCCGEEC2QGljhJcWQCUCeZGCFEEII0UNJBraH0gaHcMG5VzFu+CSSE9LRqDUUlOSyZO13LFj5JU6nw+95MVHxXHzeNYwcPB59bCJOp5PC0jxWbFjA9z99gcNhb7JNRVFI1qcBtFhCEKoN48MXfwRg9iMzaTDVe+0/d8wM7rvxCTbtWs1f3n3Ys/2Z+/6P2Kh43vviDW69/D5ioxP4acNC/vXlHG69/H4mjppObV0Vf/3oOQ7k7vacl5iQypuPz6Og5BgPvngzs6bcyMTR0zHEJVHXUMvPmxbzyffvYrGa/fY3O30gF0+6hr5pA4iPMYCiUFpeyPodP/HV4o+pN9Y2+Vz7ZJ3BBTOuQFGpWLjoa/Yf2NXsa9NWT95+A1dPneCz/Z1H7/fZ9sBrb7N04zbP40vPHctzv7yFr1eu5eV/f86918xi8sihxEbpKKuqZvH6rfz9i/nUGU1e11n85gvoY6O5+emX2XbwiNe+rCQDX7/yNFabjVGzffsQHqrllgvO5/yzR5Cuj0dRFPLLKli+eQdzv/mR6rp6n3OEEEKIjiQBbA+UEJPIU/fMITHBFUzW1lejKArpydncdsVv6J91Jq998Eef887sN5KHbv8TYaE6nE4nVbUVRIZHk5mSTWbKfWSlnMGbH/+pmXYNaINDsNosFJcXNtvHFEMGABVVZT7BK0CKPh3wzeSmGNIpryphxKCz+XrpPK694HamnTMLO3YKi4+yZM23zJpyPTfNuoen37z3hOu52issy+PhO14iShfDrgNbOFZ4mDFDJnLJ5GuJi0ngtfef9unLJZOv45ZLfw2A2WKiorqMoKBgkvRpXDr1RoYPGssjr9yBzW7z+1wnnTeDCF0kAFOmXNjhAWyd0Uh5dY3ncbQuArVKRU19A1abd5/MVqvfayjA24/eR0yEjm0HDhMVEcbIAf24+YIpjBqQzS3PvIqliXPbIloXwQdPP0hWkgGA2gYjDqeTrCQDWRcZuHDcaGY/8yoFZeWn3JYQQgjRFAlgexiNWs3Dd/yZxIQ0tu5Zz7++mENRWT6KojBx9HR+ff2jjB8xlWXrF7B1zzrPeXHReh76xQuEhYSzYOXnfPr9XOqNtWjUGq6/6C5mTbmec8fM4Jul88gtPOS3bXf5QGHJ0SYzvJ5jE10BZV7xEb/7UxuvdWImNyw0gqiIGMxmE3O/fAOn00mSPpVLp9xAflEuP6z8AoDp51xGXHTCSddzBcSD+w7n8x/f5+ul//HsGzNkIn/4xQuMHz6FD6LfpKKqzLMvMSGVm2bdjc1u451PX2LFxoWeLHTftAE8ec8cMpL6MvSMMWzes8bvczGZj2d1zSaT32NOxWvzvuK1eV95HrtnIfj9X//Z6lkIpo4ezo9rN/H8+59gtbmeX/+MVD58+vcMykrnyknjmbdoxSn39cHrLycryUBuYTGP/O19dh1xvb/9UpP58z23cUZGCo/fdi2/fvmtU25LCCGEaIrUwPYwZw+bTEZKNnlFObw89zGKyvIBcDqd/LThR37evASAYf3P8jrv8vNvJiwknNVbljD3izc8t8Rtdhsfz3+b8qoSADJSs5tsOzUxE2hd/asnw1qU43d/cmOG9sQA1h3Ubtz5M06nE4DI8CgAdu7fBIBGE0RwsJaa+mrv9hqvtz9np1fwCrBhx0rqjXUAJMWnee0bNWgcKkXF5l2rWbZ+gVcJxaFje3lkzl088uqdHMhtOqu64Mcv2bNvB/v372L+d/9t8rju5ARe/PdnnuAVYF9uHp82Bq3jhw0+5TY0ahXTzh4JwB//+bEneAU4kFfAY2+/D8A5wwajCw875faEEEKIpkgGtocZc+Y5ACxdN99vPecn373LotVfe019BXDW0IkA/PjzVz7nOBx2qusqiYvWY7P5v00OkOon6GyKO1t7zM9sBWq1msT4FJ9ruYPQE89J1qfjcNgpKstzHZOQjkpRUVB0cumB69yfNy/22x9FUQAwmY1e28NDIwBXza6iqHwyy0WleU0+R7fKijK++WZei8d1pyMFxRjNFp/t+4+5vgAlREeechsxugjCQrQ4nU62H8zx2X/gaAEmi4WQ4GAS42KorW845TaFEEIIfySA7WH6pPYHYO/hHX73l1YWUVpZ5LUtJjKOmMg4HA47+08Y+HSi6Ig4AErKC5ps2x0k5hW1HMC6s6n+MrCJcSlo1Bqqaiu8Bke5r19wQlCbbMigpLzQU3+a3FgqkF9y1OuayY01sIeO7fdpLzxUR1hIOOCqkT3R1r0buGrGbQzpP5o3n5jHviM7KSjJ5VhRDnsObqW2ocbneoGowWT0u33Njr3c98pb1Db4398WQUHH/1y89Yd7/B6jVqkBCFbLnxYhhBCdRz5lehCNWoM+LhloXRbUzR1MlpQXYLP5DtQJCwknNjoegIKTAkOv6zSWELTUtkatxtDYz7wi3xpYf+UDrn42BqfFrj5ERkSjC4tk/5GdnmNSDO7BXzmebVERMUSE6XA4HRT66X9qYz1uZU05DY2lBG77c3byxr+f5boL7yAxPsXTb3CVV3y95D988v27zT7fQFZeXcOKLTtbPrANFEXh7MEDOvSaQgghRFtIANuDJCWkoVarmxzZ3xTPrfkm6lHdgWlz143WxRIe6goS80ubDnIBEuNTUavVVNVWUNfgO/3U8ezsSWUA+gzqGmqprqtsfOwOaHO9jnFtO/5c3M+vrKIYq833Nrk7O5vXxOILqzYvZtXmxcRGx5NqyCJFn8HIQWMZPvBsrpx+Cwdyd7Fp1+pmn7M4zu5wMOLme1s+UAghhOgkMoirB9HHJQFQUVPqd39YaAQD+gwlK/UMr+2GxnrT8poyf6cxoM9QAA7nNT2i3R3klpT5z+L6a6+pcoSsNFf/jhYe9GxzZZeT/AamJ5YLpBgysNltFJ9wbU9WtuT4uSdKaWXtbkVVGdv3bWDBys95/u3fs2m3a9aBPmm9L5tos7tqgbXBQT77tNpgACxW73ppa+NjtUqFLiy0k3sohBBCNE0C2B5EUVxvhy48yjMo6UQ3XPRLnrv/b0wYeb7X9iCNK+DQhep8ztEGhzB17CUArN/+U5NtG+JcQWlpVXGL/QzRukaYK431jicKD9UxrP8Y10CffRs925MS0lCp1F4lDO7MaX5JrtdxRWX52O3HR9N7AtQi/5lhz+CzkzK+g/oOY9ywSa6FC/xwv8RVTQT+btExcVx6yXVcNutG4uP0zR7bEWyNz11R+f4MdJSiCtcgwOy0ZJ99/dNTGo+p9NpeWVvnGSh21uD+PucpikKaIYG0xATUKvnTIoQQovPIp0wPcujoHhwOO4a4ZK6ecTsatStADA+N4IaL72LGhMuobahh/vJPvc47VuSa1/XsYZMYO+w8T/CbmJDKw3f+hWR9GrmFh1i5aVGTbTtxTWuVntSHmMi4ZvvpDkKz0wYwatA4z/a4aD0P3v4cYSHhrN223DMFGBwPMk+coisl0ZVZdc84EBetJ0Qb6hOIpugzgaYzrP5KEQBmTryS3932HPfe+DjRuljP9uAgLZdOuYERA8ZitVnYuHNVs8/3ghlXMGDAUPr3H8zFF13T7LEd4WiRa8qzSSOG+P0i0xHcq3ndMWsGg7LSPdv7paVw95UXAbBs03avc2x2BwvXbwbg0VuuYfSAfp59cVGRPHvnTXw35xnm3H8ndkfT8wgPHTKahx96gYcfeoFp51/SYc9JCCFE7yE1sD1IZU05Xy3+mCun38LVM2/l8mk3UVtXRVRkLCpFRb2xlufeeoDKGu9Vjpav/4GZE68i1ZDBg7f9CbPFhMVqRtc4x2pR6TFefOeRJleaAti+bwNWm4WoiBj+8cyX1NRVefaZLSbufe5az+MjefvZumc9wweexSN3vURNXRVWm4XYqAQURSEn/yDv/Pdlr+t7Zhc4qd61tr7aMxOAZxaEk2pZ3YHuiZlaN3dpgr/zvv/pc8YMmcjg7BG8/cyXVNZW4HDYiYmMR6PW4HDYefu/L/u8nicLDQnx/DsktPNvnc9buJzJo4Zy/fRJXHruOIwnLKRw2UPPUt0B01N9sugnpp09kmHZWXzyp0coq6rG6YSEGNfPzMG8Qt77dqHPeXM+/pLh2VlkJBmY++RvqTOaMJrMxEdHoigKFTW1PPXOv5ttOzOzL+Ca23jjZv+LRwghhBDNkQC2h/nk+3cpLs9n+jmXkZ7UB114FEWl+WzatZpvl83zG2yZLSaeeuMerpwxm9FnTiAuWk+Q08nhvH2s3rKMH1Z+gdnS/ApSZZXFPP3mfdw06x4yk/t4ZSxz8g/6HP/Ke49z1fTZjB02ifjYROx2G0fy97Nq8xIW/PSFz2ArTxa1MXur0QSREGNgf87xBQSSGzOpBScEqsFBWuKjXSUA/jKwyfp0VCo19cY6n9dm7+HtPDLnTq6cdgv9MgYRGxWP1WaluLyAvYe2MX/5p61atGHFTwuZOeMKVCqFZcsWtHj8qVq3ax/3vvJ3fnn5hWSnJhEXdXwOV6WDbs1brFbueP4Nbr1oKtPHjiLD4PrycbigiKUbtjL324XUGX1/Zipr67j+yReZfdE0po4ZTrohHiVEy6H8IpZv3s68hcspraz202Jj/1HISHctpnH4yH4qK5ov3xBCCCH8UZIM2c7u7oQQonfQ65O4bfZ9AHz62Vxycny/HAkhhBAtkRpYIUSXycpwZV/LykskeBVCCNFuEsAKIbpMRqYrgN20SebdFUII0X4SwAohuoRarSEtNROTyciuXVu7uztCCCECmNTACiGEEEKIgCIZWCGEEEIIEVAkgBVCCCGEEAFFAlghhBBCCBFQJIAVQgghhBABRQLYTqLTh5MyNAl1sLq7uyKEEEIIcVqRpWRb8P6ECuqsCgUNalaXaFlerG3VeeGxYYy+bgjmOgv7lhziyPpjIPM9CCGEEEKcMrUuIvaP3d2Jnuy+AbUkhDjoo7NxXqKZ2GAHa8taDmIdNifBoUFEp0aRODCB6ORICneX4HRIFCuEEEIIcSpkHthWCNc4mZxo5oFBNSjAL1bHklPXuuR1eHw4Z980HJ0+nKLdJaz7SCZwF0IIIYQ4FVID2wr1NoX5eSHsqw4C4IxIW+vPLatn1T83YKoxkThIT8aY1M7qphBCCCFEryABbBuYHK7/29uYszbXWdgxfx8AA6b2QVEpHdwzIYQQQojeQwLYNojUuCLXBlvbA9DCXSUYq02ERIaQkB3X0V0TQgghhOg1JIBtg7DGALbW1vaXzel0UrK/DID4rJgO7ZcQQgghRG8iAWwbRAS5aggarO0rAagtqQcgLDa0w/okhBBCCNHbSADbBkb7qdWuWk1WAIJDgjqiO0IIIYQQvZIEsG2wqXH+1+nJJto1Dqtx8Jcir7oQQgghRLvJSlxt8Pb+cGK0di5PN3JhqpFqq8oTlN69Npa6dgzuEkIIIYQQbSMBbBvU2VTsqgomOcxBWpiNcI3ds0+tOAEJYIUQQgghOpsEsG1wW986bujTwPIiLQ9uiKLCrKY9y5g5nRLoCiGEEEK0lwSwbTApyQzAvJxwys3qNp+vCXadY7O0fiUvIYQQQgjhTYYTtUGUxjWNls3RvvNDo13TZ5nrLB3VJSGEEEKIXkcC2DZoaJxGK1zTnsIBiGtcwKDyWFWH9UkIIYQQoreRALYN3CtwRbQjgI1MiiAmLQqn3UHxvvKO7poQQgghRK8hAWwbuFfgCte0rYZApVYYNmsQAEc3F2CuM3d434QQQgghegsZxNUOQW0I+9XBakZdfSaxGdGYai3s/vFA53VMCCGEEKIXkAC2lYbGWOgf5Zo94Fh9yzMQaEKDSB+RRPbETEKjQrA0WFnz3iYsDdbO7qoQQgghxGlNAtgWvD+hgjC1kzita9GCDWXB7K4OavG8+Ixohlw8AIDSQxVs+XwnxmpTp/ZVCCGEEKI3kAC2BWlhNuqsCgdrNKwu1TLvSFirzrNZ7ORtLSR3UwFlh2TQlhBCCCFER1GSDNntmxNKCCGEEEKIbiCzEAghhBBCiIAiAawQQgghhAgoEsAKIYQQQoiAIgGsEEIIIYQIKBLACiGEEEKIgBJwAWxSRDSjk/ugVcsMYEIIIYQQvVHARYEJYTruGDGJWouR7/ZvZUXuHmQeMCGEEEKI3kOti4j9Y3d3oi2sDgfhQVoyoxIYakgnPSqOrUW5OJwSxgohhBBC9AYBF8AabRa2FueysegIA+KTyY41kBIZw8aCI93dNSGEEEII0QUCrgbWraSumjlrFlBlqmeYIYNz0vp3d5eEEEIIIUQXCNgAFqDWYuS/u9YBcMkZw1EpAf10hBBCCCFEKwR8xLelOJcKYx3RIeEMiE/q7u4IIYQQQohOFvABrNPpZE9ZPgD94ySAFUIIIYQ43QV8AAtQUFsFQFyYrpt7IoQQQgghOttpEcA2WC0AhGu03dwTIYQQQgjR2U6LAFZpXMpAUbq5I0IIIYQQotOdFgGsEEIIIYToPSSAFUIIIYQQAUUCWCGEEEIIEVBOiwA2WB0EgMlm7eaeCCGEEEKIznZaBLCxYREA1JhN3dwTIYQQQgjR2U6LALZfbCIAR6pKurknQgghhBCiswV8AJsaGUtWdAJ2p4NdpXnd3R0hhBBCCNHJAjqAVatU3HDmOADW5h2gxmzs5h4JIYQQQojOpunuDrSXVq3htuHn0ifGQLXJyJd7NnZ3l4QQQgghRBcIuAA2NCiYsSnZTO87hJiQcOqtZv664Ufqrebu7poQQgghhOgCARfA9osxcO3gsQDsLS/gg60rqTTVd3OvhBBCCCFEVwm4ANZst7E+/xCr8w6wt6ygu7sjhBBCCCG6mJJkyHZ2dyeEEEIIIYRorYCehUAIIYQQQvQ+EsAKIYQQQoiAIgGsEEIIIYQIKBLACiGEEEKIgCIBrBBCCCGECCgSwHaDIGB8kJ1+KpkAojcJUqkZkZRBRlR8d3fltJcUEc3o5D5o1QE3U6AQQohWkL/uXez8IDs3BduJUzl5w6ThgEPd3V0SXWB8ajaz+o8mOiSMD7f9RG51WXd36bSWEKbjjhGTqLUY+W7/Vlbk7kG+LjZtiCGNUYlZ6MMjCQvW8uKqbzFaLd3dLSGEaJIEsF1ErTh5QGtnUpAdB7DSpmKvXRLgpzu1ojB72LmcldIXh9PBpsLDHK4s7e5unfbyaitZm3eQMcl9uO7McQxKSOHdzcuwOuzd3bUe59L+I7kge7jXNrWidFNvhBCidWQhgy7yQKiVqRoHRQ6FF0wajrQieB09IJ5Pnz0PgKG3fE29ydauthNjQ1n1jwsB6H/9l9jsHfuWL3p9Bn2SI7jluZWs2lHSodf2p6Nel64we9hExqX2o7Shlrc3LSGvpqJDr3/X1Q8x7ZxZPtv35+zi8dd/1aFt9QQXTLyK26/8Det3rOTlfz3W4vH6iCjuHjWVpIhothXn8veNS7qgl4EjOiSMF6Zcg0pR8cWe9fx8bL9kXoUQAUFSgF1gfJCdqRoHNU6FxxuCWhW8isA3MimTcan9qLOYeG3tgg4PXgF0EVFU1VZ4/jNbTADkF+d2eFs9QXJiOgAFrXx+JXXVzFmzgCpTPcMMGZyT1r8zuxdwUnVxqBQVpQ21LDq8U4JXIUTAkBKCLnBjsOu25QdmNSVOuTXXW1xyxkgAvtq7iQpjXae08ep7T3g9/s3NTzFh1DTyi3M6pb3ulqJ3BbD5xUdbfU6txch/d63jrlFTuOSM4azJO4DD6eisLgYY190Yi73n3sUQQgh/JBXYyfqrHaSrnNQ5FZZZ2zZgy+5w+v13bxcIr0tWdAJJEdHUWy2syz/YZe2mGDIByDtNM7ApCRkA5Je07fltKc6lwlhHdEg4A+KTOqNr7TJ1ysVEROi6rf0GmyvjGh4U3G19EEKI9uh1GdiEmChunjmFc0cOISU+FieQW1jCNyvX8p8fl2N3eGdm0hP1zH/1j+QUlnDlI88x+6JpXDzhLFIT4qiuN7Jg9Qbe/OxbzBb/t97OVLmut82uYG1jX6vrzACYrXZMlpYHn6QmhPH7G85k4jAD2iAVhwvqePeb/azb0/ygIX1sCLNnZjN1VBLJCWGoVQrHiutZsqmQd77ZR3Wdd8//dOdIrp+W5XOdD5+c6LPtV6+sYdH6glNq72RtfV26Q79YAwD7yguwtWLgUKg2jA9f/JHy6lJ+/ezVXHzeNZw7ZiaJ8SmYzEbWbfuJj+b/nYZmMrmKopCsTwNaX0IwYuBYLp16A9npA7HYLGzfu55/ffE618y8jZkTr+RvH7/A8g0LPMcnJqTy5uPzKKBlQUwAABUSSURBVCg5xoMv3sysKTcycfR0DHFJ1DXU8vOmxXzy/btYrGa/7cXHGLhk0rUMHziWhFgDDoeDgpKjLF33PT/+/BXOkzKjL/3+X2SlnuFznRd++7bPtruevpzKJmZ3cDqd7CnL55y0/vSPS2J3aX6rXp/ONnrUeIYPP4tt2zawdt1y6upqu7T9hsaSgVCNtkvbFUKIU9WrAtizBp3Baw/chS48DKfTSXl1DdE6Hf0zUnko4yoGZKTx+D8+8DonK9kViBwtLuHNB+8mNlLHht37OaiLYPKoYdxy4VQMcdE89Nd/+W1T35jjzmtH3Wt5jSsIqKptuS4tKS6ML1+YQlyU64OopNJEQnQIr//mLB5/Z0uT5w3pE8OHT04gMjwYs9XO0eJ6IkI19E3R0S8tkksnpnHNkysoKGvwnFNrtFJWbfI8jtFpUasUauotWGzeAYjZ4v24Pe2dyuvSXeLCIgEoqq1u1fEpBldmsaA4lwdvfY5kQwYHc3ZTXlXCkDNGM+2cWSTqU3j2bw80eY2EGAPa4BCsNgvF5YUttnnplOu5adY9AJgtJuobahk3fDKKSkWYNtzVn1LvW/Upelc/C8vyePiOl4jSxbDrwBaOFR5mzJCJXDL5WuJiEnjt/ad92hsxcCy/u/VZQrSh2GxWyiqLiNTFkpV6Br9IPYOMpD68/d+Xvc4JC42gqtZVOxykCSI8VIfdbqe2wft1NZkamgxe3QpqqwCIC+vYjGeELpIbrrurVcd+9dW/KS0r9jxevWYZI0eOY9TIcQwfNoZt2zewdu1P1Na17ufmVBltrt8lrUaDoig4nT3zjoYQQpys1wSwibExvP67XxERGsK8hcv42+ffUVPfgEat5v5rZnHrxdO4ZOLZvP/dYg4cO56d6ZPkCmBHD+jH2199z3vzF3n2TR41jDd+90tmnD2Kl2O/oKSiyqfdiMaSV2M7Phhq6q3UNFgpKDe2eOxDN5xJXJSWvNIG7nllDbuOuPoydlACT9w6rMnzXr53NJHhwXy2LIc/fbCNugZXLVx2io7/e3As/VIjefSWIdw3Z53nnBc/2sGLH+3wPHbPQnDvnHUtzkLQnvZO5XXpLmGNt2RNNv+ZyJMlG1y1nf0yBjN/+X95ee4TnmzkwD5Deea+/2NIv1Fkpw/k4NE9fq/hLh8oLDnqk8k8Wf+sM7nxkrux2+2899XrLFz1DU6ng7hoPY/e+SKx0QmAbylCamM/B/cdzuc/vs/XS//j2TdmyET+8IsXGD98Ch9Ev0lF1fGAUh+XxIO3PYc2OIRPvn+Xb5Z+gtVmQVEULjz3Km69/H7OHz+Lr5Z8RMkJwfe9z13r+ffksy7gnhseY/ehLTz71m+bfX7+uLON4R2cbVSrVMREx7buWE2Q1+OVPy9i/cafGT1yHKNHn8PIEeMYNnQM23ZsZO3aFdS28gtQeymNVWQWu02CVyFEQOk1AewvLp1BRGgIP67dxJ8/+Myz3Wa388anXzNz/GgSY2MYkJnqFcBmpSQCsO3AEa/gFWDZpm3UNhjRhYWSYdD7DWAVxfWh4GzHvIpOJ4y49ZsWj1OrFM4f46rre2buVk/wCrB2dymfLTvCU7cN9zkvSK3ipY924AR+3l6M1Xb8A+xgfi3Pf7id9x+bwMShhjb33Z+Oaq+1r0t3UjW+3a19392Dk3LzD/Dpgn967dtzeDsHj+6hX8Yg0hIzmwxgUxMzgdbVv1547lUoisIXC9/nx5//59leXlXC4rXz+cWVD1BVW+FTsuDOFO/P2ekVvAJs2LGSemMd4aERJMWneQWwsybfgDY4hB9WfsEXCz/0bHc6nXy34jOmnXMZKfp0MpKzvQLYEyW7B3CVHmvx+fmjNA5Y6ugpTqurq3jx5Zan9GqK2WRk1eqlbNi4ipEjxnHWmAmMHD6W4UPHsG37JtauXU5Nre/fllOlABPSXeUZO0vyOvz6QgjRmXpNADtltCuA+2TRCp99doeDiupaEmNjsFi9R+NmJbsC2O9Xb/B7XaXx07DB1LpMW2eIjdQSHuJ6K9f7qXddt8f/rVWr3cHSzUVNXvdQnqseTxcWhFqlnPKAqa5uL5Ck6DMBWLVlmd/91sbBNhZb0/XBqY3BZUv1rxq1huEDx+J0Olm8dr7P/npjDQAFJb4j/d0B7M+bF/u9tvv3wWT2zo6PGjwOgEVrfNsDsDRO/2VtonYWjgewhW2YgSCQWCxm1q5bzqbNqxgxYixjRk1gxPCzGDpkNG++9Txm06nfcXhm0pWef0cEh6BSVGwtymXezjWnfG0hhOhKvSKATYiOJCE6ErvDwfaDOX6PiY9y1SwWlHoHe5mNAezuHN8PzcjwMCJCQwA4WtJ9qytpg1y3Ae0Op+eW/ImqapqvFdWFB3HZhHSy03SEBGs8GapQ7fFZEzoya9XV7QWClMZb8weP7va7Pz7alZUuKS/wu991DVdwmVfUfACblpRFWEg4JRVFfutG4xrbyi/y/ZlPbqyBPXRsv8++8FAdYSGu2tnCsjyv7fExrmvecNEdOBy+5Q3u4LSorOnBVcmG9s1AEGisVivr16/k2LEjXDjzSuLjDag66BfCEB7l9bjCWEelqR5TM1+MhBCiJ+oVAWyfFNft9fySMqw23wAvIjQEfWw0AEcKjg+wiI3UERUehsPpJLfQt7bTXV5QWlVDbX3Tg456sksnpvHM7SPQhQe1fHAAttdd2lJOqFKpSUxIBSCvKMdnf5AmmPjGWQ2ay666SwhaysCmeDK1vm0BpOrdgaL3/qiIGCLCdDicDgr9ZGdTE13nVdaUe5UeuLcDjBp8TpP9sljNTQ4+U6nUJManAFBQ3L4SgkCRmpLJ+PGTycrsB0BB4TFs1o6Zp/VX380FXOUDOm0oVwwYw+TMQQSr1fx7+6oOaUMIIbpC7whgG7Ooh/L9fzj2bQxwSyqqqDOafM4rLKvAYvXNUGQ1DvA63MR1AcyNCxdolZ53OzzDEM6Ld48hSKMw55NdzFt8hIqa47dwT1yCNhDb607uieGDVS3P/auPS0Kj1lBWWYzR7PtFKNmQjkpRUVFVRoOp3u81onWxhIe6gsv80uZvsacaXFOg+QuWAZIT3QHsSTMQNAa+ZRXFnpIGr/MaA9+8kwJj9+CytdtW+Cy80Fru18hiNVNWVdzyCX4Eq11fmjo623gqsxCcKCurH+PHTiY1NROAgoKjrFq9lMNHfLPdp8oJ1JiNzD+wmbGp2YxMzJIAVggRUAI+gFUUBUVR/N6WdEs1uEZUF1f6H9E7on82ALuPeH9gZ6U0H6BmNQa+hwuaruusbIxb4zvxlrjZ6nruKgW0QWrMVu95R0ND/L/NU0YnEaRRWLu7lL99uddnv9LB9/G7ur3uVNNYAxobGt7ise6pqeob/M8BOrCPaxaJI/n7mryGO/taUlaArYUALTE+GYCKat+yl+AgLemJrgD35OVa3WUOeSdlZo/v91+D626vqq79S+m6B7kVlR5r92j52LAIAGrMphaObJtTmYVAQSG730DGj51EYmJjFj4vh1VrlpKT0/kLYFjtrr8doUHBqBSVrFAmhAgYAR3ADhk8kmnTLkVRKSxbtoDNW/wPRAgOcj3N6PAwn32h2mCumOy6rblk41avfVlJrgzsiWUFJ3JnaHPymw5gD9hVgJ3B6s7LwFbUmGkw2wnTqhmUGcWWA96BwqDMaL/nuQd+lVT4/0Dvm9q6+TLtjR+Ciqr5ALSj2gsEOdXlAGTHJrZ4rHtqqoiIKBRF5TUFlkatZurYiwFYv+PnJq9hiHPdXi9tRXZSG+yq2w7V+v4+TBg1DW1wCBarmdJK72t5AlQ/tbGu5+He7x3ABjVOWxV5Uv2lW2x0PMFBIVRWl2G2+P/ZcC/QUHAKCxD0a3wvjlQ1P9VbW53KLAS333Y/8fGuL8rH8nJYtWoJuUcPdWT3mhWicf1OWuw2CV6FEAEloJeSPe+8mQQFBaFRa5h03owmM3gHj7kGvkw9awTnnzXCc1x6op6/Png3mUl69h/L57tV3jMN9GmscW0qw+qeI7a5DOxWu4LRqZCicnCmunM+IOwOJ0s2up7j47OHEhl+fFnI+KgQ7prVz+95uxun2xp3ZgLREd5LSWYkRvDbawb5ZHP9ySl01TuePyqp2cFXHdVeew0dMpqHH3qBhx96gWnnX9Jp7QDsLcvHZLNiCI/yBE5NcQeGOJ1cNeNWz8+nLiyS+25+iswU19RSKzcubPIazsYpotKT+hATGddse4WlrgFW54+7lNTG2/sAowaN46oZswGora/2yXS6Z0poqsbWnSU9ef+RfNct8LOGnMuYIcdXa9MGhzBryvX8/anPefbeN9Gom/4+HRIcCkBsVDwaTdvrp1MjY8mKTsDudLCrtOdMGRUfbyD36GHmffJP/jPvnS4NXsGVeQUwWnvuoiBCCOFPQGdg7Q7bCf92QBNJzm9WruX6GZPok5zInN/cidFswWyxEK1z3VI8WlTC/a/8A5vdO3jKbFyFy18GVqNWk6x3BQrN1cAanQo/WFVcHmznLq2dhxpUdMaEWy9/vJNzhugZcUYci1+f7lk+dvyZet76ci8DM6NRn5QhXb6lmPV7yjhrYDw/zJnGD2vzqTfZ6JusY9LIRB5/ezOPzR6KNqj5Os4PfzjE+WOSuHlmX66YlIHRfPx9mf7bhZ6lYTuqvfbKzOwLuOYe3bi5c6cNMtmsrDy6j2l9zuTawWN5afV8T13sydwj8P+3+GNuv/IBZk2+jqraCvSxiahUauoaanl57mN+607dtu/bgNVmISoihn888yU1dcfnDTVbTF4LAixe8w0zJ15BbHQ8rz7yASXlhWiDQwjVhvHqe0/w+K9eJS5az18f+w9L1n7L10vnAZCS2Big+pkFQKPWoI9zldScXAO7evMSLj7vWrJS+/GHX7xAbX01tfU16GMT0WiCKK8u5ZV/PU59M8vkbtj5M1fPvJ0zMgfzwZ8XeNUCPzrnLsoqm848q1UqbjjTNY3X2rwDnvKOnuDjee+Ql5fTbe2HBbmy4w3N/GwJIURPFNAZ2MVL5lNXV0tDQz2LF3/jyUKdzGi2MPuZV/lowVLySsrQqNUEBwWx+8hRXv/kf1z16AsUlJV7naMNDiYpzlXXdsRPhjUryYBapaK2wUhpVU2z/ZxnUVPkUMhSO3gi1Ep4J5R65pc1cMVjS5m/6hgatYopI5Pom6xjzie7+Nf8A37PcTid3P7CKt76ai9Gs53rzu/DtVOzCNGq+eVLa/hiReumK1q9s4Q7/rKarY2lC/FRIZ7/Tpz+p6Paaw8FhYx0V63z4SP7qaxoftnRjjD/wGZKG2pJjYzl7lHne7JdJ3NPD7V223L++tGzlFYWER+tp7quimXrvuOhl28jJ7/5esiyymKefvM+dh/ahslUT7Qu1vOf0eQ9MKyg5Bh/+vvv2J+zC7vdRniYjoO5u3ni9bvZunc9n/0wl3pjHUn6NGzuwWhBWs9UXv4ysMn6dFQqNfXGOiprvH+XbHYbz/ztfr5eOo+i0jxCQ8LRRUSRW3iIj779B79/cXaTizO45eQfZM77T5KbfxCVovI8t4hQHeVVTU9hp1VruHPEJPrEGKg2Gflyz8Zm2+lq3Rm8AmgU10fA6VR/LoToHZQkQ3bPGx5/GkpSOflLqJVYlZNKJ/zPomapVU2VUz44uoJen8Rts+8D4NPP5nbJABmAhPBIfj/2QqJCwqg2N7Dk8C7W5B2k1uLKAurCo5j7/HxMZiM3Pzy9S/rUG4QGBTM2JZvpfYcQExJOvdXMnLULyK9p/0Cy05E+PJJnJ12F0+nkrY2L2CErcgkhAkRAZ2ADSaFD4TcNway3qYhR4DatndEaGTTRVbIyXNnXsvKSLgteAUrra3j+56/ZXnKMKG0YVwwcwxB9ime/e+BTYQ+qyzwd9IsxcO3gscSEhLO3vIA//fQ/CV79KKmvYX3+IRRF4ddjpvPS+dfzzKQrm7xbIIQQPUVA18AGmionPGcMYqDayfQgO/WSfe0yGZmuAHbTptVd3naN2chbGxbRN9bAOWn9aThhMY0UTwB7ei6P2l3Mdhvr8w+xOu8Ae8uaXr1MwAfbV5JXU86o5D7owyKJDI9CLSUFQogeTgLYbrDHrrDHLi99V1GrNaSlZmIyGdm1a2vLJ3SSQxXFHKrwHmzkHsBVILduO9S+8kL2NbGql/BmdzhYeHgnCw/v7O6uCCFEq0kNrBBCCCGECChSAyuEEEIIIQKKBLBCCCGEECKgSAArhBBCCCECigSwQgghhBAioEgA2wuoNCqSBuuJTonq7q4IITqZolYTmZ1JqD6hu7ty2tPGRhN1Rl9UQW2bVUanDydlaBLq4M5ZNluI3kDmcjrNpY9MZuC0foREadny+U6q8qu7u0tCiE4SM7AfhnFj0ESEkb9oBcaSppfZFadOGxVJ2szJ2IxGStduoXzH7ladFx4bxujrhmCus7BvySGOrD9GEyuhdyrDgARShhiIiAsjKDSIFf9Yj81o7fqOCNEOal1E7B+7uxOBJHzwSCJHjiM4IRFz4TFw9sxZyFQqhZFXD6H/lL6og9UU7Cjm2NZCLA0t/3Hqn5HKs3fdxBWTz+FYSRlF5bKCEcjrInouRaWQOm0S+rNHomjU1Bw8QtXeg9hN5u7u2mnNYbejCdESqk9A1yed0IQ4ag7ltvi54LA5CQ4NIjo1isSBCUQnR1K4uwSno+s+TwZOy2bYZYOIStIRGhVCcHgwh1bmYLfKCpEiMEgGtg1UIaHoRo4DIEifhLkgF9PRw606NzR7IOEDhqHWRaJogjzb63dvpXbTqg7v67ArBpE6PIn6CiPrP95CTWFdq8/94503MjjLtUJUwXlj2bKvY5devWPWDO6/9lLm/7yex/7+vs/+r156kr4pSdz78lv8tPXUJ1e/fvpkHp19dZPttVZ7Xhd320s3buOB195ud9utaaMtz+/J22/g6qkTfLZvO3iEm59+uYN76OJ+309mtdkpKq9g8Yat/PPrH6htMHZrP7tTe39ekqdOJHpANpbqWo5+twhTWcd+ufrDH57g8suv8tm+c+d27rzzlg5tqye4+urr+d3vHuanFUt5+JHfNXmctbaOvEUrKNm4lYyLpqHrk0H6BVPInb+o2es3VBnZ/PlO9i0/wtk3DSdxYAJjrhvKuo+6ZqGVkCgt/c7LAmDXgv3kbMyXzKsIOP8P8XVQTxkz8s0AAAAASUVORK5CYII=;" vertex="1" parent="1">
          <mxGeometry x="1080" y="868.5" width="688" height="250" as="geometry" />
        </mxCell>
        <mxCell id="q35H9doEMfjliMhX2mms-4" value="It will return you buffer, so install the csv-parser and pass with the pipe function will make it become javascript object" style="text;html=1;strokeColor=none;fillColor=none;align=center;verticalAlign=middle;whiteSpace=wrap;rounded=0;fontFamily=Comfortaa;fontSource=https%3A%2F%2Ffonts.googleapis.com%2Fcss%3Ffamily%3DComfortaa;fontSize=25;fontStyle=2" vertex="1" parent="1">
          <mxGeometry x="1161" y="1180" width="526" height="30" as="geometry" />
        </mxCell>
        <mxCell id="q35H9doEMfjliMhX2mms-5" value="" style="shape=image;verticalLabelPosition=bottom;labelBackgroundColor=default;verticalAlign=top;aspect=fixed;imageAspect=0;image=data:image/png,iVBORw0KGgoAAAANSUhEUgAAAgAAAAAnCAYAAAB5TvBdAAAABHNCSVQICAgIfAhkiAAAABl0RVh0U29mdHdhcmUAZ25vbWUtc2NyZWVuc2hvdO8Dvz4AAAAtdEVYdENyZWF0aW9uIFRpbWUAVGh1IDMxIE1hciAyMDIyIDA5OjQ3OjI0IEFNICswNxQKY64AACAASURBVHic7Z15eFTV+fg/d/bJzGTfJpmsZIOwQyCAECgg4o7aqhXcaC1a2/7so7Za9WuLO1Zbv/3WuuGCBcUNoSICBWQPi0ggJIFAQkKSyb4ns8/vj5ttmGEJJCTK/TyPj+Te+97znjP3nvc973nPuYIxIsmNRL8xNHEk1824retvnZ8/KXHDUCiUAHyfl82zbzw8UOpJXOa0tNYPtAoSEhIDhGKgFfixMyxpNBkjpvo8l3cih7998PSlVUhCQkJCQgLJAeh3osPjPf5us7RSUn6cLXvWsXnPWlwu58AoJiEhISFxWSNIUwASEpcv0hSAhMTli2ygFZCQkJCQkJC49PTZFEDkgl9fkFzDp+/2lQoSEhK9RKP1G2gVJCQkBggpAiAhISEhIXEZIjkAEhISEhISlyGSAyAhITGokClkhKeF4G80DLQqEhK9Qh+mxZgehlwlH2hVzgtpGaCEhMSgIXpUBEnT49D4qzi8+hhNFc0DrZKExHmjDdQy8qZUbK12CreWULq/AgbxOjvJAZCQ+JGTEhPFA/PmolKpeGPVOg4WFg20Sl4IgsCIG5IxjgjH7YKK3BoayiTjL/HDoqWqlfKcKozDwxg2dwihQ4I4+Fk+LodroFXziTQFcBEY5txE4C33oAiPGmhVJCTOyJ/u/imTRw5lfNoQrr8iY6DV8Un6dUkYR4TTVm9h19sHyPk8n9aatrPKjE0OIvf9ueS+Pxc/tTSWkegfevOctTdaOfTlUba//h0t1e2EpwQz6qbUS6Rp75EcAAmJHzmFpRU4XW7Ka+r4ZMvOgVbHi4ihIUSPisDe7mDfskM0V7YOtEoSEhdFW107e5flYG22Ep4agmlM5ECr5BPJbZaQ+JGz+L2VLH5v5UCrcUaSsuIBOPrfYtobrQOrjIREH2FrtZP3TRGjb0kjKSuGsoNm3INsJkCKAEhISAwYAdEG9GFa7O12ynOqeiXrcvf89yDrWSV+NFzMc1aVX4ulyYraoCYkIaiPNbt4+ikC4MZWXIit6BjOxjrcLicyPz3KSBOaoSMR1FrfYnI56uRhqEyJyPT+IICrtQV7eTHWgsO47XYvkYAb5iMolTR++W+UxhjUKenIDIHgdGCvLMdyeB+u1hafxcn0/qhTh6MIjUTmp0eQCbjaWnBUmbEUHMLV0uRxvXbsZNSJ3vM5+mlzvI617tyEvfzkebTV+aHVarnxxluYnjWDmNhYFHIFpaUlrF27hi9WfYbL5fvBTEsbxk9vvpXUoWmEh0UgCAJms5mt27bw0Ucf0tzsmWi1bNlKTNEm7r13PkXFJ3ze8+WX/864sRm8+eY/WfHRh31Wx0vFo3fcxC0zJvPU28s5XmbmnmtmMjYlEYPOj1JzDf/esIU12/f6lI0MDuLnV05j0vA0jCGBuNxQXFHJmh37+GzzDlxu3ym/Q+NiuOfamYxNGYJSIaOgpIy/r1yDIAgsffy37Mk7yoN/fbPrej+Nmi3/eBaAGQ/+iVaL58j46knjeHrh7WzPyeP3r73jce7GqZk8ftctXjocLS1n/p9fGVTtEhwbAEBdcSMuZ+8618ZWGwBWuxOL7dyyggA3XmHipiwTKSYDaqUMc62Fb3OqeXP1cWqbfEcfYsL9WHhNAuNTQzCGaFHIBcpr29ibV8/StScoNntOWSy5fxRXZ0axfONJnl12xOc9H58/jDtmx7HjcA33LfHdpr1h979mY9AqyLx/AxlpIfzy2kSSTAacTjfZebW89ulRjpf77gfDg9TcMSueGaPDMYZpkAkyyqra2Px9FUu/PkFji3e/O2+qiWd+MYJV28t4cXkev7s5mRljIwg2qKhptLJhr5l/rDpGa7v3x856256d6DQK7pqbwJyMCExhOgTBTVlNO1sOVPHOV0U0tNj6VM9Oevuc9cTtdlNzvB7TmEiC4wKoOX7ub2/ExiQye9a1yAQ5m7espfBEQa/K7A394AC4acv+FlupmGksyOUISjWuliashUewlZ5AnzUXuX/gaZooMWRdhTwoVLyLww4uN3L/QOT+o1HFJNK8aS1ua7vPUlVxSWiGjcZhPoWzvhZFeBSqmASU4Uaa/7sGV5vnwy8PCkWfNRdBoQC3G5elHbfbjUyrR5WQgjImkdZt63HUVnbXzG7zLF+lQRAE3DYrXrEdl+MC28+biIhIXn75NUzRJgAamxpBKZCYmMSDDz5EevpI/rL4SS+5n/3sdu5f9BsALBYLNTU1qNVqTKYYfn77AjIzJ/OrX92Lw9H9ghfkH8EUbSI5OcWnAzB0aDrjxmbQ0FDPF6s+vah66fUGbpl353ldu+arldTWVV9UeZ3ER4YDEGTQ88ajD5BzrIjtB/MYlhhDUrSRJ+++FYfDyde7v/OQmzwijecXLUCrVmN3ODDXNRDsbyAtzkRanIkkUyTPf+DdJrPGj+Ivv/w5Crm8S25oXAyvPXQf/1r1DQDFFZ6j304dq+obvYx/z/NFFZVe58KC/Klr6nbstGo1WrXKq4yBbhcAbaAagJbasyf8+aKuWeyYG3wYqNMRBHhp0WiuzjQCYmfe1GYnJsKP+bPjuHqikbtfyOZ4mWc/MTwhgPcem4hWLcflclPTaMPhcmMM1nJzlo65mUZ+tWQv3x3r7thX7yjn6sworsyI5PkP83w6PzPHiW391c7yXtf7bEwfHc7z942kvtlOU6uNiCANs8ZFMHFYCHf8ZZeXE5AeH8Dbj2bgr1NitTsprWpHr5WTEKVjiCmRaycbmf9MNhW1vvtdQYC3H80gUK/i+8J6AvxUjEsN4s6rEhifGsz8Z7Ox2ruN64W0J0CgXsmyJzJJNOoBaG534HK6STTqSTTquWZSFPMX76K81tInevakN8+ZL1qrxbbTBmnO6/orpsxEr/MHYOrUK39YDoDt5HFspUUICgV+46agNCWAIOBsbaZ933Yc1Wba9nyLYdYNHnLa9LHIg0JxtbfSlr0VR41ZVDA4DO2ELOR6f/zGTKR19xaf5aoTU2jesApXu9iRCAoFuqlXogiJQJM+hra92zyu1wwdhaBQ4KippC17Sw85JdrRE1HFJ+M3YRpNX39K50JOy6F9WA7t67qHYc5NyA0BtO7egqOqb1/kTuRyBc8+8yKmaBN792bzt7+/THl5GYIgMHvWHB599AlmzJjJum++Ys+e3V1y0VEmfnXfr3E6Hbz81xfZsOFrnB0jrNSUoSxZ8jcSE4YwblwG2dndiWH5BfnMnHklycmprN+wzkufOxfcA8DyFcuwWHy/bOeLTCYjIOD8wmJyhfKiyupJnFHsfK+fOoF7n32NYrNoGOUyged+tYAZ40Zy2+ypHoYuKjSY5xfdiVat4l9frOPD9d9is9sRBIHbZk3loVuvZ960TN5fu4nymjoPuf+59zYUcjlvfvkN73+9GbvDgUqp5Kl7bmXBVVkAnDR7OjcJxgjAt4EX6yCeL/Zx/q3V63lr9fquv5+462dcP3UCJ81ndwAuZbt0otSIXZDT0vsQflOrneZ2B+a6cz+HN0yJ5upMI+1WJ08tPcy67Apcbjcx4X78ZeEIJqQF89Ki0dz85HYPuUU3JKFVy9l/tJ6H/3mAqnrRGdNp5Tx2xzDmTTXxwqJRzHl4C512fufhamqbrIQGqMlICyI7z7PeIxIDiAzWYrG52Ljf9+97ofzymiHc/8p+tuWIz1OCUcfffjOGpGgDj9yexqK/7vO4/rn7RuKvU/L51lO8sPxI10h4SJSeVx4cQ1K0nkduT+X3//jeZ3mzxkXwdXYFi9/PxeEUGyAt1sCyJyYxLCGAm7JMrNjYHQm9kPYEePi2NBKNeorNrTz6+kFyixsBSIrW89KiUaTG+vPUXeksemV/n+jZk948Z76wW8XBoFJzfpsD2WzWHv++uD72XPS9A1B8DAB16giUMYldx+U6A/ops2hY8zHOhjqcdTXIg8XRPoKAKm4IAO3f7e4y/gCOumra929HnzUXZXQcyJXg9PbErIV5XUYcwO1wYMk9iH7alSiNMV7Xyzs8LOux3NPk7LQf2IX1eH6HbgzoRg5ZWTMYMiSZ4uJinnzqj1it4sPhdrtZv2Ed4zMmMnvWHDLGT/BwACZNmoJMJmPbtm2sW/eVxz0LjuZx/wML0esMmM2ejktBvhiyTE5O8dIlJSWVzMzJ1NXVsnr1Fxddt6amRv7+j2cu+j69QadRExYo/vavrljdZeQAnC43n27ZxYxxI4kODfWQW3DVdLRqFSs3bWfpVxu7jrvdblZs2Mq8rEziI8NJiYnyMHTz50xHrVKyautu3l6zoeu4zW7nrytW8c2rTwPeEYBOY1xU7ttAxBvDOuTOHRXpHNn7chY6udTt0nWdIHRd31vcbshctOHcFwI3TBWjZ0u/OsHa3d3PfGlVGw++up8tr80gLdbAiMQADp1o7DofGyZ+LOmDb4q6jBVAa7uTZz7IZcXGEgBkgoCzow5OF3y1q4I758Rz1cQoLwdgdoaYEb75QCWtlr6LFAL8Z3d5l/EHKKpo5al3DrP8qUlMHh6KTqPoKlMpl/HKx/m4Bdh5qKbLMAIcL2/hpRV5vPlwBlOGh52xPLcbXvx3nodsfkkzH28q4Z65CUwdEephWC+kPeUygTkTxDb7n6WHu4w/QGFZC4+9dYjPF09hyogwDH4Kmtu827S3ep4ue77Pme8biP8TOp71c7Fx03+YlDkDmUxGdvbWCy/3POhzB8DVLP44ijCjj9KUGH5yNW67HZlO33VYUGkQVGIo0F5d4SXmqKkElwtkMmR6Ha7GBq9rnA3enYuzuaHj/moQZB5hemdbM7KAQBQhEdjLPH94t9OJs77mPGrb/0yZPBWAtV+v7jL+PXnnnTdYs/oL6uo866/X6wDw0/khk8m8cgTKyk75LO9Y4VGcThdJSSni9EaPjnn+HXcDsHz5Bz51+SEQ32FY65qa2Zt/zOu8tSPPpLnNMyQ9ZeRQAFZtzfZ5X4tVDBNabJ7O6dTRw84oV9/cgsvtRiYIXqPz+LM4AHKZjJhw0RCfNJ97BBnb6SyYz+wsXOp2udQkGsX3ITuv1utcq8XBHYt3o9coOFXtGeo+VdPGEJOescnBbNzn2dYWm8vDGPVkzc4y7pwTz5UZkTzzQS7OHplks8aJxuw/PsL/j94+lGmjzmxwAb4vrOeJtw/5PLcv37sfPFzUgN3hQqmQERmi6ZrmsDtdfHvwzM/EiXJxLl6vVSCXiY7N6RRVtNJm9Q6dF5SI+VNhAWqP4xfSnsH+KvzUCtxuNznHvfv+o6VNtFudaNVyjCFamtu8N5DqrZ4DSUNDHV+v++ySlNXnDoDbKXpfMqXK53l5QLDXMUEhhkbcbjc4fHQUbjcuuw2ZWoMg862yy+HDk3b2OCYToMfvby080pU0qIyOw9lQi6u5CWdzA44a8xkTBy81KSli0uHhw75f+MpKM5WVZq/je/ft5c47FzJubAbLPviY3COHKS0pobj4ODk5B8U8Ah9YLBZKSotJiE/EaIyivLwMgIT4RK64YhrV1dWsXvNlH9Xu0hMfKYbO84pP+Rx1Vtc3smT5KmoautvHX6clMlicqrh/3lyfmcDxHSH50upuAxOg1xERFIjd4aCgxNvhiggKRCYItFksVNV7/h6dUwAnfDgAMeGhKORy6pqaaWr1PTfbU4dAvQ63201J5VkcgEvYLgOBumNv9sZW347I0VLfuw5+uOEkWaPDueuqeGaNjyCvuIlicysnylvYf7TOy2Ho5EhxE4VlLSRF68lMD2HHIXFAkRJjIC7Cj8YWO9sPef8e4UFqEjqclTNReZZQdFObd/2cLtHJCdSr0Ci9w9AGPwXXTo4mKUqHWiXvGqlq1T0XifkOhba2+45g7DxcywOv7KPltPMX0p4qRbcer/9+vM/ylB3XKOW+F7b1Vs/Lhct2HwBHZTktOzagHT4OeUCwR0QCwFFRSuu+7bit/TsHczYUCiVGo7jL4MmTvdu+NTf3EM88+z8svOc+oqJNREVFd51zOh0sX7GMpUvf8ilbkH+EhPhEUpJTuxyABQvuQRAEPvz3e9jt3tm2PxS6QutnCIdX1NbzySbPeeDO+XaAqaOGnfHeVpudih6GLjFKlDtZWe0xAuw6H919vicKuRxTeAjgO2zfFR04R1IfdIf/zbUNWM8yCr+U7eLJIN4oHdh5uIb7X93HQ7ekkBLjT3So5wqmbQerePztQ9Q1eb8Ta3aW8dBPU5k70djlAMwaL47+1+2p8AhHd/LwP7/n4X/6nm/vD66dHMUTC9Ix+PWtKahtsvqMLlxMewqCQGZ6yCXRsz8YjE/6ZesAADgqTtFccQpBrUEeEIJcr0ceHIYyJgGFMQa/8VfQumPjuW/UT5hMJuRyOdXV1bS19T5LetOmjWzatJGw0DDi4hKIjY1l4sTJTJiQyYL595B35Ai7du/wkssvyOeqq64lOTmFLd9uIiYmlqysGVRVmVm79j99UTVgYFYBdBrP4nMkxPUkoUNm8/4c/vD6B72WKyr3XVZCVGcin2e9YsJDkctk1DU109jq/bt31eEsc/rdOnSUcY6pgkvZLj1x2cWogVw1eLck2fp9NVu/rybYX0VajD8xEVpGJAZydaaRqaPCWbxwBL9+1Tv57D87K/h/t6Qwa1wkf343F7vTxZyMiI5z/ZM03Btiwv149hcjUcgFXvvsKCs3l1Lf3G14I4I0bPrbjD4v90Lb0+mCkfd83ef69Dedz7bDdualhgNFnzsAglyB224XQ/Y+zjsb63Db7cgNAQhqcVmE2yE2jCAIoFB6TQMIgtA1peDuw+V1nbitFhxVZTiqgBMFKIoL0U+fizLShCCX43YOzA9njBRH/7V1vvMR9Ho9CfGJWG1Wjh4981KR6ppqqmuq2bd/D59/8SnPP/cymZmTSUlN8+kAFOTnAZCcLE4/zJ9/NzKZjGXL3vdYMnixDMQqgN6MnjsxhYnz7bVNvZsWiu6Yp6+u9z3dMiw+FvA2utFh4jTZqTOMmtPixIS2wlPe+TKn0+0snGMJ4CVsl57YOpZWafz7dw7WanNi0Crw9/P9HKXEGNBrFBSZWz2MYE/qmmzszK2BXPh4UymrtpXx/uMTmTYyDI1K5rVG3FzXzp78eiYODWby8BCKKtpIijZQXmvhQOG514NfCAadd/3kMnENPYClx1K3GWPCUcgF9uTX8cbq415y55u0dqGcb3vaOj6kI5eJ+Qg/tHB957NtO8P000DS5w6AzBCAy9KOo9qMIjTC86TDTvPmteCwY5h5HfJOB8BmwW2zIqjUKMMisVeUeojJQyNAJibxuftibl6uRBkphsQd5lIvA+9s6Oh4BQFBrcHd5ntjCqEzrNtP74kgE10of4O/V0IewC9/sYjrr7+Jj1cu93AARo4cTVBgEHn5eVRVeecHdL7XdXW+DUzh8UIcDjvx8YlEREQy8ydXUlFRztenrSa4WC71KgC5TIYpTAwhlvTC0KmV4msSaPA9NxseFIBKqaS2sYl2q81LzuDnvf43IiiQ6WPSAW/j7KfVdOjrPV/rr9MyMT0Vt9vN7iPeyXqnEx8pJpSdbQngpW6XnjR2fO43qGNDoP6iqKKV0AA1E4cFe60x12kUfPhEJjqNgluf3tnlAPipFVwxUnRyth6s8jLweSWiYyeTCQQbVD7XoK/ZUcbEocFcOcHIsVNiXb/aWc4FLHo4L8anBnHgqGf9Rg0JQqmQ4XSBuYeOnR+2qa73Pc2ZGHX2XITecqHtWddko83qxE8tJ3NYiNfSSUEAU5gfAgJlNa0+kxUHkuA48dluPM+vW+p1/sTGJgDQ0tJMSanvDdn6gj6Pu6nikgCwFuSImwF1POmu1hZadv4XHHbkQaFdG/4A4HZjOyl6oNqxkzwcB0VwGNpxVwBgKyvB7SvZr7e4XfiNm4xu0gy0ozO7ViBAxz4AoyaIOlstHksET8fZKj6wyqgY+sMLKCg4gtPpIioqmrvuWohcLr6wOp2uy/g3NjbyyScrPOTmzbuFp59+lsf++CRBQd1Jl2q1mttvm8+ECZOw2azs3Om5N0InDoedEyeOExoayvXX3YhcLuODZe/hdP6wPO/T6Uyeq29u8RlaPxMFJWIexPQxw8kaPbzruEalZP6V0/nyxSd449EHkMs8X6dOwz4rYxSjkhK6jifHRPHsffNxdDiep2fyl3QY62Hxpq4sexCdhhcW3YVOo2bT/hzKqs69UiWuKwJw5umTS90uPak50YDT5kQXou1XJ+DL7aKuC68ZwtWZRmQdXnB0qJb//d1YdBoFR4oaOVzUHa1xOF08ffdwXn1wDI/PT8e/x+hap5Xzh9vFvIeGFhuV9b5Xxazfa8ZiczEpPYRxKWK0a82usn6pI8B1mdFMHt7dtw6J1vPnheJvs/Nwtceyw7yTYl0nDgshUO+ZtB0bruM3NyWfcXOcC+FC29PpcrN+rziQeXzBMDLSuvu0EH81ixeOYN2SLF79zZhBZ/wNEToCog24nS6qj51f1CctbQSzZ17H7JnXERIcem6Bi6DPIwCq+CQclWXYSotoy95C+z45glKFyyJmdwpqLX4TpnnJted+hyI0XNyhb/rV4k6AbjdCR+jf1dpE+4HdXnIXhMtJ+4Fd+E3IQpWQgio+GZdF7PhkGj/RpXS7xU1/zuKqWwvzUBpjUQ8Zhjo+2cM5afrmC3GHwIugtraWFSs+YP78u7nrznu54+cLaGhoJDg4GJlMRnNzM488+jtqaz1H8p9/tpKpV0xj9OgxfLJyNXX1NbicLkJCQlAolDidLl555SUvuZ7k5+eRkpLGT34ym7LyUtav/+HNvZ1O/DkS3c7E+j3fc/vsaaTGRrPkwbtpbGmloaWNqNAglAoFVfWNPPp/79HS7jmS+ib7AAuvnUVIgD9v/fHXXZn+YYH+vPLRl6QPuQGny02J2dOQ558sY3duAZnpqbz624U0tLRitdsJDwxAEASOlpbzwjLvZUKLf/lzMoYmexwLMojJrS8+cCfOjqWg7VYb8x57fsDapSdOm5PS/WbiJ0Uz9KoEst/NwWnv+1581fZTTBkRytyJRpbcP5rFC120tNsJ7Vj+Vdtk5Q9v5HjI2BwuFn+Qy4uLRnFzlokbp0ZT3SDWJSxQg1wmRuVe/qjAZ5IniNn3m76r7NqBsKCkyWu3wb7k480lvPnweOqabdgdLiKDtV16LPko3+PabTk17CuoY3xqMF8+dwXr95ppszhJMOqYNiqMp989zCO3p6H2sXLgQriY9nz5o3xGJwUSH6njvccm0tLuoM3iJCxQhSAI1DXZePKdHF/FDhiCTGDYXHF/m7KcKmyt55c8HWOKA8But3Mkv3/rJDfog5/uixvpO0bNIKA0xSHz0+O2WnFbLeKcv06PKi4JXeZ0ZH7dGfeWIx0Zry4X9pLjuJ12ZCqN+L0AQcDd3IS1qIC2vdt8GlRN2kgEuRzr8XyvjH1BrkCTOkIsJ/+ghzF3NjVgLzspblWsUiLT+CEoVbhtVhzVFbQf2Im9rOSsdXa1tuBoqEGm90em0SAo1QgKJYJCibXgEPRB7sCBA/uprKwkNDSUgIBAtFoNFRXlrF//Nc8+9zSnTnkvL6uqqmTHzu34BwSg1/kREhyGQqGgstLM9h1bef6Fv7D/u30+SusmKCiYKVOmotcb+L9//J3C4+cONw92ssakM2FYCrsOH2V7ju892n3hcrvZsOd7ZHIZIf56gvwNyGQCJZXVrPzvDp57/xOf8/U2u4PtOUcwhYYQGuiPUqGgqMLMS8u/oKy6jhunTaS8upYVG70jMZu/O4RMkBEaYCDY34BSruD4KTPL12/luWWf0uZje+Df3nINEcFBHVv/iv91zuNqVKquY+a6Bj7/dteAtcvpNJQ2E5kehj7Uj4AoPVVH63D5yJC/WDbsM1NeYyHQoCLIoEKvVVJW087qHWU88vpByn1sd1tY1sLG/ZWoVTL0fgrCAjUYtEqaWu1k59Wy+P3cc+7mZ7E7uXZSFHqtgvfXFXPgPEeCveEX1w5BrZSx5KN8svNqSYnxJzJEi8XuYntONY/866CX4+EGvtkjjqzjI3VkDgslyWSgvsXGC//OY/1eMwuvSUSjkvP6l4UeY6Ghcf78ZGwEp6rF9jtfLrQ9LTYnX+44hcMJwXoVQf5KFHKB0sp2Pvv2FE8uzaHY7B29ulA9Lxa5Ss7IeamEDgnC2mLn4Kf55+XYymQyZmTNRS6Xk1eQw7HCvH7VUzBGJPXJmxa54NcXJNfw6bt9UbyExA+K667I4Mm7b/X5MZ/LEb8gLRl3jUBjUGFtsXEyu5yyg5WDMnFqMNL5MaAbHt9GYT9GGCTOjkKjIHpkOPGTotH4q7G12dm37DDNVb7zyE4nyhjDT2++C4AVH79NVbV3DldfclkvA5S4fAgPimRmxjWkDxlDoD6IhuY6jhTnsDF7DVX1Z37J+ksu7gzb8w42PS+l3K63vmf4dUmEJQeTMjMeW6udsoOVg07PwSinUVUBDn576+PsPlI0aPX8scsZh0aQ6y9u36ts0pH7ee55G3/oDv+bK8v63fiDFAGQuAzIGDqF+295BK3az+ucw2ln6Zr/ZfM+7w8fZQ7P4r55D/WL3NyJkUwfM5xn3l/J6m17+r28H5JcYIwB05hIqo/WUZlfO2j1HExy6aZ/IhesFJgXYLWHDlo9f+xyFa5ijrkOkCQbTZQs4axySoUKu8MzL+CmGxcQY4pj/cbV5PXz/D9IDoDEZUB4UCQvPPgvjhQdZOPer6iuMxMVHkvWmNmMS5uEw2nn4LF9fLppGWVVJUSHxzJ7wrWMSZmIVuNH7onv+1zOGJiLv07GoiVvUNfs7vfyJLkft9yt03bhpxb409JWkmJmDlo9JbluuZFJ41n8zsNdkQW5XMGi+x7GbrfxzruvXZJVV5IDIHFZEB0WS1m1d1LnrAnXsfD63/iUcTjtfLR+KV/t8M64b5w80QAAAMRJREFUl+QkOUlOkrtYudc/W8LOnC0+z18KJAdA4rInOiyW66bdypiUCfhp/GiztHHg6B4+37TsrPN+kpwkJ8lJcv0ldynoMwdAQkJCQkJC4ofD4P0Ch4SEhISEhES/ITkAEhISEhISlyGSAyAhIdEvyBQyjOnhBEb374d+BiOGcB3RI43IVX2zja6ERH8gbQQkISHR58SOjWLo7GQ0AWoOfHqYhjLfn0T+saIL9mP8bSOwttgo+O9xivaUinvvSkgMIv4/6D5dVTEur6MAAAAASUVORK5CYII=;" vertex="1" parent="1">
          <mxGeometry x="1130" y="781" width="512" height="39" as="geometry" />
        </mxCell>
        <mxCell id="q35H9doEMfjliMhX2mms-8" style="edgeStyle=orthogonalEdgeStyle;rounded=0;orthogonalLoop=1;jettySize=auto;html=1;fontFamily=Comfortaa;fontSource=https%3A%2F%2Ffonts.googleapis.com%2Fcss%3Ffamily%3DComfortaa;fontSize=25;startArrow=none;" edge="1" parent="1" source="q35H9doEMfjliMhX2mms-9" target="q35H9doEMfjliMhX2mms-7">
          <mxGeometry relative="1" as="geometry" />
        </mxCell>
        <mxCell id="q35H9doEMfjliMhX2mms-6" value="createReadStream" style="rounded=0;whiteSpace=wrap;html=1;fontFamily=Comfortaa;fontSource=https%3A%2F%2Ffonts.googleapis.com%2Fcss%3Ffamily%3DComfortaa;fontSize=25;" vertex="1" parent="1">
          <mxGeometry x="365" y="1450" width="335" height="60" as="geometry" />
        </mxCell>
        <mxCell id="q35H9doEMfjliMhX2mms-12" style="edgeStyle=orthogonalEdgeStyle;rounded=0;orthogonalLoop=1;jettySize=auto;html=1;entryX=0;entryY=0.5;entryDx=0;entryDy=0;fontFamily=Comfortaa;fontSource=https%3A%2F%2Ffonts.googleapis.com%2Fcss%3Ffamily%3DComfortaa;fontSize=25;" edge="1" parent="1" source="q35H9doEMfjliMhX2mms-7" target="q35H9doEMfjliMhX2mms-11">
          <mxGeometry relative="1" as="geometry" />
        </mxCell>
        <mxCell id="q35H9doEMfjliMhX2mms-7" value="csv" style="rounded=0;whiteSpace=wrap;html=1;fontFamily=Comfortaa;fontSource=https%3A%2F%2Ffonts.googleapis.com%2Fcss%3Ffamily%3DComfortaa;fontSize=25;" vertex="1" parent="1">
          <mxGeometry x="950" y="1450" width="120" height="60" as="geometry" />
        </mxCell>
        <mxCell id="q35H9doEMfjliMhX2mms-9" value="pipe" style="text;html=1;strokeColor=none;fillColor=none;align=center;verticalAlign=middle;whiteSpace=wrap;rounded=0;fontFamily=Comfortaa;fontSource=https%3A%2F%2Ffonts.googleapis.com%2Fcss%3Ffamily%3DComfortaa;fontSize=25;" vertex="1" parent="1">
          <mxGeometry x="800" y="1465" width="60" height="30" as="geometry" />
        </mxCell>
        <mxCell id="q35H9doEMfjliMhX2mms-10" value="" style="edgeStyle=orthogonalEdgeStyle;rounded=0;orthogonalLoop=1;jettySize=auto;html=1;fontFamily=Comfortaa;fontSource=https%3A%2F%2Ffonts.googleapis.com%2Fcss%3Ffamily%3DComfortaa;fontSize=25;endArrow=none;" edge="1" parent="1" source="q35H9doEMfjliMhX2mms-6" target="q35H9doEMfjliMhX2mms-9">
          <mxGeometry relative="1" as="geometry">
            <mxPoint x="700" y="1480" as="sourcePoint" />
            <mxPoint x="950" y="1480" as="targetPoint" />
          </mxGeometry>
        </mxCell>
        <mxCell id="q35H9doEMfjliMhX2mms-11" value="on(&#39;data&#39;)" style="rounded=0;whiteSpace=wrap;html=1;fontFamily=Comfortaa;fontSource=https%3A%2F%2Ffonts.googleapis.com%2Fcss%3Ffamily%3DComfortaa;fontSize=25;" vertex="1" parent="1">
          <mxGeometry x="1290" y="1450" width="120" height="60" as="geometry" />
        </mxCell>
        <mxCell id="q35H9doEMfjliMhX2mms-14" value="Piping data" style="text;html=1;strokeColor=none;fillColor=none;align=center;verticalAlign=middle;whiteSpace=wrap;rounded=0;fontFamily=Comfortaa;fontSource=https%3A%2F%2Ffonts.googleapis.com%2Fcss%3Ffamily%3DComfortaa;fontSize=25;fontStyle=2" vertex="1" parent="1">
          <mxGeometry x="850" y="1550" width="230" height="30" as="geometry" />
        </mxCell>
      </root>
    </mxGraphModel>
  </diagram>
  <diagram id="Hao0-jK1igKAdYafes-d" name="Page-2">
    <mxGraphModel dx="1398" dy="751" grid="1" gridSize="10" guides="1" tooltips="1" connect="1" arrows="1" fold="1" page="1" pageScale="1" pageWidth="850" pageHeight="1100" math="0" shadow="0">
      <root>
        <mxCell id="0" />
        <mxCell id="1" parent="0" />
      </root>
    </mxGraphModel>
  </diagram>
</mxfile>
